SplineFontDB: 3.2
FontName: KoreeneSans-ExtraLightItalic
FullName: Koreene Sans ExtraLight Italic
FamilyName: Koreene Sans ExtraLight
Weight: Extra-Light
Copyright: (C) Copyright HanYang I&C Co.,Ltd. All rights reserved.
Version: 2.52
ItalicAngle: -9.4
UnderlinePosition: -244
UnderlineWidth: 90
Ascent: 1638
Descent: 410
InvalidEm: 0
sfntRevision: 0x00020147
LayerCount: 2
Layer: 0 1 "Back" 1
Layer: 1 1 "Fore" 0
XUID: [1021 531 -1996577725 15096407]
StyleMap: 0x0001
FSType: 0
OS2Version: 4
OS2_WeightWidthSlopeOnly: 0
OS2_UseTypoMetrics: 1
CreationTime: 1068260456
ModificationTime: 1706985259
PfmFamily: 81
TTFWeight: 200
TTFWidth: 5
LineGap: 512
VLineGap: 0
Panose: 0 0 0 0 0 0 0 0 0 0
OS2TypoAscent: 1940
OS2TypoAOffset: 0
OS2TypoDescent: -470
OS2TypoDOffset: 0
OS2TypoLinegap: 512
OS2WinAscent: 2196
OS2WinAOffset: 0
OS2WinDescent: 726
OS2WinDOffset: 0
HheadAscent: 1940
HheadAOffset: 0
HheadDescent: -470
HheadDOffset: 0
OS2SubXSize: 410
OS2SubYSize: 410
OS2SubXOff: 0
OS2SubYOff: 574
OS2SupXSize: 410
OS2SupYSize: 410
OS2SupXOff: 0
OS2SupYOff: 1926
OS2StrikeYSize: 204
OS2StrikeYPos: 1024
OS2CapHeight: 1470
OS2XHeight: 1046
OS2Vendor: 'HY  '
OS2CodePages: 2000019f.00000000
OS2UnicodeRanges: e10002ff.4000001b.00000000.00000000
Lookup: 1 0 0 "'aalt' Access All Alternates lookup 0" { "'aalt' Access All Alternates lookup 0 subtable"  } ['aalt' ('DFLT' <'dflt' > 'cyrl' <'dflt' > 'grek' <'dflt' > 'hang' <'dflt' > 'jamo' <'dflt' > 'latn' <'dflt' > ) ]
Lookup: 3 0 0 "'aalt' Access All Alternates lookup 1" { "'aalt' Access All Alternates lookup 1 subtable"  } ['aalt' ('DFLT' <'dflt' > 'cyrl' <'dflt' > 'grek' <'dflt' > 'hang' <'dflt' > 'jamo' <'dflt' > 'latn' <'dflt' > ) ]
Lookup: 1 0 0 "'locl' Localized Forms in Latin lookup 2" { "'locl' Localized Forms in Latin lookup 2 subtable"  } ['locl' ('latn' <'MOL ' > ) ]
Lookup: 1 0 0 "'locl' Localized Forms in Latin lookup 3" { "'locl' Localized Forms in Latin lookup 3 subtable"  } ['locl' ('latn' <'ROM ' > ) ]

StartChar: exclam
Encoding: 33 33 4
Width: 586
GlyphClass: 2
Flags: W
LayerCount: 2
Fore
SplineSet
102 -18 m 1,0,-1
 132 172 l 1,1,-1
 326 172 l 1,2,-1
 296 -18 l 1,3,-1
 102 -18 l 1,0,-1
310 418 m 1,4,-1
 228 418 l 1,5,-1
 388 1472 l 1,6,-1
 500 1472 l 1,7,-1
 310 418 l 1,4,-1
EndSplineSet
EndChar

StartChar: quotedbl
Encoding: 34 34 5
Width: 900
GlyphClass: 2
Flags: W
LayerCount: 2
Fore
SplineSet
594 1106 m 1,0,-1
 858 1664 l 1,1,-1
 1004 1664 l 1,2,-1
 674 1106 l 1,3,-1
 594 1106 l 1,0,-1
218 1106 m 1,4,-1
 482 1664 l 1,5,-1
 626 1664 l 1,6,-1
 296 1106 l 1,7,-1
 218 1106 l 1,4,-1
EndSplineSet
EndChar

StartChar: numbersign
Encoding: 35 35 6
Width: 1354
GlyphClass: 2
Flags: W
LayerCount: 2
Fore
SplineSet
66 424 m 1,0,-1
 78 498 l 1,1,-1
 336 498 l 1,2,-1
 472 934 l 1,3,-1
 214 934 l 1,4,-1
 226 1006 l 1,5,-1
 492 1006 l 1,6,-1
 618 1422 l 1,7,-1
 700 1422 l 1,8,-1
 576 1006 l 1,9,-1
 1006 1006 l 1,10,-1
 1134 1422 l 1,11,-1
 1214 1422 l 1,12,-1
 1090 1006 l 1,13,-1
 1340 1006 l 1,14,-1
 1328 934 l 1,15,-1
 1070 934 l 1,16,-1
 936 498 l 1,17,-1
 1192 498 l 1,18,-1
 1180 424 l 1,19,-1
 916 424 l 1,20,-1
 792 6 l 1,21,-1
 706 6 l 1,22,-1
 832 424 l 1,23,-1
 400 424 l 1,24,-1
 276 6 l 1,25,-1
 190 6 l 1,26,-1
 316 424 l 1,27,-1
 66 424 l 1,0,-1
420 498 m 1,28,-1
 852 498 l 1,29,-1
 986 934 l 1,30,-1
 554 934 l 1,31,-1
 420 498 l 1,28,-1
EndSplineSet
EndChar

StartChar: dollar
Encoding: 36 36 7
Width: 1142
GlyphClass: 2
Flags: W
LayerCount: 2
Fore
SplineSet
86 242 m 1,0,-1
 164 284 l 1,1,2
 208 194 208 194 304 137 c 128,-1,3
 400 80 400 80 494 80 c 0,4,5
 638 80 638 80 743 148 c 128,-1,6
 848 216 848 216 872 360 c 0,7,8
 882 422 882 422 868 474 c 128,-1,9
 854 526 854 526 829 560 c 128,-1,10
 804 594 804 594 752 627 c 128,-1,11
 700 660 700 660 658 680 c 128,-1,12
 616 700 616 700 548 730 c 0,13,14
 526 740 526 740 514 744 c 0,15,16
 374 804 374 804 306 890 c 128,-1,17
 238 976 238 976 262 1122 c 0,18,19
 284 1258 284 1258 398 1358 c 128,-1,20
 512 1458 512 1458 676 1466 c 1,21,-1
 704 1634 l 1,22,-1
 792 1634 l 1,23,-1
 764 1464 l 1,24,25
 868 1462 868 1462 953 1399 c 128,-1,26
 1038 1336 1038 1336 1062 1260 c 1,27,-1
 986 1224 l 1,28,29
 894 1388 894 1388 710 1388 c 0,30,31
 564 1388 564 1388 469 1313 c 128,-1,32
 374 1238 374 1238 356 1120 c 0,33,34
 334 992 334 992 404 923 c 128,-1,35
 474 854 474 854 630 786 c 0,36,37
 700 756 700 756 739 737 c 128,-1,38
 778 718 778 718 835 679 c 128,-1,39
 892 640 892 640 919 600 c 128,-1,40
 946 560 946 560 963 500 c 128,-1,41
 980 440 980 440 968 370 c 0,42,43
 938 194 938 194 813 101 c 128,-1,44
 688 8 688 8 522 0 c 1,45,-1
 496 -160 l 1,46,-1
 408 -160 l 1,47,-1
 434 2 l 1,48,49
 334 6 334 6 234 69 c 128,-1,50
 134 132 134 132 86 242 c 1,0,-1
EndSplineSet
EndChar

StartChar: percent
Encoding: 37 37 8
Width: 1890
GlyphClass: 2
Flags: W
LayerCount: 2
Fore
SplineSet
1000 310 m 0,0,1
 1026 462 1026 462 1143 559 c 128,-1,2
 1260 656 1260 656 1410 656 c 256,3,4
 1560 656 1560 656 1646 558 c 128,-1,5
 1732 460 1732 460 1706 310 c 0,6,7
 1680 154 1680 154 1563 59 c 128,-1,8
 1446 -36 1446 -36 1296 -36 c 0,9,10
 1148 -36 1148 -36 1061 59 c 128,-1,11
 974 154 974 154 1000 310 c 0,0,1
1088 310 m 0,12,13
 1068 190 1068 190 1136 114 c 128,-1,14
 1204 38 1204 38 1308 38 c 0,15,16
 1414 38 1414 38 1506 114 c 128,-1,17
 1598 190 1598 190 1618 310 c 256,18,19
 1638 430 1638 430 1574 505 c 128,-1,20
 1510 580 1510 580 1398 580 c 0,21,22
 1288 580 1288 580 1198 504 c 128,-1,23
 1108 428 1108 428 1088 310 c 0,12,13
244 1162 m 256,24,25
 270 1316 270 1316 386 1412 c 128,-1,26
 502 1508 502 1508 652 1508 c 0,27,28
 800 1508 800 1508 886 1412 c 128,-1,29
 972 1316 972 1316 946 1162 c 0,30,31
 920 1010 920 1010 802 914 c 128,-1,32
 684 818 684 818 538 818 c 0,33,34
 390 818 390 818 304 913 c 128,-1,35
 218 1008 218 1008 244 1162 c 256,24,25
328 1162 m 0,36,37
 308 1042 308 1042 376 967 c 128,-1,38
 444 892 444 892 550 892 c 256,39,40
 656 892 656 892 747 967 c 128,-1,41
 838 1042 838 1042 858 1162 c 256,42,43
 878 1282 878 1282 814 1358 c 128,-1,44
 750 1434 750 1434 640 1434 c 0,45,46
 532 1434 532 1434 440 1357 c 128,-1,47
 348 1280 348 1280 328 1162 c 0,36,37
280 -6 m 1,48,-1
 1572 1476 l 1,49,-1
 1670 1476 l 1,50,-1
 376 -6 l 1,51,-1
 280 -6 l 1,48,-1
EndSplineSet
EndChar

StartChar: ampersand
Encoding: 38 38 9
Width: 1252
GlyphClass: 2
Flags: W
LayerCount: 2
Fore
SplineSet
194 364 m 0,0,1
 170 224 170 224 250 132 c 128,-1,2
 330 40 330 40 474 40 c 0,3,4
 594 40 594 40 704 105 c 128,-1,5
 814 170 814 170 892 266 c 1,6,-1
 576 800 l 1,7,8
 236 616 236 616 194 364 c 0,0,1
100 362 m 0,9,10
 150 666 150 666 538 870 c 1,11,12
 494 950 494 950 477 989 c 128,-1,13
 460 1028 460 1028 444 1090 c 128,-1,14
 428 1152 428 1152 436 1202 c 0,15,16
 456 1324 456 1324 559 1407 c 128,-1,17
 662 1490 662 1490 818 1490 c 0,18,19
 946 1490 946 1490 1027 1422 c 128,-1,20
 1108 1354 1108 1354 1138 1256 c 1,21,-1
 1056 1224 l 1,22,23
 1032 1296 1032 1296 966 1353 c 128,-1,24
 900 1410 900 1410 810 1410 c 0,25,26
 694 1410 694 1410 619 1348 c 128,-1,27
 544 1286 544 1286 530 1200 c 0,28,29
 524 1160 524 1160 541 1100 c 128,-1,30
 558 1040 558 1040 611 938 c 128,-1,31
 664 836 664 836 699 773 c 128,-1,32
 734 710 734 710 826 556 c 128,-1,33
 918 402 918 402 954 344 c 1,34,35
 1048 482 1048 482 1104 670 c 1,36,-1
 1190 656 l 1,37,38
 1126 442 1126 442 1000 266 c 1,39,-1
 1158 0 l 1,40,-1
 1050 0 l 1,41,-1
 934 192 l 1,42,43
 734 -38 734 -38 460 -38 c 0,44,45
 264 -38 264 -38 168 77 c 128,-1,46
 72 192 72 192 100 362 c 0,9,10
EndSplineSet
EndChar

StartChar: quotesingle
Encoding: 39 39 10
Width: 524
GlyphClass: 2
Flags: W
LayerCount: 2
Fore
SplineSet
222 1106 m 1,0,-1
 484 1664 l 1,1,-1
 630 1664 l 1,2,-1
 302 1106 l 1,3,-1
 222 1106 l 1,0,-1
EndSplineSet
EndChar

StartChar: parenleft
Encoding: 40 40 11
Width: 870
GlyphClass: 2
Flags: W
LayerCount: 2
Fore
SplineSet
336 702 m 0,0,1
 434 1292 434 1292 844 1716 c 1,2,-1
 902 1680 l 1,3,4
 822 1586 822 1586 767 1511 c 128,-1,5
 712 1436 712 1436 638 1312 c 128,-1,6
 564 1188 564 1188 511 1034 c 128,-1,7
 458 880 458 880 430 702 c 0,8,9
 404 550 404 550 405 410 c 128,-1,10
 406 270 406 270 418 181 c 128,-1,11
 430 92 430 92 467 -15 c 128,-1,12
 504 -122 504 -122 521 -158 c 128,-1,13
 538 -194 538 -194 580 -276 c 1,14,-1
 508 -312 l 1,15,16
 240 124 240 124 336 702 c 0,0,1
EndSplineSet
Substitution2: "'sups' Superscript lookup 5 subtable" uni207D
Substitution2: "'aalt' Access All Alternates lookup 0 subtable" uni207D
EndChar

StartChar: parenright
Encoding: 41 41 12
Width: 870
GlyphClass: 2
Flags: W
LayerCount: 2
Fore
SplineSet
16 -276 m 1,0,1
 96 -180 96 -180 149 -107 c 128,-1,2
 202 -34 202 -34 276 90 c 128,-1,3
 350 214 350 214 405 369 c 128,-1,4
 460 524 460 524 488 702 c 0,5,6
 518 878 518 878 516 1030 c 128,-1,7
 514 1182 514 1182 483 1305 c 128,-1,8
 452 1428 452 1428 420 1506 c 128,-1,9
 388 1584 388 1584 338 1680 c 1,10,-1
 410 1716 l 1,11,12
 680 1296 680 1296 580 702 c 0,13,14
 484 120 484 120 74 -312 c 1,15,-1
 16 -276 l 1,0,1
EndSplineSet
Substitution2: "'sups' Superscript lookup 5 subtable" uni207E
Substitution2: "'aalt' Access All Alternates lookup 0 subtable" uni207E
EndChar

StartChar: asterisk
Encoding: 42 42 13
Width: 1090
GlyphClass: 2
Flags: W
LayerCount: 2
Fore
SplineSet
112 854 m 1,0,-1
 160 938 l 1,1,-1
 546 778 l 1,2,-1
 600 1194 l 1,3,-1
 698 1194 l 1,4,-1
 618 778 l 1,5,-1
 1056 938 l 1,6,-1
 1076 854 l 1,7,-1
 630 706 l 1,8,-1
 884 342 l 1,9,-1
 800 286 l 1,10,-1
 560 658 l 1,11,-1
 196 286 l 1,12,-1
 134 342 l 1,13,-1
 510 704 l 1,14,-1
 112 854 l 1,0,-1
EndSplineSet
EndChar

StartChar: plus
Encoding: 43 43 14
Width: 1090
GlyphClass: 2
Flags: W
LayerCount: 2
Fore
SplineSet
84 686 m 1,0,-1
 96 766 l 1,1,-1
 536 766 l 1,2,-1
 608 1200 l 1,3,-1
 696 1200 l 1,4,-1
 624 766 l 1,5,-1
 1060 766 l 1,6,-1
 1048 686 l 1,7,-1
 610 686 l 1,8,-1
 536 232 l 1,9,-1
 448 232 l 1,10,-1
 522 686 l 1,11,-1
 84 686 l 1,0,-1
EndSplineSet
Substitution2: "'sups' Superscript lookup 5 subtable" uni207A
Substitution2: "'aalt' Access All Alternates lookup 0 subtable" uni207A
EndChar

StartChar: comma
Encoding: 44 44 15
Width: 550
GlyphClass: 2
Flags: W
LayerCount: 2
Fore
SplineSet
-92 -366 m 1,0,-1
 172 192 l 1,1,-1
 316 192 l 1,2,-1
 -14 -366 l 1,3,-1
 -92 -366 l 1,0,-1
EndSplineSet
EndChar

StartChar: hyphen
Encoding: 45 45 16
Width: 758
GlyphClass: 2
Flags: W
LayerCount: 2
Fore
SplineSet
88 686 m 1,0,-1
 102 766 l 1,1,-1
 726 766 l 1,2,-1
 712 686 l 1,3,-1
 88 686 l 1,0,-1
EndSplineSet
EndChar

StartChar: period
Encoding: 46 46 17
Width: 550
GlyphClass: 2
Flags: W
LayerCount: 2
Fore
SplineSet
80 0 m 1,0,-1
 112 192 l 1,1,-1
 306 192 l 1,2,-1
 274 0 l 1,3,-1
 80 0 l 1,0,-1
EndSplineSet
EndChar

StartChar: slash
Encoding: 47 47 18
Width: 632
GlyphClass: 2
Flags: W
LayerCount: 2
Fore
SplineSet
-132 -128 m 1,0,-1
 724 1580 l 1,1,-1
 818 1580 l 1,2,-1
 -36 -128 l 1,3,-1
 -132 -128 l 1,0,-1
EndSplineSet
EndChar

StartChar: zero
Encoding: 48 48 19
Width: 1100
GlyphClass: 2
Flags: W
LayerCount: 2
Fore
SplineSet
242 736 m 0,0,1
 188 412 188 412 244 227 c 128,-1,2
 300 42 300 42 468 42 c 0,3,4
 592 42 592 42 686 143 c 128,-1,5
 780 244 780 244 835 392 c 128,-1,6
 890 540 890 540 922 736 c 0,7,8
 976 1062 976 1062 920 1246 c 128,-1,9
 864 1430 864 1430 696 1430 c 0,10,11
 534 1430 534 1430 415 1249 c 128,-1,12
 296 1068 296 1068 242 736 c 0,0,1
146 736 m 0,13,14
 210 1128 210 1128 363 1318 c 128,-1,15
 516 1508 516 1508 710 1508 c 0,16,17
 912 1508 912 1508 997 1313 c 128,-1,18
 1082 1118 1082 1118 1018 736 c 0,19,20
 982 518 982 518 913 351 c 128,-1,21
 844 184 844 184 725 74 c 128,-1,22
 606 -36 606 -36 456 -36 c 0,23,24
 256 -36 256 -36 170 163 c 128,-1,25
 84 362 84 362 146 736 c 0,13,14
EndSplineSet
EndChar

StartChar: one
Encoding: 49 49 20
Width: 1100
GlyphClass: 2
Flags: W
LayerCount: 2
Fore
SplineSet
326 1190 m 1,0,-1
 338 1262 l 1,1,-1
 410 1262 l 2,2,3
 560 1262 560 1262 617 1300 c 0,4,5
 674 1340 674 1340 690 1434 c 2,6,-1
 696 1470 l 1,7,-1
 776 1470 l 1,8,-1
 534 0 l 1,9,-1
 438 0 l 1,10,-1
 634 1190 l 1,11,-1
 326 1190 l 1,0,-1
EndSplineSet
Substitution2: "'subs' Subscript lookup 6 subtable" uni2081
Substitution2: "'sups' Superscript lookup 5 subtable" onesuperior
Substitution2: "'sinf' Scientific Inferiors lookup 4 subtable" uni2081
AlternateSubs2: "'aalt' Access All Alternates lookup 1 subtable" uni2081 onesuperior
EndChar

StartChar: two
Encoding: 50 50 21
Width: 1100
GlyphClass: 2
Flags: W
LayerCount: 2
Fore
SplineSet
216 1160 m 1,0,1
 288 1322 288 1322 411 1415 c 128,-1,2
 534 1508 534 1508 708 1508 c 0,3,4
 886 1508 886 1508 981 1403 c 128,-1,5
 1076 1298 1076 1298 1046 1112 c 0,6,7
 1008 886 1008 886 750 672 c 0,8,9
 446 422 446 422 325 306 c 128,-1,10
 204 190 204 190 154 80 c 1,11,-1
 874 80 l 1,12,-1
 862 0 l 1,13,-1
 28 0 l 1,14,15
 36 54 36 54 61 108 c 128,-1,16
 86 162 86 162 142 227 c 128,-1,17
 198 292 198 292 239 337 c 128,-1,18
 280 382 280 382 374 463 c 128,-1,19
 468 544 468 544 513 583 c 128,-1,20
 558 622 558 622 676 718 c 0,21,22
 920 922 920 922 952 1112 c 0,23,24
 978 1264 978 1264 906 1347 c 128,-1,25
 834 1430 834 1430 688 1430 c 0,26,27
 554 1430 554 1430 453 1350 c 128,-1,28
 352 1270 352 1270 296 1138 c 1,29,-1
 216 1160 l 1,0,1
EndSplineSet
Substitution2: "'subs' Subscript lookup 6 subtable" uni2082
Substitution2: "'sups' Superscript lookup 5 subtable" twosuperior
Substitution2: "'sinf' Scientific Inferiors lookup 4 subtable" uni2082
AlternateSubs2: "'aalt' Access All Alternates lookup 1 subtable" uni2082 twosuperior
EndChar

StartChar: three
Encoding: 51 51 22
Width: 1100
GlyphClass: 2
Flags: W
LayerCount: 2
Fore
SplineSet
38 222 m 1,0,-1
 124 258 l 1,1,2
 210 42 210 42 438 42 c 0,3,4
 596 42 596 42 717 133 c 128,-1,5
 838 224 838 224 866 402 c 0,6,7
 894 568 894 568 795 654 c 128,-1,8
 696 740 696 740 536 740 c 0,9,10
 452 740 452 740 432 738 c 1,11,-1
 446 820 l 1,12,13
 464 818 464 818 542 818 c 0,14,15
 690 818 690 818 797 903 c 128,-1,16
 904 988 904 988 928 1134 c 0,17,18
 950 1264 950 1264 878 1347 c 128,-1,19
 806 1430 806 1430 668 1430 c 0,20,21
 462 1430 462 1430 318 1198 c 1,22,-1
 244 1228 l 1,23,24
 406 1508 406 1508 686 1508 c 0,25,26
 870 1508 870 1508 960 1402 c 128,-1,27
 1050 1296 1050 1296 1024 1140 c 0,28,29
 1002 1004 1002 1004 912 911 c 128,-1,30
 822 818 822 818 712 784 c 1,31,32
 832 758 832 758 911 661 c 128,-1,33
 990 564 990 564 962 402 c 0,34,35
 926 190 926 190 779 77 c 128,-1,36
 632 -36 632 -36 426 -36 c 0,37,38
 134 -36 134 -36 38 222 c 1,0,-1
EndSplineSet
Substitution2: "'subs' Subscript lookup 6 subtable" uni2083
Substitution2: "'sups' Superscript lookup 5 subtable" threesuperior
Substitution2: "'sinf' Scientific Inferiors lookup 4 subtable" uni2083
AlternateSubs2: "'aalt' Access All Alternates lookup 1 subtable" uni2083 threesuperior
EndChar

StartChar: four
Encoding: 52 52 23
Width: 1100
GlyphClass: 2
Flags: W
LayerCount: 2
Fore
SplineSet
40 434 m 1,0,-1
 912 1470 l 1,1,-1
 1006 1470 l 1,2,-1
 814 436 l 1,3,-1
 1046 436 l 1,4,-1
 1032 358 l 1,5,-1
 802 358 l 1,6,-1
 738 0 l 1,7,-1
 646 0 l 1,8,-1
 710 358 l 1,9,-1
 28 358 l 1,10,-1
 40 434 l 1,0,-1
132 436 m 1,11,-1
 722 436 l 1,12,-1
 852 1096 l 2,13,14
 866 1174 866 1174 896 1336 c 1,15,-1
 890 1336 l 1,16,-1
 732 1132 l 1,17,-1
 132 436 l 1,11,-1
EndSplineSet
Substitution2: "'subs' Subscript lookup 6 subtable" uni2084
Substitution2: "'sups' Superscript lookup 5 subtable" uni2074
Substitution2: "'sinf' Scientific Inferiors lookup 4 subtable" uni2084
AlternateSubs2: "'aalt' Access All Alternates lookup 1 subtable" uni2084 uni2074
EndChar

StartChar: five
Encoding: 53 53 24
Width: 1100
GlyphClass: 2
Flags: W
LayerCount: 2
Fore
SplineSet
52 212 m 1,0,-1
 136 244 l 1,1,2
 170 150 170 150 247 96 c 128,-1,3
 324 42 324 42 424 42 c 0,4,5
 590 42 590 42 703 153 c 128,-1,6
 816 264 816 264 842 428 c 0,7,8
 872 604 872 604 792 710 c 128,-1,9
 712 816 712 816 554 816 c 0,10,11
 476 816 476 816 386 782 c 128,-1,12
 296 748 296 748 224 688 c 1,13,-1
 174 708 l 1,14,-1
 374 1470 l 1,15,-1
 1020 1470 l 1,16,-1
 1008 1390 l 1,17,-1
 448 1390 l 1,18,-1
 288 806 l 1,19,20
 432 896 432 896 598 896 c 0,21,22
 782 896 782 896 878 769 c 128,-1,23
 974 642 974 642 938 430 c 0,24,25
 906 234 906 234 765 99 c 128,-1,26
 624 -36 624 -36 410 -36 c 0,27,28
 140 -36 140 -36 52 212 c 1,0,-1
EndSplineSet
EndChar

StartChar: six
Encoding: 54 54 25
Width: 1100
GlyphClass: 2
Flags: W
LayerCount: 2
Fore
SplineSet
206 450 m 0,0,1
 178 280 178 280 254 161 c 128,-1,2
 330 42 330 42 484 42 c 0,3,4
 632 42 632 42 748 159 c 128,-1,5
 864 276 864 276 892 450 c 0,6,7
 922 630 922 630 844 746 c 128,-1,8
 766 862 766 862 614 862 c 0,9,10
 468 862 468 862 351 743 c 128,-1,11
 234 624 234 624 206 450 c 0,0,1
132 646 m 0,12,13
 152 770 152 770 186 887 c 128,-1,14
 220 1004 220 1004 276 1119 c 128,-1,15
 332 1234 332 1234 402 1318 c 128,-1,16
 472 1402 472 1402 570 1455 c 128,-1,17
 668 1508 668 1508 780 1508 c 0,18,19
 1016 1508 1016 1508 1102 1272 c 1,20,-1
 1020 1240 l 1,21,22
 942 1430 942 1430 766 1430 c 0,23,24
 664 1430 664 1430 579 1374 c 128,-1,25
 494 1318 494 1318 434 1223 c 128,-1,26
 374 1128 374 1128 335 1037 c 128,-1,27
 296 946 296 946 270 842 c 0,28,29
 252 778 252 778 226 652 c 1,30,31
 282 780 282 780 393 860 c 128,-1,32
 504 940 504 940 642 940 c 0,33,34
 828 940 828 940 925 799 c 128,-1,35
 1022 658 1022 658 986 450 c 0,36,37
 952 244 952 244 811 104 c 128,-1,38
 670 -36 670 -36 478 -36 c 0,39,40
 282 -36 282 -36 190 90 c 0,41,42
 66 248 66 248 132 646 c 0,12,13
EndSplineSet
EndChar

StartChar: seven
Encoding: 55 55 26
Width: 1100
GlyphClass: 2
Flags: W
LayerCount: 2
Fore
SplineSet
224 1388 m 1,0,-1
 236 1470 l 1,1,-1
 1108 1470 l 1,2,-1
 1098 1402 l 1,3,4
 820 1032 820 1032 635 719 c 128,-1,5
 450 406 450 406 296 0 c 5,6,-1
 200 0 l 5,7,8
 362 426 362 426 544 728 c 128,-1,9
 726 1030 726 1030 988 1388 c 1,10,-1
 224 1388 l 1,0,-1
EndSplineSet
EndChar

StartChar: eight
Encoding: 56 56 27
Width: 1100
GlyphClass: 2
Flags: W
LayerCount: 2
Fore
SplineSet
336 1130 m 0,0,1
 314 996 314 996 393 912 c 128,-1,2
 472 828 472 828 596 828 c 0,3,4
 726 828 726 828 831 915 c 128,-1,5
 936 1002 936 1002 958 1130 c 0,6,7
 980 1264 980 1264 904 1347 c 128,-1,8
 828 1430 828 1430 696 1430 c 0,9,10
 558 1430 558 1430 457 1343 c 128,-1,11
 356 1256 356 1256 336 1130 c 0,0,1
70 386 m 0,12,13
 96 548 96 548 201 651 c 128,-1,14
 306 754 306 754 440 792 c 1,15,16
 336 830 336 830 278 915 c 128,-1,17
 220 1000 220 1000 244 1136 c 0,18,19
 270 1288 270 1288 401 1398 c 128,-1,20
 532 1508 532 1508 708 1508 c 0,21,22
 882 1508 882 1508 981 1401 c 128,-1,23
 1080 1294 1080 1294 1054 1136 c 0,24,25
 1032 1002 1032 1002 943 914 c 128,-1,26
 854 826 854 826 746 792 c 1,27,28
 870 754 870 754 940 650 c 128,-1,29
 1010 546 1010 546 982 382 c 0,30,31
 952 200 952 200 801 82 c 128,-1,32
 650 -36 650 -36 452 -36 c 0,33,34
 260 -36 260 -36 149 81 c 128,-1,35
 38 198 38 198 70 386 c 0,12,13
166 390 m 0,36,37
 140 238 140 238 226 140 c 128,-1,38
 312 42 312 42 466 42 c 0,39,40
 622 42 622 42 743 141 c 128,-1,41
 864 240 864 240 888 390 c 0,42,43
 914 546 914 546 824 648 c 128,-1,44
 734 750 734 750 584 750 c 0,45,46
 438 750 438 750 315 648 c 128,-1,47
 192 546 192 546 166 390 c 0,36,37
EndSplineSet
EndChar

StartChar: nine
Encoding: 57 57 28
Width: 1100
GlyphClass: 2
Flags: W
LayerCount: 2
Fore
SplineSet
268 1022 m 0,0,1
 238 838 238 838 321 726 c 128,-1,2
 404 614 404 614 542 614 c 0,3,4
 682 614 682 614 801 731 c 128,-1,5
 920 848 920 848 950 1022 c 0,6,7
 978 1194 978 1194 902 1312 c 128,-1,8
 826 1430 826 1430 676 1430 c 0,9,10
 530 1430 530 1430 414 1314 c 128,-1,11
 298 1198 298 1198 268 1022 c 0,0,1
58 210 m 1,12,-1
 144 242 l 1,13,14
 172 152 172 152 243 97 c 128,-1,15
 314 42 314 42 412 42 c 0,16,17
 790 42 790 42 924 792 c 1,18,19
 870 690 870 690 761 612 c 128,-1,20
 652 534 652 534 518 534 c 0,21,22
 340 534 340 534 238 667 c 128,-1,23
 136 800 136 800 174 1022 c 0,24,25
 210 1234 210 1234 353 1371 c 128,-1,26
 496 1508 496 1508 690 1508 c 0,27,28
 856 1508 856 1508 946 1404 c 128,-1,29
 1036 1300 1036 1300 1046 1142 c 0,30,31
 1052 1034 1052 1034 1014 812 c 0,32,33
 874 -36 874 -36 396 -36 c 0,34,35
 260 -36 260 -36 176 36 c 128,-1,36
 92 108 92 108 58 210 c 1,12,-1
EndSplineSet
EndChar

StartChar: colon
Encoding: 58 58 29
Width: 550
GlyphClass: 2
Flags: W
LayerCount: 2
Fore
SplineSet
80 0 m 1,0,-1
 112 192 l 1,1,-1
 306 192 l 1,2,-1
 274 0 l 1,3,-1
 80 0 l 1,0,-1
208 774 m 1,4,-1
 240 966 l 1,5,-1
 434 966 l 1,6,-1
 402 774 l 1,7,-1
 208 774 l 1,4,-1
EndSplineSet
EndChar

StartChar: semicolon
Encoding: 59 59 30
Width: 550
GlyphClass: 2
Flags: W
LayerCount: 2
Fore
SplineSet
-92 -366 m 1,0,-1
 172 194 l 1,1,-1
 316 194 l 1,2,-1
 -14 -366 l 1,3,-1
 -92 -366 l 1,0,-1
214 776 m 1,4,-1
 246 968 l 1,5,-1
 440 968 l 1,6,-1
 408 776 l 1,7,-1
 214 776 l 1,4,-1
EndSplineSet
EndChar

StartChar: less
Encoding: 60 60 31
Width: 1082
GlyphClass: 2
Flags: W
LayerCount: 2
Fore
SplineSet
144 666 m 1,0,-1
 158 752 l 1,1,-1
 1066 1384 l 1,2,-1
 1106 1316 l 1,3,-1
 238 708 l 1,4,-1
 904 102 l 1,5,-1
 842 32 l 1,6,-1
 144 666 l 1,0,-1
EndSplineSet
EndChar

StartChar: equal
Encoding: 61 61 32
Width: 1086
GlyphClass: 2
Flags: W
LayerCount: 2
Fore
SplineSet
86 498 m 1,0,-1
 100 580 l 1,1,-1
 990 580 l 1,2,-1
 976 498 l 1,3,-1
 86 498 l 1,0,-1
148 874 m 1,4,-1
 162 954 l 1,5,-1
 1052 954 l 1,6,-1
 1038 874 l 1,7,-1
 148 874 l 1,4,-1
EndSplineSet
Substitution2: "'sups' Superscript lookup 5 subtable" uni207C
Substitution2: "'aalt' Access All Alternates lookup 0 subtable" uni207C
EndChar

StartChar: greater
Encoding: 62 62 33
Width: 1082
GlyphClass: 2
Flags: W
LayerCount: 2
Fore
SplineSet
64 32 m 1,0,-1
 26 102 l 1,1,-1
 890 708 l 1,2,-1
 228 1316 l 1,3,-1
 288 1384 l 1,4,-1
 986 752 l 1,5,-1
 972 666 l 1,6,-1
 64 32 l 1,0,-1
EndSplineSet
EndChar

StartChar: question
Encoding: 63 63 34
Width: 1048
GlyphClass: 2
Flags: W
LayerCount: 2
Fore
SplineSet
234 1214 m 1,0,1
 314 1354 314 1354 432 1431 c 128,-1,2
 550 1508 550 1508 678 1508 c 0,3,4
 854 1508 854 1508 939 1402 c 128,-1,5
 1024 1296 1024 1296 996 1122 c 0,6,7
 980 1030 980 1030 931 957 c 128,-1,8
 882 884 882 884 821 832 c 128,-1,9
 760 780 760 780 699 729 c 128,-1,10
 638 678 638 678 588 605 c 128,-1,11
 538 532 538 532 524 440 c 2,12,-1
 518 400 l 1,13,-1
 424 400 l 1,14,-1
 430 444 l 2,15,16
 446 544 446 544 497 624 c 128,-1,17
 548 704 548 704 609 757 c 128,-1,18
 670 810 670 810 731 859 c 128,-1,19
 792 908 792 908 840 974 c 128,-1,20
 888 1040 888 1040 902 1122 c 0,21,22
 924 1258 924 1258 862 1343 c 128,-1,23
 800 1428 800 1428 668 1428 c 0,24,25
 460 1428 460 1428 310 1182 c 1,26,-1
 234 1214 l 1,0,1
304 -18 m 1,27,-1
 336 172 l 1,28,-1
 530 172 l 1,29,-1
 498 -18 l 1,30,-1
 304 -18 l 1,27,-1
EndSplineSet
EndChar

StartChar: at
Encoding: 64 64 35
Width: 1866
GlyphClass: 2
Flags: W
LayerCount: 2
Fore
SplineSet
142 688 m 0,0,1
 202 1054 202 1054 478 1285 c 128,-1,2
 754 1516 754 1516 1138 1516 c 0,3,4
 1482 1516 1482 1516 1661 1315 c 128,-1,5
 1840 1114 1840 1114 1786 792 c 0,6,7
 1740 514 1740 514 1615 378 c 128,-1,8
 1490 242 1490 242 1346 242 c 0,9,10
 1256 242 1256 242 1204 311 c 128,-1,11
 1152 380 1152 380 1166 486 c 1,12,-1
 1164 486 l 1,13,14
 1114 394 1114 394 1016 319 c 128,-1,15
 918 244 918 244 798 244 c 0,16,17
 664 244 664 244 592 347 c 128,-1,18
 520 450 520 450 548 622 c 0,19,20
 586 848 586 848 729 982 c 128,-1,21
 872 1116 872 1116 1032 1116 c 0,22,23
 1102 1116 1102 1116 1154 1086 c 128,-1,24
 1206 1056 1206 1056 1224 1028 c 128,-1,25
 1242 1000 1242 1000 1254 968 c 1,26,-1
 1286 1096 l 1,27,-1
 1358 1096 l 1,28,-1
 1246 556 l 2,29,30
 1244 548 1244 548 1242 538 c 0,31,32
 1226 438 1226 438 1259 378 c 128,-1,33
 1292 318 1292 318 1366 318 c 0,34,35
 1484 318 1484 318 1574 441 c 128,-1,36
 1664 564 1664 564 1700 782 c 0,37,38
 1748 1074 1748 1074 1595 1259 c 128,-1,39
 1442 1444 1442 1444 1124 1444 c 0,40,41
 788 1444 788 1444 534 1235 c 128,-1,42
 280 1026 280 1026 224 688 c 0,43,44
 168 344 168 344 343 141 c 128,-1,45
 518 -62 518 -62 846 -62 c 0,46,47
 1080 -62 1080 -62 1294 0 c 1,48,-1
 1300 -68 l 1,49,50
 1078 -134 1078 -134 834 -134 c 0,51,52
 462 -134 462 -134 272 93 c 128,-1,53
 82 320 82 320 142 688 c 0,0,1
634 622 m 0,54,55
 612 490 612 490 664 406 c 128,-1,56
 716 322 716 322 816 322 c 0,57,58
 864 322 864 322 918 343 c 128,-1,59
 972 364 972 364 1031 413 c 128,-1,60
 1090 462 1090 462 1139 560 c 128,-1,61
 1188 658 1188 658 1210 792 c 0,62,63
 1226 888 1226 888 1182 965 c 128,-1,64
 1138 1042 1138 1042 1020 1042 c 0,65,66
 900 1042 900 1042 783 930 c 128,-1,67
 666 818 666 818 634 622 c 0,54,55
EndSplineSet
EndChar

StartChar: A
Encoding: 65 65 36
Width: 1226
GlyphClass: 2
Flags: W
LayerCount: 2
Fore
SplineSet
300 542 m 1,0,-1
 920 542 l 1,1,-1
 800 1146 l 2,2,3
 764 1324 764 1324 754 1382 c 1,4,-1
 746 1382 l 1,5,6
 734 1360 734 1360 622 1146 c 2,7,-1
 300 542 l 1,0,-1
-92 0 m 1,8,-1
 704 1470 l 1,9,-1
 824 1470 l 1,10,-1
 1134 0 l 1,11,-1
 1028 0 l 1,12,-1
 936 464 l 1,13,-1
 260 464 l 1,14,-1
 12 0 l 1,15,-1
 -92 0 l 1,8,-1
EndSplineSet
Substitution2: "Single Substitution lookup 12 subtable" ordfeminine
EndChar

StartChar: B
Encoding: 66 66 37
Width: 1304
GlyphClass: 2
Flags: W
LayerCount: 2
Fore
SplineSet
122 0 m 1,0,-1
 366 1470 l 1,1,-1
 880 1470 l 2,2,3
 1080 1470 1080 1470 1170 1368 c 128,-1,4
 1260 1266 1260 1266 1232 1100 c 0,5,6
 1210 970 1210 970 1129 887 c 128,-1,7
 1048 804 1048 804 940 768 c 1,8,9
 1058 738 1058 738 1127 637 c 128,-1,10
 1196 536 1196 536 1172 400 c 0,11,12
 1144 226 1144 226 1014 113 c 128,-1,13
 884 0 884 0 698 0 c 2,14,-1
 122 0 l 1,0,-1
228 82 m 1,15,-1
 688 82 l 2,16,17
 836 82 836 82 946 171 c 128,-1,18
 1056 260 1056 260 1078 398 c 0,19,20
 1100 534 1100 534 1018 627 c 128,-1,21
 936 720 936 720 784 720 c 2,22,-1
 334 720 l 1,23,-1
 228 82 l 1,15,-1
348 800 m 1,24,-1
 746 800 l 2,25,26
 892 800 892 800 1002 875 c 128,-1,27
 1112 950 1112 950 1138 1096 c 0,28,29
 1160 1224 1160 1224 1091 1306 c 128,-1,30
 1022 1388 1022 1388 854 1388 c 2,31,-1
 444 1388 l 1,32,-1
 348 800 l 1,24,-1
EndSplineSet
EndChar

StartChar: C
Encoding: 67 67 38
Width: 1238
GlyphClass: 2
Flags: W
LayerCount: 2
Fore
SplineSet
138 736 m 0,0,1
 198 1098 198 1098 395 1303 c 128,-1,2
 592 1508 592 1508 858 1508 c 0,3,4
 1020 1508 1020 1508 1117 1418 c 128,-1,5
 1214 1328 1214 1328 1242 1210 c 1,6,-1
 1156 1176 l 1,7,8
 1082 1426 1082 1426 844 1426 c 0,9,10
 618 1426 618 1426 452 1238 c 128,-1,11
 286 1050 286 1050 234 736 c 0,12,13
 182 416 182 416 288 230 c 128,-1,14
 394 44 394 44 614 44 c 0,15,16
 754 44 754 44 866 120 c 128,-1,17
 978 196 978 196 1050 310 c 1,18,-1
 1130 282 l 1,19,20
 926 -36 926 -36 604 -36 c 0,21,22
 338 -36 338 -36 208 170 c 128,-1,23
 78 376 78 376 138 736 c 0,0,1
EndSplineSet
EndChar

StartChar: D
Encoding: 68 68 39
Width: 1326
GlyphClass: 2
Flags: W
LayerCount: 2
Fore
SplineSet
122 0 m 1,0,-1
 366 1470 l 1,1,-1
 732 1470 l 2,2,3
 1036 1470 1036 1470 1180 1286 c 128,-1,4
 1324 1102 1324 1102 1264 736 c 0,5,6
 1206 380 1206 380 1001 190 c 128,-1,7
 796 0 796 0 490 0 c 2,8,-1
 122 0 l 1,0,-1
228 82 m 1,9,-1
 478 82 l 2,10,11
 748 82 748 82 929 238 c 128,-1,12
 1110 394 1110 394 1168 736 c 0,13,14
 1276 1388 1276 1388 698 1388 c 2,15,-1
 444 1388 l 1,16,-1
 228 82 l 1,9,-1
EndSplineSet
EndChar

StartChar: E
Encoding: 69 69 40
Width: 1186
GlyphClass: 2
Flags: W
LayerCount: 2
Fore
SplineSet
122 0 m 1,0,-1
 366 1470 l 1,1,-1
 1238 1470 l 1,2,-1
 1224 1388 l 1,3,-1
 444 1388 l 1,4,-1
 348 804 l 1,5,-1
 1054 804 l 1,6,-1
 1040 724 l 1,7,-1
 334 724 l 1,8,-1
 228 82 l 1,9,-1
 1032 82 l 1,10,-1
 1018 0 l 1,11,-1
 122 0 l 1,0,-1
EndSplineSet
EndChar

StartChar: F
Encoding: 70 70 41
Width: 1118
GlyphClass: 2
Flags: W
LayerCount: 2
Fore
SplineSet
122 0 m 1,0,-1
 366 1470 l 1,1,-1
 1204 1470 l 1,2,-1
 1192 1388 l 1,3,-1
 444 1388 l 1,4,-1
 344 782 l 1,5,-1
 1016 782 l 1,6,-1
 1004 704 l 1,7,-1
 332 704 l 1,8,-1
 214 0 l 1,9,-1
 122 0 l 1,0,-1
EndSplineSet
EndChar

StartChar: G
Encoding: 71 71 42
Width: 1382
GlyphClass: 2
Flags: W
LayerCount: 2
Fore
SplineSet
138 736 m 0,0,1
 196 1082 196 1082 391 1295 c 128,-1,2
 586 1508 586 1508 874 1508 c 0,3,4
 1044 1508 1044 1508 1144 1422 c 128,-1,5
 1244 1336 1244 1336 1278 1222 c 1,6,-1
 1196 1190 l 1,7,8
 1106 1426 1106 1426 860 1426 c 256,9,10
 616 1426 616 1426 450 1236 c 128,-1,11
 284 1046 284 1046 234 736 c 0,12,13
 182 418 182 418 287 231 c 128,-1,14
 392 44 392 44 628 44 c 0,15,16
 738 44 738 44 830 87 c 128,-1,17
 922 130 922 130 983 203 c 128,-1,18
 1044 276 1044 276 1083 361 c 128,-1,19
 1122 446 1122 446 1138 540 c 2,20,-1
 1162 688 l 1,21,-1
 718 688 l 1,22,-1
 730 768 l 1,23,-1
 1268 768 l 1,24,-1
 1140 0 l 1,25,-1
 1066 0 l 1,26,-1
 1108 274 l 1,27,28
 1042 138 1042 138 919 51 c 128,-1,29
 796 -36 796 -36 612 -36 c 0,30,31
 332 -36 332 -36 206 173 c 128,-1,32
 80 382 80 382 138 736 c 0,0,1
EndSplineSet
EndChar

StartChar: H
Encoding: 72 72 43
Width: 1420
GlyphClass: 2
Flags: W
LayerCount: 2
Fore
SplineSet
122 0 m 1,0,-1
 366 1470 l 1,1,-1
 458 1470 l 1,2,-1
 348 800 l 1,3,-1
 1150 800 l 1,4,-1
 1262 1470 l 1,5,-1
 1356 1470 l 1,6,-1
 1112 0 l 1,7,-1
 1018 0 l 1,8,-1
 1138 720 l 1,9,-1
 334 720 l 1,10,-1
 214 0 l 1,11,-1
 122 0 l 1,0,-1
EndSplineSet
EndChar

StartChar: I
Encoding: 73 73 44
Width: 522
GlyphClass: 2
Flags: W
LayerCount: 2
Fore
SplineSet
122 0 m 1,0,-1
 366 1470 l 1,1,-1
 458 1470 l 1,2,-1
 214 0 l 1,3,-1
 122 0 l 1,0,-1
EndSplineSet
EndChar

StartChar: J
Encoding: 74 74 45
Width: 942
GlyphClass: 2
Flags: W
LayerCount: 2
Fore
SplineSet
-26 204 m 1,0,-1
 66 236 l 1,1,2
 88 144 88 144 144 94 c 128,-1,3
 200 44 200 44 280 44 c 0,4,5
 282 44 282 44 284 44 c 0,6,7
 550 50 550 50 612 418 c 2,8,-1
 786 1470 l 1,9,-1
 880 1470 l 1,10,-1
 702 396 l 2,11,12
 666 182 666 182 556 73 c 128,-1,13
 446 -36 446 -36 276 -36 c 0,14,15
 30 -36 30 -36 -26 204 c 1,0,-1
EndSplineSet
EndChar

StartChar: K
Encoding: 75 75 46
Width: 1224
GlyphClass: 2
Flags: W
LayerCount: 2
Fore
SplineSet
122 0 m 1,0,-1
 366 1470 l 1,1,-1
 458 1470 l 1,2,-1
 316 606 l 1,3,-1
 316 606 l 1,4,-1
 1196 1470 l 1,5,-1
 1322 1470 l 1,6,-1
 676 840 l 1,7,-1
 1120 0 l 1,8,-1
 1000 0 l 1,9,-1
 602 768 l 1,10,-1
 292 466 l 1,11,-1
 214 0 l 1,12,-1
 122 0 l 1,0,-1
EndSplineSet
EndChar

StartChar: L
Encoding: 76 76 47
Width: 1036
GlyphClass: 2
Flags: W
LayerCount: 2
Fore
SplineSet
122 0 m 1,0,-1
 366 1470 l 1,1,-1
 458 1470 l 1,2,-1
 228 82 l 1,3,-1
 938 82 l 1,4,-1
 924 0 l 1,5,-1
 122 0 l 1,0,-1
EndSplineSet
EndChar

StartChar: M
Encoding: 77 77 48
Width: 1716
GlyphClass: 2
Flags: W
LayerCount: 2
Fore
SplineSet
122 0 m 1,0,-1
 366 1470 l 1,1,-1
 488 1470 l 1,2,-1
 722 582 l 2,3,4
 736 518 736 518 762 406 c 128,-1,5
 788 294 788 294 802 242 c 1,6,-1
 810 242 l 1,7,8
 836 288 836 288 900 402 c 128,-1,9
 964 516 964 516 1000 582 c 2,10,-1
 1528 1470 l 1,11,-1
 1654 1470 l 1,12,-1
 1410 0 l 1,13,-1
 1316 0 l 1,14,-1
 1474 956 l 2,15,16
 1496 1086 1496 1086 1552 1348 c 1,17,-1
 1546 1348 l 1,18,-1
 830 126 l 1,19,-1
 744 126 l 1,20,-1
 430 1350 l 1,21,-1
 426 1350 l 1,22,23
 402 1130 402 1130 372 956 c 2,24,-1
 214 0 l 1,25,-1
 122 0 l 1,0,-1
EndSplineSet
EndChar

StartChar: N
Encoding: 78 78 49
Width: 1434
GlyphClass: 2
Flags: W
LayerCount: 2
Fore
SplineSet
122 0 m 1,0,-1
 366 1470 l 1,1,-1
 476 1470 l 1,2,-1
 938 418 l 1,3,-1
 1062 132 l 1,4,-1
 1070 132 l 1,5,6
 1084 300 1084 300 1118 506 c 2,7,-1
 1278 1470 l 1,8,-1
 1372 1470 l 1,9,-1
 1128 0 l 1,10,-1
 1016 0 l 1,11,-1
 430 1338 l 1,12,-1
 424 1338 l 1,13,14
 404 1148 404 1148 370 940 c 2,15,-1
 214 0 l 1,16,-1
 122 0 l 1,0,-1
EndSplineSet
EndChar

StartChar: O
Encoding: 79 79 50
Width: 1364
GlyphClass: 2
Flags: W
LayerCount: 2
Fore
SplineSet
138 736 m 256,0,1
 196 1084 196 1084 386 1296 c 128,-1,2
 576 1508 576 1508 842 1508 c 256,3,4
 1106 1508 1106 1508 1224 1296 c 128,-1,5
 1342 1084 1342 1084 1284 734 c 0,6,7
 1226 386 1226 386 1037 175 c 128,-1,8
 848 -36 848 -36 586 -36 c 0,9,10
 320 -36 320 -36 200 176 c 128,-1,11
 80 388 80 388 138 736 c 256,0,1
234 736 m 0,12,13
 182 426 182 426 278 235 c 128,-1,14
 374 44 374 44 598 44 c 0,15,16
 820 44 820 44 979 232 c 128,-1,17
 1138 420 1138 420 1190 734 c 0,18,19
 1242 1050 1242 1050 1145 1238 c 128,-1,20
 1048 1426 1048 1426 828 1426 c 256,21,22
 608 1426 608 1426 447 1239 c 128,-1,23
 286 1052 286 1052 234 736 c 0,12,13
EndSplineSet
Substitution2: "Single Substitution lookup 12 subtable" ordmasculine
EndChar

StartChar: P
Encoding: 80 80 51
Width: 1272
GlyphClass: 2
Flags: W
LayerCount: 2
Fore
SplineSet
122 0 m 1,0,-1
 366 1470 l 1,1,-1
 900 1470 l 2,2,3
 1098 1470 1098 1470 1198 1357 c 128,-1,4
 1298 1244 1298 1244 1268 1054 c 0,5,6
 1236 860 1236 860 1094 748 c 128,-1,7
 952 636 952 636 760 636 c 2,8,-1
 320 636 l 1,9,-1
 214 0 l 1,10,-1
 122 0 l 1,0,-1
332 714 m 1,11,-1
 752 714 l 2,12,13
 920 714 920 714 1032 801 c 128,-1,14
 1144 888 1144 888 1172 1054 c 0,15,16
 1198 1216 1198 1216 1116 1302 c 128,-1,17
 1034 1388 1034 1388 860 1388 c 2,18,-1
 444 1388 l 1,19,-1
 332 714 l 1,11,-1
EndSplineSet
EndChar

StartChar: Q
Encoding: 81 81 52
Width: 1362
GlyphClass: 2
Flags: W
LayerCount: 2
Fore
SplineSet
136 734 m 0,0,1
 194 1084 194 1084 384 1296 c 128,-1,2
 574 1508 574 1508 842 1508 c 0,3,4
 1104 1508 1104 1508 1222 1295 c 128,-1,5
 1340 1082 1340 1082 1284 734 c 256,6,7
 1226 386 1226 386 1038 176 c 0,8,9
 1024 158 1024 158 1006 142 c 1,10,-1
 1152 -46 l 1,11,-1
 1080 -102 l 1,12,-1
 938 82 l 1,13,14
 784 -36 784 -36 586 -36 c 0,15,16
 320 -36 320 -36 199 175 c 128,-1,17
 78 386 78 386 136 734 c 0,0,1
656 444 m 1,18,-1
 728 504 l 1,19,-1
 958 208 l 1,20,21
 968 220 968 220 978 232 c 0,22,23
 1136 420 1136 420 1190 734 c 0,24,25
 1244 1056 1244 1056 1145 1241 c 128,-1,26
 1046 1426 1046 1426 828 1426 c 0,27,28
 608 1426 608 1426 447 1239 c 128,-1,29
 286 1052 286 1052 232 734 c 0,30,31
 180 422 180 422 280 233 c 128,-1,32
 380 44 380 44 598 44 c 0,33,34
 758 44 758 44 888 144 c 1,35,-1
 656 444 l 1,18,-1
EndSplineSet
EndChar

StartChar: R
Encoding: 82 82 53
Width: 1288
GlyphClass: 2
Flags: W
LayerCount: 2
Fore
SplineSet
338 746 m 1,0,-1
 782 746 l 2,1,2
 944 746 944 746 1049 835 c 128,-1,3
 1154 924 1154 924 1178 1070 c 0,4,5
 1202 1210 1202 1210 1125 1299 c 128,-1,6
 1048 1388 1048 1388 870 1388 c 2,7,-1
 444 1388 l 1,8,-1
 338 746 l 1,0,-1
122 0 m 1,9,-1
 366 1470 l 1,10,-1
 910 1470 l 2,11,12
 1116 1470 1116 1470 1208 1357 c 128,-1,13
 1300 1244 1300 1244 1272 1074 c 0,14,15
 1244 908 1244 908 1142 814 c 128,-1,16
 1040 720 1040 720 934 698 c 1,17,18
 1014 658 1014 658 1049 587 c 128,-1,19
 1084 516 1084 516 1090 402 c 0,20,21
 1090 384 1090 384 1094 337 c 128,-1,22
 1098 290 1098 290 1100 277 c 128,-1,23
 1102 264 1102 264 1105 228 c 128,-1,24
 1108 192 1108 192 1111 179 c 128,-1,25
 1114 166 1114 166 1118 137 c 128,-1,26
 1122 108 1122 108 1127 91 c 128,-1,27
 1132 74 1132 74 1140 49 c 128,-1,28
 1148 24 1148 24 1158 0 c 1,29,-1
 1052 0 l 1,30,31
 1032 58 1032 58 1020 125 c 128,-1,32
 1008 192 1008 192 1004 235 c 128,-1,33
 1000 278 1000 278 992 396 c 0,34,35
 986 448 986 448 977 490 c 128,-1,36
 968 532 968 532 943 575 c 128,-1,37
 918 618 918 618 871 641 c 128,-1,38
 824 664 824 664 756 664 c 2,39,-1
 324 664 l 1,40,-1
 214 0 l 1,41,-1
 122 0 l 1,9,-1
EndSplineSet
EndChar

StartChar: S
Encoding: 83 83 54
Width: 1188
GlyphClass: 2
Flags: W
LayerCount: 2
Fore
SplineSet
42 244 m 1,0,-1
 138 280 l 1,1,2
 184 174 184 174 283 109 c 128,-1,3
 382 44 382 44 522 44 c 0,4,5
 694 44 694 44 817 131 c 128,-1,6
 940 218 940 218 966 372 c 0,7,8
 978 444 978 444 957 500 c 128,-1,9
 936 556 936 556 876 598 c 128,-1,10
 816 640 816 640 767 661 c 128,-1,11
 718 682 718 682 626 718 c 0,12,13
 540 748 540 748 495 765 c 128,-1,14
 450 782 450 782 384 821 c 128,-1,15
 318 860 318 860 286 899 c 128,-1,16
 254 938 254 938 235 1000 c 128,-1,17
 216 1062 216 1062 228 1138 c 0,18,19
 256 1308 256 1308 398 1408 c 128,-1,20
 540 1508 540 1508 756 1508 c 0,21,22
 908 1508 908 1508 1015 1436 c 128,-1,23
 1122 1364 1122 1364 1160 1260 c 1,24,-1
 1074 1228 l 1,25,26
 982 1426 982 1426 736 1426 c 0,27,28
 564 1426 564 1426 454 1347 c 128,-1,29
 344 1268 344 1268 322 1138 c 0,30,31
 312 1078 312 1078 330 1028 c 128,-1,32
 348 978 348 978 376 946 c 128,-1,33
 404 914 404 914 465 882 c 128,-1,34
 526 850 526 850 568 833 c 128,-1,35
 610 816 610 816 686 790 c 0,36,37
 766 760 766 760 812 741 c 128,-1,38
 858 722 858 722 918 685 c 128,-1,39
 978 648 978 648 1009 608 c 128,-1,40
 1040 568 1040 568 1057 508 c 128,-1,41
 1074 448 1074 448 1062 376 c 0,42,43
 1030 182 1030 182 882 73 c 128,-1,44
 734 -36 734 -36 504 -36 c 0,45,46
 162 -36 162 -36 42 244 c 1,0,-1
EndSplineSet
EndChar

StartChar: T
Encoding: 84 84 55
Width: 1064
GlyphClass: 2
Flags: W
LayerCount: 2
Fore
SplineSet
168 1388 m 1,0,-1
 182 1470 l 1,1,-1
 1186 1470 l 1,2,-1
 1172 1388 l 1,3,-1
 720 1388 l 1,4,-1
 490 0 l 1,5,-1
 396 0 l 1,6,-1
 626 1388 l 1,7,-1
 168 1388 l 1,0,-1
EndSplineSet
EndChar

StartChar: U
Encoding: 85 85 56
Width: 1418
GlyphClass: 2
Flags: W
LayerCount: 2
Fore
SplineSet
206 512 m 2,0,-1
 364 1470 l 1,1,-1
 456 1470 l 1,2,-1
 298 520 l 2,3,4
 260 288 260 288 348 166 c 128,-1,5
 436 44 436 44 622 44 c 0,6,7
 812 44 812 44 940 168 c 128,-1,8
 1068 292 1068 292 1106 520 c 2,9,-1
 1264 1470 l 1,10,-1
 1358 1470 l 1,11,-1
 1200 512 l 2,12,13
 1156 250 1156 250 1004 107 c 128,-1,14
 852 -36 852 -36 608 -36 c 0,15,16
 372 -36 372 -36 267 105 c 128,-1,17
 162 246 162 246 206 512 c 2,0,-1
EndSplineSet
EndChar

StartChar: V
Encoding: 86 86 57
Width: 1114
GlyphClass: 2
Flags: W
LayerCount: 2
Fore
SplineSet
144 1470 m 1,0,-1
 250 1470 l 1,1,-1
 426 400 l 2,2,3
 434 354 434 354 450 254 c 128,-1,4
 466 154 466 154 472 100 c 1,5,-1
 478 100 l 1,6,7
 506 156 506 156 556 255 c 128,-1,8
 606 354 606 354 628 400 c 2,9,-1
 1168 1470 l 1,10,-1
 1270 1470 l 1,11,-1
 516 0 l 1,12,-1
 404 0 l 1,13,-1
 144 1470 l 1,0,-1
EndSplineSet
EndChar

StartChar: W
Encoding: 87 87 58
Width: 1650
GlyphClass: 2
Flags: W
LayerCount: 2
Fore
SplineSet
170 1470 m 1,0,-1
 274 1470 l 1,1,-1
 342 402 l 2,2,3
 346 308 346 308 352 108 c 1,4,-1
 360 108 l 1,5,6
 380 160 380 160 418 257 c 128,-1,7
 456 354 456 354 476 402 c 2,8,-1
 922 1470 l 1,9,-1
 1030 1470 l 1,10,-1
 1122 402 l 2,11,12
 1126 350 1126 350 1132 251 c 128,-1,13
 1138 152 1138 152 1142 108 c 1,14,-1
 1148 108 l 1,15,16
 1214 292 1214 292 1256 402 c 2,17,-1
 1678 1470 l 1,18,-1
 1782 1470 l 1,19,-1
 1184 0 l 1,20,-1
 1070 0 l 1,21,-1
 980 1050 l 2,22,23
 964 1234 964 1234 960 1356 c 1,24,-1
 954 1356 l 1,25,26
 914 1248 914 1248 830 1050 c 2,27,-1
 394 0 l 1,28,-1
 282 0 l 1,29,-1
 170 1470 l 1,0,-1
EndSplineSet
EndChar

StartChar: X
Encoding: 88 88 59
Width: 1058
GlyphClass: 2
Flags: W
LayerCount: 2
Fore
SplineSet
-102 0 m 1,0,-1
 500 756 l 1,1,-1
 168 1470 l 1,2,-1
 284 1470 l 1,3,-1
 476 1044 l 2,4,5
 484 1028 484 1028 568 828 c 1,6,-1
 576 828 l 1,7,8
 698 988 698 988 744 1044 c 2,9,-1
 1076 1470 l 1,10,-1
 1194 1470 l 1,11,-1
 624 756 l 1,12,-1
 974 0 l 1,13,-1
 862 0 l 1,14,-1
 654 454 l 2,15,16
 634 498 634 498 597 581 c 128,-1,17
 560 664 560 664 552 680 c 1,18,-1
 544 680 l 1,19,20
 508 634 508 634 372 454 c 2,21,-1
 14 0 l 1,22,-1
 -102 0 l 1,0,-1
EndSplineSet
EndChar

StartChar: Y
Encoding: 89 89 60
Width: 1114
GlyphClass: 2
Flags: W
LayerCount: 2
Fore
SplineSet
144 1470 m 1,0,-1
 258 1470 l 1,1,-1
 484 928 l 2,2,3
 496 898 496 898 529 816 c 128,-1,4
 562 734 562 734 576 696 c 1,5,-1
 580 696 l 1,6,7
 648 784 648 784 754 928 c 2,8,-1
 1158 1470 l 1,9,-1
 1270 1470 l 1,10,-1
 612 606 l 1,11,-1
 512 0 l 1,12,-1
 420 0 l 1,13,-1
 520 606 l 1,14,-1
 144 1470 l 1,0,-1
EndSplineSet
EndChar

StartChar: Z
Encoding: 90 90 61
Width: 1198
GlyphClass: 2
Flags: W
LayerCount: 2
Fore
SplineSet
24 74 m 1,0,-1
 1098 1388 l 1,1,-1
 306 1388 l 1,2,-1
 320 1470 l 1,3,-1
 1228 1470 l 1,4,-1
 1214 1396 l 1,5,-1
 134 82 l 1,6,-1
 1016 82 l 1,7,-1
 1004 0 l 1,8,-1
 12 0 l 1,9,-1
 24 74 l 1,0,-1
EndSplineSet
EndChar

StartChar: bracketleft
Encoding: 91 91 62
Width: 868
GlyphClass: 2
Flags: W
LayerCount: 2
Fore
SplineSet
178 -268 m 1,0,-1
 500 1674 l 1,1,-1
 856 1674 l 1,2,-1
 844 1596 l 1,3,-1
 580 1596 l 1,4,-1
 284 -192 l 1,5,-1
 548 -192 l 1,6,-1
 536 -268 l 1,7,-1
 178 -268 l 1,0,-1
EndSplineSet
EndChar

StartChar: backslash
Encoding: 92 92 63
Width: 598
GlyphClass: 2
Flags: W
LayerCount: 2
Fore
SplineSet
152 1580 m 1,0,-1
 244 1580 l 1,1,-1
 502 -128 l 1,2,-1
 410 -128 l 1,3,-1
 152 1580 l 1,0,-1
EndSplineSet
EndChar

StartChar: bracketright
Encoding: 93 93 64
Width: 868
GlyphClass: 2
Flags: W
LayerCount: 2
Fore
SplineSet
70 -192 m 1,0,-1
 336 -192 l 1,1,-1
 632 1596 l 1,2,-1
 366 1596 l 1,3,-1
 380 1674 l 1,4,-1
 736 1674 l 1,5,-1
 414 -268 l 1,6,-1
 58 -268 l 1,7,-1
 70 -192 l 1,0,-1
EndSplineSet
EndChar

StartChar: asciicircum
Encoding: 94 94 65
Width: 954
GlyphClass: 2
Flags: W
LayerCount: 2
Fore
SplineSet
124 990 m 1,0,-1
 610 1632 l 1,1,-1
 700 1632 l 1,2,-1
 974 990 l 1,3,-1
 876 990 l 1,4,-1
 642 1552 l 1,5,-1
 640 1552 l 1,6,-1
 552 1436 l 1,7,-1
 222 990 l 1,8,-1
 124 990 l 1,0,-1
EndSplineSet
EndChar

StartChar: underscore
Encoding: 95 95 66
Width: 840
GlyphClass: 2
Flags: W
LayerCount: 2
Fore
SplineSet
-92 -80 m 1,0,-1
 722 -80 l 1,1,-1
 710 -160 l 1,2,-1
 -106 -160 l 1,3,-1
 -92 -80 l 1,0,-1
EndSplineSet
EndChar

StartChar: grave
Encoding: 96 96 67
Width: 518
GlyphClass: 2
Flags: W
LayerCount: 2
Fore
SplineSet
396 1106 m 1,0,-1
 258 1664 l 1,1,-1
 402 1664 l 1,2,-1
 476 1106 l 1,3,-1
 396 1106 l 1,0,-1
EndSplineSet
EndChar

StartChar: a
Encoding: 97 97 68
Width: 1050
GlyphClass: 2
Flags: W
LayerCount: 2
Fore
SplineSet
124 248 m 0,0,1
 110 164 110 164 168 102 c 128,-1,2
 226 40 226 40 350 40 c 0,3,4
 502 40 502 40 629 143 c 128,-1,5
 756 246 756 246 784 408 c 2,6,-1
 814 596 l 1,7,8
 714 560 714 560 498 526 c 0,9,10
 160 470 160 470 124 248 c 0,0,1
36 244 m 0,11,12
 60 386 60 386 172 474 c 128,-1,13
 284 562 284 562 508 597 c 128,-1,14
 732 632 732 632 828 670 c 1,15,-1
 836 726 l 2,16,17
 856 848 856 848 791 927 c 128,-1,18
 726 1006 726 1006 584 1006 c 0,19,20
 490 1006 490 1006 399 960 c 128,-1,21
 308 914 308 914 234 834 c 1,22,-1
 182 880 l 1,23,24
 260 968 260 968 369 1024 c 128,-1,25
 478 1080 478 1080 594 1080 c 0,26,27
 792 1080 792 1080 870 976 c 128,-1,28
 948 872 948 872 918 702 c 2,29,-1
 802 0 l 1,30,-1
 718 0 l 1,31,-1
 752 208 l 1,32,33
 702 110 702 110 586 37 c 128,-1,34
 470 -36 470 -36 330 -36 c 0,35,36
 172 -36 172 -36 94 43 c 128,-1,37
 16 122 16 122 36 244 c 0,11,12
EndSplineSet
Substitution2: "Single Substitution lookup 12 subtable" ordfeminine
EndChar

StartChar: b
Encoding: 98 98 69
Width: 1100
GlyphClass: 2
Flags: W
LayerCount: 2
Fore
SplineSet
82 0 m 1,0,-1
 336 1532 l 1,1,-1
 424 1532 l 1,2,-1
 304 802 l 1,3,4
 346 906 346 906 449 993 c 128,-1,5
 552 1080 552 1080 680 1080 c 0,6,7
 864 1080 864 1080 952 930 c 128,-1,8
 1040 780 1040 780 998 524 c 0,9,10
 952 246 952 246 806 105 c 128,-1,11
 660 -36 660 -36 494 -36 c 0,12,13
 376 -36 376 -36 302 40 c 128,-1,14
 228 116 228 116 208 228 c 1,15,-1
 170 0 l 1,16,-1
 82 0 l 1,0,-1
254 524 m 0,17,18
 216 300 216 300 290 170 c 128,-1,19
 364 40 364 40 498 40 c 0,20,21
 644 40 644 40 759 171 c 128,-1,22
 874 302 874 302 912 524 c 0,23,24
 948 744 948 744 877 874 c 128,-1,25
 806 1004 806 1004 660 1004 c 0,26,27
 528 1004 528 1004 409 875 c 128,-1,28
 290 746 290 746 254 524 c 0,17,18
EndSplineSet
EndChar

StartChar: c
Encoding: 99 99 70
Width: 948
GlyphClass: 2
Flags: W
LayerCount: 2
Fore
SplineSet
90 524 m 0,0,1
 130 768 130 768 270 924 c 128,-1,2
 410 1080 410 1080 612 1080 c 0,3,4
 736 1080 736 1080 814 1010 c 128,-1,5
 892 940 892 940 912 836 c 1,6,-1
 830 812 l 1,7,8
 812 896 812 896 750 950 c 128,-1,9
 688 1004 688 1004 600 1004 c 0,10,11
 448 1004 448 1004 330 869 c 128,-1,12
 212 734 212 734 178 524 c 0,13,14
 142 308 142 308 217 174 c 128,-1,15
 292 40 292 40 440 40 c 0,16,17
 536 40 536 40 624 101 c 128,-1,18
 712 162 712 162 764 244 c 1,19,-1
 836 216 l 1,20,21
 774 110 774 110 664 37 c 128,-1,22
 554 -36 554 -36 428 -36 c 0,23,24
 236 -36 236 -36 142 117 c 128,-1,25
 48 270 48 270 90 524 c 0,0,1
EndSplineSet
EndChar

StartChar: d
Encoding: 100 100 71
Width: 1100
GlyphClass: 2
Flags: W
LayerCount: 2
Fore
SplineSet
90 524 m 0,0,1
 132 782 132 782 271 931 c 128,-1,2
 410 1080 410 1080 594 1080 c 0,3,4
 716 1080 716 1080 790 1000 c 128,-1,5
 864 920 864 920 878 806 c 1,6,-1
 998 1532 l 1,7,-1
 1084 1532 l 1,8,-1
 830 0 l 1,9,-1
 746 0 l 1,10,-1
 784 230 l 1,11,12
 728 116 728 116 628 40 c 128,-1,13
 528 -36 528 -36 406 -36 c 0,14,15
 240 -36 240 -36 142 104 c 128,-1,16
 44 244 44 244 90 524 c 0,0,1
178 524 m 0,17,18
 142 306 142 306 210 173 c 128,-1,19
 278 40 278 40 428 40 c 0,20,21
 564 40 564 40 680 170 c 128,-1,22
 796 300 796 300 834 524 c 0,23,24
 870 746 870 746 795 875 c 128,-1,25
 720 1004 720 1004 586 1004 c 0,26,27
 440 1004 440 1004 327 874 c 128,-1,28
 214 744 214 744 178 524 c 0,17,18
EndSplineSet
EndChar

StartChar: e
Encoding: 101 101 72
Width: 1050
GlyphClass: 2
Flags: W
LayerCount: 2
Fore
SplineSet
90 530 m 0,0,1
 130 772 130 772 274 926 c 128,-1,2
 418 1080 418 1080 616 1080 c 0,3,4
 816 1080 816 1080 905 928 c 128,-1,5
 994 776 994 776 958 556 c 0,6,7
 956 544 956 544 952 526 c 128,-1,8
 948 508 948 508 946 496 c 1,9,-1
 172 496 l 1,10,11
 142 310 142 310 214 175 c 128,-1,12
 286 40 286 40 448 40 c 0,13,14
 552 40 552 40 648 96 c 128,-1,15
 744 152 744 152 804 238 c 1,16,-1
 874 210 l 1,17,18
 804 100 804 100 692 32 c 128,-1,19
 580 -36 580 -36 436 -36 c 0,20,21
 234 -36 234 -36 141 122 c 128,-1,22
 48 280 48 280 90 530 c 0,0,1
186 566 m 1,23,-1
 870 566 l 1,24,25
 900 746 900 746 828 875 c 128,-1,26
 756 1004 756 1004 602 1004 c 0,27,28
 444 1004 444 1004 331 872 c 128,-1,29
 218 740 218 740 186 566 c 1,23,-1
EndSplineSet
EndChar

StartChar: f
Encoding: 102 102 73
Width: 620
GlyphClass: 2
Flags: W
LayerCount: 2
Fore
SplineSet
116 966 m 1,0,-1
 128 1046 l 1,1,-1
 312 1046 l 1,2,-1
 344 1240 l 2,3,4
 368 1390 368 1390 453 1461 c 128,-1,5
 538 1532 538 1532 658 1532 c 2,6,-1
 758 1532 l 1,7,-1
 746 1454 l 1,8,-1
 652 1454 l 2,9,10
 468 1454 468 1454 430 1226 c 2,11,-1
 400 1046 l 1,12,-1
 652 1046 l 1,13,-1
 638 966 l 1,14,-1
 388 966 l 1,15,-1
 228 0 l 1,16,-1
 140 0 l 1,17,-1
 300 966 l 1,18,-1
 116 966 l 1,0,-1
EndSplineSet
EndChar

StartChar: g
Encoding: 103 103 74
Width: 1082
GlyphClass: 2
Flags: W
LayerCount: 2
Fore
SplineSet
180 542 m 0,0,1
 146 336 146 336 214 207 c 128,-1,2
 282 78 282 78 422 78 c 0,3,4
 570 78 570 78 677 202 c 128,-1,5
 784 326 784 326 820 544 c 0,6,7
 854 750 854 750 786 877 c 128,-1,8
 718 1004 718 1004 580 1004 c 0,9,10
 430 1004 430 1004 322 874 c 128,-1,11
 214 744 214 744 180 542 c 0,0,1
92 542 m 0,12,13
 132 782 132 782 267 931 c 128,-1,14
 402 1080 402 1080 586 1080 c 0,15,16
 714 1080 714 1080 780 1003 c 128,-1,17
 846 926 846 926 866 824 c 1,18,-1
 902 1046 l 1,19,-1
 988 1046 l 1,20,-1
 832 94 l 2,21,22
 782 -202 782 -202 665 -345 c 128,-1,23
 548 -488 548 -488 334 -488 c 0,24,25
 118 -488 118 -488 18 -310 c 1,26,-1
 88 -268 l 1,27,28
 188 -412 188 -412 350 -412 c 0,29,30
 662 -412 662 -412 740 64 c 2,31,-1
 770 250 l 1,32,33
 638 0 638 0 408 0 c 0,34,35
 224 0 224 0 138 152 c 128,-1,36
 52 304 52 304 92 542 c 0,12,13
EndSplineSet
EndChar

StartChar: h
Encoding: 104 104 75
Width: 1082
GlyphClass: 2
Flags: W
LayerCount: 2
Fore
SplineSet
82 0 m 1,0,-1
 336 1532 l 1,1,-1
 424 1532 l 1,2,-1
 310 842 l 1,3,-1
 312 842 l 1,4,5
 362 936 362 936 467 1008 c 128,-1,6
 572 1080 572 1080 694 1080 c 0,7,8
 848 1080 848 1080 912 978 c 128,-1,9
 976 876 976 876 944 676 c 2,10,-1
 832 0 l 1,11,-1
 748 0 l 1,12,-1
 858 658 l 2,13,14
 916 1004 916 1004 666 1004 c 0,15,16
 538 1004 538 1004 419 894 c 128,-1,17
 300 784 300 784 276 636 c 2,18,-1
 170 0 l 1,19,-1
 82 0 l 1,0,-1
EndSplineSet
Substitution2: "'sups' Superscript lookup 5 subtable" uni02B0
Substitution2: "'aalt' Access All Alternates lookup 0 subtable" uni02B0
EndChar

StartChar: i
Encoding: 105 105 76
Width: 508
GlyphClass: 2
Flags: W
LayerCount: 2
Fore
SplineSet
306 1324 m 1,0,-1
 334 1492 l 1,1,-1
 480 1492 l 1,2,-1
 452 1324 l 1,3,-1
 306 1324 l 1,0,-1
120 0 m 1,4,-1
 294 1046 l 1,5,-1
 378 1046 l 1,6,-1
 204 0 l 1,7,-1
 120 0 l 1,4,-1
EndSplineSet
EndChar

StartChar: j
Encoding: 106 106 77
Width: 524
GlyphClass: 2
Flags: W
LayerCount: 2
Fore
SplineSet
320 1324 m 1,0,-1
 348 1492 l 1,1,-1
 496 1492 l 1,2,-1
 468 1324 l 1,3,-1
 320 1324 l 1,0,-1
-170 -388 m 1,4,-1
 -120 -388 l 2,5,6
 70 -388 70 -388 114 -122 c 2,7,-1
 308 1046 l 1,8,-1
 392 1046 l 1,9,-1
 198 -130 l 2,10,11
 170 -296 170 -296 90 -381 c 128,-1,12
 10 -466 10 -466 -116 -466 c 2,13,-1
 -182 -466 l 1,14,-1
 -170 -388 l 1,4,-1
EndSplineSet
Substitution2: "'sups' Superscript lookup 5 subtable" uni02B2
Substitution2: "'aalt' Access All Alternates lookup 0 subtable" uni02B2
EndChar

StartChar: k
Encoding: 107 107 78
Width: 936
GlyphClass: 2
Flags: W
LayerCount: 2
Fore
SplineSet
84 0 m 1,0,-1
 338 1532 l 1,1,-1
 428 1532 l 1,2,-1
 248 444 l 1,3,-1
 854 1046 l 1,4,-1
 970 1046 l 1,5,-1
 552 632 l 1,6,-1
 844 0 l 1,7,-1
 738 0 l 1,8,-1
 480 564 l 1,9,-1
 226 316 l 1,10,-1
 174 0 l 1,11,-1
 84 0 l 1,0,-1
EndSplineSet
EndChar

StartChar: l
Encoding: 108 108 79
Width: 454
GlyphClass: 2
Flags: W
LayerCount: 2
Fore
SplineSet
90 0 m 1,0,-1
 344 1532 l 1,1,-1
 432 1532 l 1,2,-1
 178 0 l 1,3,-1
 90 0 l 1,0,-1
EndSplineSet
Substitution2: "'sups' Superscript lookup 5 subtable" uni02E1
Substitution2: "'aalt' Access All Alternates lookup 0 subtable" uni02E1
EndChar

StartChar: m
Encoding: 109 109 80
Width: 1598
GlyphClass: 2
Flags: W
LayerCount: 2
Fore
SplineSet
76 0 m 1,0,-1
 248 1046 l 1,1,-1
 334 1046 l 1,2,-1
 302 858 l 1,3,-1
 304 858 l 1,4,5
 346 944 346 944 434 1012 c 128,-1,6
 522 1080 522 1080 646 1080 c 0,7,8
 860 1080 860 1080 866 816 c 1,9,10
 874 840 874 840 901 879 c 128,-1,11
 928 918 928 918 974 966 c 128,-1,12
 1020 1014 1020 1014 1094 1047 c 128,-1,13
 1168 1080 1168 1080 1252 1080 c 0,14,15
 1396 1080 1396 1080 1446 980 c 128,-1,16
 1496 880 1496 880 1464 678 c 2,17,-1
 1352 0 l 1,18,-1
 1262 0 l 1,19,-1
 1372 664 l 2,20,21
 1400 832 1400 832 1371 918 c 128,-1,22
 1342 1004 1342 1004 1218 1004 c 256,23,24
 1094 1004 1094 1004 991 899 c 128,-1,25
 888 794 888 794 862 626 c 2,26,-1
 758 0 l 1,27,-1
 670 0 l 1,28,-1
 778 664 l 2,29,30
 834 1004 834 1004 618 1004 c 0,31,32
 488 1004 488 1004 391 903 c 128,-1,33
 294 802 294 802 268 640 c 2,34,-1
 162 0 l 1,35,-1
 76 0 l 1,0,-1
EndSplineSet
EndChar

StartChar: n
Encoding: 110 110 81
Width: 1076
GlyphClass: 2
Flags: W
LayerCount: 2
Fore
SplineSet
76 0 m 1,0,-1
 248 1046 l 1,1,-1
 334 1046 l 1,2,-1
 298 830 l 1,3,-1
 300 830 l 1,4,5
 330 914 330 914 440 997 c 128,-1,6
 550 1080 550 1080 686 1080 c 0,7,8
 744 1080 744 1080 793 1063 c 128,-1,9
 842 1046 842 1046 884 1005 c 128,-1,10
 926 964 926 964 941 881 c 128,-1,11
 956 798 956 798 936 676 c 2,12,-1
 824 0 l 1,13,-1
 736 0 l 1,14,-1
 844 658 l 2,15,16
 902 1004 902 1004 656 1004 c 0,17,18
 528 1004 528 1004 410 894 c 128,-1,19
 292 784 292 784 268 636 c 2,20,-1
 162 0 l 1,21,-1
 76 0 l 1,0,-1
EndSplineSet
Substitution2: "'sups' Superscript lookup 5 subtable" uni207F
Substitution2: "'aalt' Access All Alternates lookup 0 subtable" uni207F
EndChar

StartChar: o
Encoding: 111 111 82
Width: 1060
GlyphClass: 2
Flags: W
LayerCount: 2
Fore
SplineSet
178 524 m 0,0,1
 142 310 142 310 216 175 c 128,-1,2
 290 40 290 40 444 40 c 256,3,4
 598 40 598 40 717 176 c 128,-1,5
 836 312 836 312 872 524 c 0,6,7
 908 740 908 740 830 872 c 128,-1,8
 752 1004 752 1004 602 1004 c 0,9,10
 454 1004 454 1004 334 873 c 128,-1,11
 214 742 214 742 178 524 c 0,0,1
90 524 m 0,12,13
 130 766 130 766 271 923 c 128,-1,14
 412 1080 412 1080 616 1080 c 0,15,16
 816 1080 816 1080 908 923 c 128,-1,17
 1000 766 1000 766 960 524 c 0,18,19
 942 416 942 416 898 318 c 128,-1,20
 854 220 854 220 790 140 c 128,-1,21
 726 60 726 60 632 12 c 128,-1,22
 538 -36 538 -36 430 -36 c 0,23,24
 220 -36 220 -36 136 129 c 128,-1,25
 52 294 52 294 90 524 c 0,12,13
EndSplineSet
Substitution2: "Single Substitution lookup 12 subtable" ordmasculine
EndChar

StartChar: p
Encoding: 112 112 83
Width: 1100
GlyphClass: 2
Flags: W
LayerCount: 2
Fore
SplineSet
256 526 m 0,0,1
 220 310 220 310 288 175 c 128,-1,2
 356 40 356 40 500 40 c 0,3,4
 642 40 642 40 758 170 c 128,-1,5
 874 300 874 300 912 524 c 0,6,7
 946 734 946 734 882 869 c 128,-1,8
 818 1004 818 1004 660 1004 c 0,9,10
 522 1004 522 1004 406 868 c 128,-1,11
 290 732 290 732 256 526 c 0,0,1
4 -480 m 1,12,-1
 256 1046 l 1,13,-1
 342 1046 l 1,14,-1
 302 808 l 1,15,16
 362 932 362 932 463 1006 c 128,-1,17
 564 1080 564 1080 680 1080 c 0,18,19
 864 1080 864 1080 952 928 c 128,-1,20
 1040 776 1040 776 998 524 c 0,21,22
 954 254 954 254 811 109 c 128,-1,23
 668 -36 668 -36 494 -36 c 0,24,25
 372 -36 372 -36 301 39 c 128,-1,26
 230 114 230 114 210 232 c 1,27,-1
 92 -480 l 1,28,-1
 4 -480 l 1,12,-1
EndSplineSet
EndChar

StartChar: q
Encoding: 113 113 84
Width: 1098
GlyphClass: 2
Flags: W
LayerCount: 2
Fore
SplineSet
178 524 m 0,0,1
 142 304 142 304 212 172 c 128,-1,2
 282 40 282 40 426 40 c 0,3,4
 572 40 572 40 684 176 c 128,-1,5
 796 312 796 312 832 526 c 0,6,7
 866 736 866 736 796 870 c 128,-1,8
 726 1004 726 1004 586 1004 c 0,9,10
 430 1004 430 1004 321 869 c 128,-1,11
 212 734 212 734 178 524 c 0,0,1
90 524 m 0,12,13
 132 776 132 776 270 928 c 128,-1,14
 408 1080 408 1080 592 1080 c 0,15,16
 704 1080 704 1080 782 1009 c 128,-1,17
 860 938 860 938 880 810 c 1,18,-1
 920 1046 l 1,19,-1
 1004 1046 l 1,20,-1
 752 -480 l 1,21,-1
 664 -480 l 1,22,-1
 782 232 l 1,23,24
 722 114 722 114 625 39 c 128,-1,25
 528 -36 528 -36 408 -36 c 0,26,27
 232 -36 232 -36 139 110 c 128,-1,28
 46 256 46 256 90 524 c 0,12,13
EndSplineSet
EndChar

StartChar: r
Encoding: 114 114 85
Width: 694
GlyphClass: 2
Flags: W
LayerCount: 2
Fore
SplineSet
76 0 m 1,0,-1
 248 1046 l 1,1,-1
 332 1046 l 1,2,-1
 302 864 l 1,3,4
 342 944 342 944 426 1012 c 128,-1,5
 510 1080 510 1080 634 1080 c 0,6,7
 720 1080 720 1080 776 1050 c 1,8,-1
 762 966 l 1,9,10
 698 1000 698 1000 620 1000 c 0,11,12
 484 1000 484 1000 388 892 c 128,-1,13
 292 784 292 784 264 618 c 2,14,-1
 162 0 l 1,15,-1
 76 0 l 1,0,-1
EndSplineSet
Substitution2: "'sups' Superscript lookup 5 subtable" uni02B3
Substitution2: "'aalt' Access All Alternates lookup 0 subtable" uni02B3
EndChar

StartChar: s
Encoding: 115 115 86
Width: 918
GlyphClass: 2
Flags: W
LayerCount: 2
Fore
SplineSet
18 184 m 1,0,-1
 92 224 l 1,1,2
 172 40 172 40 378 40 c 0,3,4
 506 40 506 40 594 96 c 128,-1,5
 682 152 682 152 698 246 c 0,6,7
 704 284 704 284 699 312 c 128,-1,8
 694 340 694 340 669 365 c 128,-1,9
 644 390 644 390 627 404 c 128,-1,10
 610 418 610 418 562 438 c 128,-1,11
 514 458 514 458 493 467 c 128,-1,12
 472 476 472 476 410 496 c 0,13,14
 348 518 348 518 304 538 c 128,-1,15
 260 558 260 558 215 594 c 128,-1,16
 170 630 170 630 152 682 c 128,-1,17
 134 734 134 734 146 802 c 0,18,19
 168 930 168 930 279 1005 c 128,-1,20
 390 1080 390 1080 550 1080 c 0,21,22
 666 1080 666 1080 749 1019 c 128,-1,23
 832 958 832 958 862 870 c 1,24,-1
 796 830 l 1,25,26
 764 906 764 906 697 955 c 128,-1,27
 630 1004 630 1004 536 1004 c 0,28,29
 410 1004 410 1004 329 947 c 128,-1,30
 248 890 248 890 234 800 c 0,31,32
 218 702 218 702 282 647 c 128,-1,33
 346 592 346 592 472 554 c 0,34,35
 544 532 544 532 593 512 c 128,-1,36
 642 492 642 492 696 456 c 128,-1,37
 750 420 750 420 772 367 c 128,-1,38
 794 314 794 314 782 246 c 0,39,40
 762 126 762 126 652 45 c 128,-1,41
 542 -36 542 -36 364 -36 c 0,42,43
 104 -36 104 -36 18 184 c 1,0,-1
EndSplineSet
Substitution2: "'hist' Historical Forms lookup 11 subtable" longs
Substitution2: "'sups' Superscript lookup 5 subtable" uni02E2
AlternateSubs2: "'aalt' Access All Alternates lookup 1 subtable" uni02E2 longs
EndChar

StartChar: t
Encoding: 116 116 87
Width: 670
GlyphClass: 2
Flags: W
LayerCount: 2
Fore
SplineSet
116 966 m 1,0,-1
 128 1046 l 1,1,-1
 314 1046 l 1,2,-1
 372 1398 l 1,3,-1
 464 1398 l 1,4,-1
 404 1046 l 1,5,-1
 672 1046 l 1,6,-1
 660 966 l 1,7,-1
 392 966 l 1,8,-1
 280 288 l 2,9,10
 262 176 262 176 293 128 c 128,-1,11
 324 80 324 80 410 80 c 0,12,13
 414 80 414 80 418 80 c 2,14,-1
 512 80 l 1,15,-1
 500 0 l 1,16,-1
 396 0 l 2,17,18
 392 0 392 0 388 0 c 0,19,20
 272 0 272 0 218 66 c 128,-1,21
 164 132 164 132 186 274 c 2,22,-1
 302 966 l 1,23,-1
 116 966 l 1,0,-1
EndSplineSet
EndChar

StartChar: u
Encoding: 117 117 88
Width: 1068
GlyphClass: 2
Flags: W
LayerCount: 2
Fore
SplineSet
124 358 m 2,0,-1
 238 1046 l 1,1,-1
 324 1046 l 1,2,-1
 216 390 l 2,3,4
 158 40 158 40 410 40 c 0,5,6
 566 40 566 40 667 160 c 128,-1,7
 768 280 768 280 794 444 c 2,8,-1
 894 1046 l 1,9,-1
 978 1046 l 1,10,-1
 806 0 l 1,11,-1
 722 0 l 1,12,-1
 756 206 l 1,13,14
 724 120 724 120 626 42 c 128,-1,15
 528 -36 528 -36 380 -36 c 0,16,17
 228 -36 228 -36 161 71 c 128,-1,18
 94 178 94 178 124 358 c 2,0,-1
EndSplineSet
EndChar

StartChar: v
Encoding: 118 118 89
Width: 914
GlyphClass: 2
Flags: W
LayerCount: 2
Fore
SplineSet
102 1046 m 1,0,-1
 200 1046 l 1,1,-1
 338 320 l 2,2,3
 346 284 346 284 358 201 c 128,-1,4
 370 118 370 118 378 80 c 1,5,-1
 382 80 l 1,6,7
 446 208 446 208 502 320 c 2,8,-1
 874 1046 l 1,9,-1
 974 1046 l 1,10,-1
 420 0 l 1,11,-1
 310 0 l 1,12,-1
 102 1046 l 1,0,-1
EndSplineSet
EndChar

StartChar: w
Encoding: 119 119 90
Width: 1328
GlyphClass: 2
Flags: W
LayerCount: 2
Fore
SplineSet
100 1046 m 1,0,-1
 198 1046 l 1,1,-1
 266 310 l 2,2,3
 268 282 268 282 273 204 c 128,-1,4
 278 126 278 126 280 84 c 1,5,-1
 286 84 l 1,6,7
 302 120 302 120 333 197 c 128,-1,8
 364 274 364 274 378 310 c 2,9,-1
 690 1046 l 1,10,-1
 800 1046 l 1,11,-1
 870 306 l 2,12,13
 872 282 872 282 880 206 c 128,-1,14
 888 130 888 130 890 86 c 1,15,-1
 894 86 l 1,16,17
 912 132 912 132 944 212 c 128,-1,18
 976 292 976 292 982 310 c 2,19,-1
 1292 1046 l 1,20,-1
 1392 1046 l 1,21,-1
 934 0 l 1,22,-1
 820 0 l 1,23,-1
 750 714 l 2,24,25
 736 850 736 850 730 948 c 1,26,-1
 726 948 l 1,27,28
 716 920 716 920 696 872 c 128,-1,29
 676 824 676 824 661 785 c 128,-1,30
 646 746 646 746 632 714 c 2,31,-1
 326 0 l 1,32,-1
 212 0 l 1,33,-1
 100 1046 l 1,0,-1
EndSplineSet
Substitution2: "'sups' Superscript lookup 5 subtable" uni02B7
Substitution2: "'aalt' Access All Alternates lookup 0 subtable" uni02B7
EndChar

StartChar: x
Encoding: 120 120 91
Width: 846
GlyphClass: 2
Flags: W
LayerCount: 2
Fore
SplineSet
-84 0 m 1,0,-1
 366 544 l 1,1,-1
 110 1046 l 1,2,-1
 214 1046 l 1,3,-1
 364 742 l 2,4,5
 380 714 380 714 401 670 c 128,-1,6
 422 626 422 626 428 612 c 1,7,-1
 432 612 l 1,8,9
 448 634 448 634 485 678 c 128,-1,10
 522 722 522 722 538 742 c 2,11,-1
 786 1046 l 1,12,-1
 892 1046 l 1,13,-1
 474 544 l 1,14,-1
 742 0 l 1,15,-1
 636 0 l 1,16,-1
 470 346 l 2,17,18
 452 380 452 380 410 476 c 1,19,-1
 406 476 l 1,20,21
 388 452 388 452 354 411 c 128,-1,22
 320 370 320 370 302 346 c 2,23,-1
 22 0 l 1,24,-1
 -84 0 l 1,0,-1
EndSplineSet
Substitution2: "'sups' Superscript lookup 5 subtable" uni02E3
Substitution2: "'aalt' Access All Alternates lookup 0 subtable" uni02E3
EndChar

StartChar: y
Encoding: 121 121 92
Width: 900
GlyphClass: 2
Flags: W
LayerCount: 2
Fore
SplineSet
100 1046 m 1,0,-1
 202 1046 l 1,1,-1
 330 334 l 2,2,3
 338 286 338 286 351 198 c 128,-1,4
 364 110 364 110 372 74 c 1,5,-1
 378 74 l 1,6,7
 492 308 492 308 506 338 c 2,8,-1
 860 1046 l 1,9,-1
 960 1046 l 1,10,-1
 316 -202 l 2,11,12
 240 -352 240 -352 165 -416 c 128,-1,13
 90 -480 90 -480 0 -480 c 2,14,-1
 -48 -480 l 1,15,-1
 -36 -402 l 1,16,-1
 0 -402 l 2,17,18
 134 -402 134 -402 246 -178 c 2,19,-1
 310 -40 l 1,20,-1
 100 1046 l 1,0,-1
EndSplineSet
Substitution2: "'sups' Superscript lookup 5 subtable" uni02B8
Substitution2: "'aalt' Access All Alternates lookup 0 subtable" uni02B8
EndChar

StartChar: z
Encoding: 122 122 93
Width: 896
GlyphClass: 2
Flags: W
LayerCount: 2
Fore
SplineSet
-22 0 m 1,0,-1
 -10 66 l 1,1,-1
 762 966 l 1,2,-1
 188 966 l 1,3,-1
 202 1046 l 1,4,-1
 886 1046 l 1,5,-1
 874 982 l 1,6,-1
 102 78 l 1,7,-1
 744 78 l 1,8,-1
 732 0 l 1,9,-1
 -22 0 l 1,0,-1
EndSplineSet
EndChar

StartChar: braceleft
Encoding: 123 123 94
Width: 884
GlyphClass: 2
Flags: W
LayerCount: 2
Fore
SplineSet
166 654 m 1,0,-1
 178 728 l 1,1,-1
 226 728 l 2,2,3
 396 728 396 728 448 1036 c 2,4,-1
 514 1436 l 2,5,6
 532 1550 532 1550 602 1612 c 128,-1,7
 672 1674 672 1674 756 1674 c 2,8,-1
 898 1674 l 1,9,-1
 886 1596 l 1,10,-1
 760 1596 l 2,11,12
 706 1596 706 1596 662 1549 c 128,-1,13
 618 1502 618 1502 604 1416 c 2,14,-1
 538 1018 l 2,15,16
 498 776 498 776 334 690 c 1,17,18
 394 660 394 660 423 583 c 128,-1,19
 452 506 452 506 432 384 c 2,20,-1
 370 4 l 2,21,22
 354 -94 354 -94 381 -143 c 128,-1,23
 408 -192 408 -192 468 -192 c 2,24,-1
 590 -192 l 1,25,-1
 578 -268 l 1,26,-1
 436 -268 l 2,27,28
 354 -268 354 -268 303 -207 c 128,-1,29
 252 -146 252 -146 272 -28 c 2,30,-1
 336 358 l 2,31,32
 360 504 360 504 327 579 c 128,-1,33
 294 654 294 654 214 654 c 2,34,-1
 166 654 l 1,0,-1
EndSplineSet
EndChar

StartChar: bar
Encoding: 124 124 95
Width: 454
GlyphClass: 2
Flags: W
LayerCount: 2
Fore
SplineSet
34 -336 m 1,0,-1
 376 1732 l 1,1,-1
 466 1732 l 1,2,-1
 124 -336 l 1,3,-1
 34 -336 l 1,0,-1
EndSplineSet
EndChar

StartChar: braceright
Encoding: 125 125 96
Width: 884
GlyphClass: 2
Flags: W
LayerCount: 2
Fore
SplineSet
44 -192 m 1,0,-1
 164 -192 l 2,1,2
 224 -192 224 -192 269 -143 c 128,-1,3
 314 -94 314 -94 330 4 c 2,4,-1
 394 392 l 2,5,6
 414 510 414 510 468 585 c 128,-1,7
 522 660 522 660 592 690 c 1,8,9
 458 774 458 774 498 1014 c 2,10,-1
 564 1416 l 2,11,12
 578 1502 578 1502 549 1549 c 128,-1,13
 520 1596 520 1596 462 1596 c 2,14,-1
 340 1596 l 1,15,-1
 352 1674 l 1,16,-1
 494 1674 l 2,17,18
 580 1674 580 1674 628 1612 c 128,-1,19
 676 1550 676 1550 658 1436 c 2,20,-1
 592 1036 l 2,21,22
 542 728 542 728 712 728 c 2,23,-1
 760 728 l 1,24,-1
 748 654 l 1,25,-1
 700 654 l 2,26,27
 618 654 618 654 560 577 c 128,-1,28
 502 500 502 500 480 366 c 2,29,-1
 416 -28 l 2,30,31
 396 -148 396 -148 325 -208 c 128,-1,32
 254 -268 254 -268 170 -268 c 2,33,-1
 30 -268 l 1,34,-1
 44 -192 l 1,0,-1
EndSplineSet
EndChar

StartChar: asciitilde
Encoding: 126 126 97
Width: 1436
GlyphClass: 2
Flags: W
LayerCount: 2
Fore
SplineSet
148 628 m 1,0,1
 316 874 316 874 530 874 c 0,2,3
 610 874 610 874 672 833 c 128,-1,4
 734 792 734 792 767 743 c 128,-1,5
 800 694 800 694 853 652 c 128,-1,6
 906 610 906 610 968 610 c 0,7,8
 1020 610 1020 610 1067 629 c 128,-1,9
 1114 648 1114 648 1155 690 c 128,-1,10
 1196 732 1196 732 1216 754 c 128,-1,11
 1236 776 1236 776 1272 828 c 1,12,-1
 1338 790 l 1,13,14
 1156 532 1156 532 958 532 c 0,15,16
 892 532 892 532 840 560 c 128,-1,17
 788 588 788 588 755 627 c 128,-1,18
 722 666 722 666 691 705 c 128,-1,19
 660 744 660 744 616 772 c 128,-1,20
 572 800 572 800 518 800 c 0,21,22
 364 800 364 800 216 588 c 1,23,-1
 148 628 l 1,0,1
EndSplineSet
EndChar

StartChar: exclamdown
Encoding: 161 161 99
Width: 586
GlyphClass: 2
Flags: W
LayerCount: 2
Fore
SplineSet
72 -432 m 1,0,-1
 262 620 l 1,1,-1
 344 620 l 1,2,-1
 184 -432 l 1,3,-1
 72 -432 l 1,0,-1
246 866 m 1,4,-1
 278 1054 l 1,5,-1
 472 1054 l 1,6,-1
 440 866 l 1,7,-1
 246 866 l 1,4,-1
EndSplineSet
EndChar

StartChar: cent
Encoding: 162 162 100
Width: 974
GlyphClass: 2
Flags: W
LayerCount: 2
Fore
SplineSet
90 524 m 0,0,1
 128 754 128 754 263 912 c 128,-1,2
 398 1070 398 1070 592 1078 c 1,3,-1
 620 1238 l 1,4,-1
 706 1238 l 1,5,-1
 678 1076 l 1,6,7
 784 1060 784 1060 850 994 c 128,-1,8
 916 928 916 928 936 838 c 1,9,-1
 854 812 l 1,10,11
 834 892 834 892 770 948 c 128,-1,12
 706 1004 706 1004 616 1004 c 0,13,14
 456 1004 456 1004 336 869 c 128,-1,15
 216 734 216 734 182 524 c 0,16,17
 146 308 146 308 222 174 c 128,-1,18
 298 40 298 40 454 40 c 0,19,20
 550 40 550 40 643 101 c 128,-1,21
 736 162 736 162 788 244 c 1,22,-1
 860 216 l 1,23,24
 804 122 804 122 708 54 c 128,-1,25
 612 -14 612 -14 496 -32 c 1,26,-1
 468 -198 l 1,27,-1
 382 -198 l 1,28,-1
 408 -34 l 1,29,30
 228 -24 228 -24 139 128 c 128,-1,31
 50 280 50 280 90 524 c 0,0,1
EndSplineSet
EndChar

StartChar: sterling
Encoding: 163 163 101
Width: 1100
GlyphClass: 2
Flags: W
LayerCount: 2
Fore
SplineSet
92 690 m 1,0,-1
 104 770 l 1,1,-1
 328 770 l 1,2,-1
 390 1140 l 2,3,4
 420 1320 420 1320 535 1414 c 128,-1,5
 650 1508 650 1508 818 1508 c 0,6,7
 936 1508 936 1508 1013 1450 c 128,-1,8
 1090 1392 1090 1392 1118 1310 c 1,9,-1
 1048 1270 l 1,10,11
 980 1428 980 1428 810 1428 c 0,12,13
 680 1428 680 1428 592 1352 c 128,-1,14
 504 1276 504 1276 480 1132 c 2,15,-1
 420 770 l 1,16,-1
 884 770 l 1,17,-1
 872 690 l 1,18,-1
 406 690 l 1,19,-1
 360 408 l 2,20,21
 322 180 322 180 176 76 c 1,22,23
 318 108 318 108 404 108 c 0,24,25
 466 108 466 108 556 76 c 128,-1,26
 646 44 646 44 710 44 c 0,27,28
 856 44 856 44 972 106 c 1,29,-1
 992 28 l 1,30,31
 860 -36 860 -36 694 -36 c 0,32,33
 636 -36 636 -36 533 -5 c 128,-1,34
 430 26 430 26 370 26 c 0,35,36
 306 26 306 26 215 12 c 128,-1,37
 124 -2 124 -2 66 -14 c 2,38,-1
 8 -28 l 1,39,-1
 -8 44 l 1,40,41
 106 82 106 82 177 184 c 128,-1,42
 248 286 248 286 268 406 c 2,43,-1
 314 690 l 1,44,-1
 92 690 l 1,0,-1
EndSplineSet
EndChar

StartChar: currency
Encoding: 164 164 102
Width: 1220
GlyphClass: 2
Flags: W
LayerCount: 2
Fore
SplineSet
18 276 m 1,0,-1
 266 480 l 1,1,2
 192 582 192 582 218 736 c 0,3,4
 242 886 242 886 350 990 c 1,5,-1
 168 1192 l 1,6,-1
 240 1254 l 1,7,-1
 418 1052 l 1,8,9
 558 1150 558 1150 708 1150 c 0,10,11
 866 1150 866 1150 968 1050 c 1,12,-1
 1210 1252 l 1,13,-1
 1260 1190 l 1,14,-1
 1016 990 l 1,15,16
 1090 884 1090 884 1066 736 c 0,17,18
 1042 592 1042 592 930 480 c 1,19,-1
 1108 276 l 1,20,-1
 1040 216 l 1,21,-1
 862 416 l 1,22,23
 738 320 738 320 572 320 c 0,24,25
 410 320 410 320 310 416 c 1,26,-1
 68 218 l 1,27,-1
 18 276 l 1,0,-1
306 736 m 0,28,29
 284 598 284 598 362 500 c 128,-1,30
 440 402 440 402 584 402 c 256,31,32
 730 402 730 402 842 501 c 128,-1,33
 954 600 954 600 978 736 c 0,34,35
 1000 874 1000 874 919 971 c 128,-1,36
 838 1068 838 1068 696 1068 c 256,37,38
 552 1068 552 1068 441 972 c 128,-1,39
 330 876 330 876 306 736 c 0,28,29
EndSplineSet
EndChar

StartChar: yen
Encoding: 165 165 103
Width: 1112
GlyphClass: 2
Flags: W
LayerCount: 2
Fore
SplineSet
144 1470 m 1,0,-1
 258 1470 l 1,1,-1
 486 976 l 2,2,3
 568 798 568 798 586 752 c 1,4,-1
 590 752 l 1,5,6
 614 782 614 782 673 857 c 128,-1,7
 732 932 732 932 764 972 c 2,8,-1
 1158 1470 l 1,9,-1
 1270 1470 l 1,10,-1
 686 742 l 1,11,-1
 1024 742 l 1,12,-1
 1014 670 l 1,13,-1
 622 670 l 1,14,-1
 586 450 l 1,15,-1
 976 450 l 1,16,-1
 966 380 l 1,17,-1
 574 380 l 1,18,-1
 512 0 l 1,19,-1
 418 0 l 1,20,-1
 480 380 l 1,21,-1
 84 380 l 1,22,-1
 96 450 l 1,23,-1
 492 450 l 1,24,-1
 528 670 l 1,25,-1
 132 670 l 1,26,-1
 144 742 l 1,27,-1
 488 742 l 1,28,-1
 144 1470 l 1,0,-1
EndSplineSet
EndChar

StartChar: brokenbar
Encoding: 166 166 104
Width: 454
GlyphClass: 2
Flags: W
LayerCount: 2
Fore
SplineSet
244 936 m 1,0,-1
 376 1732 l 1,1,-1
 466 1732 l 1,2,-1
 334 936 l 1,3,-1
 244 936 l 1,0,-1
34 -334 m 1,4,-1
 166 458 l 1,5,-1
 256 458 l 1,6,-1
 124 -334 l 1,7,-1
 34 -334 l 1,4,-1
EndSplineSet
EndChar

StartChar: section
Encoding: 167 167 105
Width: 1098
GlyphClass: 2
Flags: W
LayerCount: 2
Fore
SplineSet
52 74 m 1,0,-1
 128 122 l 1,1,2
 158 48 158 48 234 7 c 128,-1,3
 310 -34 310 -34 412 -34 c 0,4,5
 544 -34 544 -34 622 15 c 128,-1,6
 700 64 700 64 714 146 c 0,7,8
 726 216 726 216 691 257 c 128,-1,9
 656 298 656 298 564 342 c 2,10,-1
 368 438 l 2,11,12
 260 492 260 492 212 555 c 128,-1,13
 164 618 164 618 180 712 c 0,14,15
 192 784 192 784 239 848 c 128,-1,16
 286 912 286 912 328 942 c 128,-1,17
 370 972 370 972 442 1016 c 1,18,19
 312 1126 312 1126 330 1244 c 0,20,21
 350 1366 350 1366 455 1437 c 128,-1,22
 560 1508 560 1508 742 1508 c 0,23,24
 862 1508 862 1508 953 1455 c 128,-1,25
 1044 1402 1044 1402 1082 1312 c 1,26,-1
 1012 1270 l 1,27,28
 920 1428 920 1428 726 1428 c 0,29,30
 582 1428 582 1428 509 1377 c 128,-1,31
 436 1326 436 1326 424 1246 c 0,32,33
 416 1198 416 1198 434 1158 c 128,-1,34
 452 1118 452 1118 497 1082 c 128,-1,35
 542 1046 542 1046 581 1021 c 128,-1,36
 620 996 620 996 686 962 c 0,37,38
 712 948 712 948 726 942 c 0,39,40
 870 862 870 862 928 799 c 128,-1,41
 986 736 986 736 970 636 c 0,42,43
 944 478 944 478 748 332 c 1,44,45
 826 258 826 258 808 146 c 0,46,47
 790 32 790 32 687 -41 c 128,-1,48
 584 -114 584 -114 400 -114 c 0,49,50
 270 -114 270 -114 182 -61 c 128,-1,51
 94 -8 94 -8 52 74 c 1,0,-1
276 720 m 0,52,53
 262 638 262 638 298 595 c 128,-1,54
 334 552 334 552 450 496 c 2,55,-1
 680 380 l 1,56,57
 854 502 854 502 876 636 c 0,58,59
 888 708 888 708 843 754 c 128,-1,60
 798 800 798 800 676 868 c 2,61,-1
 504 970 l 1,62,63
 452 936 452 936 424 917 c 128,-1,64
 396 898 396 898 359 865 c 128,-1,65
 322 832 322 832 302 797 c 128,-1,66
 282 762 282 762 276 720 c 0,52,53
EndSplineSet
EndChar

StartChar: dieresis
Encoding: 168 168 106
Width: 864
GlyphClass: 2
Flags: W
LayerCount: 2
Fore
SplineSet
314 1310 m 1,0,-1
 340 1470 l 1,1,-1
 498 1470 l 1,2,-1
 470 1310 l 1,3,-1
 314 1310 l 1,0,-1
642 1310 m 1,4,-1
 668 1470 l 1,5,-1
 824 1470 l 1,6,-1
 798 1310 l 1,7,-1
 642 1310 l 1,4,-1
EndSplineSet
EndChar

StartChar: copyright
Encoding: 169 169 107
Width: 1740
GlyphClass: 2
Flags: W
LayerCount: 2
Fore
SplineSet
208 748 m 0,0,1
 158 450 158 450 317 243 c 128,-1,2
 476 36 476 36 784 36 c 0,3,4
 1090 36 1090 36 1318 242 c 128,-1,5
 1546 448 1546 448 1596 748 c 256,6,7
 1646 1048 1646 1048 1484 1255 c 128,-1,8
 1322 1462 1322 1462 1020 1462 c 0,9,10
 720 1462 720 1462 489 1258 c 128,-1,11
 258 1054 258 1054 208 748 c 0,0,1
136 748 m 256,12,13
 192 1084 192 1084 446 1307 c 128,-1,14
 700 1530 700 1530 1032 1530 c 0,15,16
 1362 1530 1362 1530 1543 1308 c 128,-1,17
 1724 1086 1724 1086 1668 748 c 0,18,19
 1614 418 1614 418 1359 194 c 128,-1,20
 1104 -30 1104 -30 772 -30 c 256,21,22
 440 -30 440 -30 260 191 c 128,-1,23
 80 412 80 412 136 748 c 256,12,13
548 744 m 0,24,25
 582 954 582 954 707 1089 c 128,-1,26
 832 1224 832 1224 1010 1224 c 0,27,28
 1104 1224 1104 1224 1174 1171 c 128,-1,29
 1244 1118 1244 1118 1276 1014 c 1,30,-1
 1192 984 l 1,31,32
 1142 1146 1142 1146 996 1146 c 0,33,34
 862 1146 862 1146 764 1035 c 128,-1,35
 666 924 666 924 636 744 c 0,36,37
 606 560 606 560 668 451 c 128,-1,38
 730 342 730 342 862 342 c 0,39,40
 946 342 946 342 1018 392 c 128,-1,41
 1090 442 1090 442 1136 516 c 1,42,-1
 1212 486 l 1,43,44
 1156 394 1156 394 1060 330 c 128,-1,45
 964 266 964 266 850 266 c 0,46,47
 682 266 682 266 597 395 c 128,-1,48
 512 524 512 524 548 744 c 0,24,25
EndSplineSet
EndChar

StartChar: ordfeminine
Encoding: 170 170 108
Width: 750
GlyphClass: 2
Flags: W
LayerCount: 2
Fore
SplineSet
88 682 m 1,0,-1
 100 752 l 1,1,-1
 716 752 l 1,2,-1
 704 682 l 1,3,-1
 88 682 l 1,0,-1
226 1096 m 0,4,5
 218 1042 218 1042 258 1002 c 128,-1,6
 298 962 298 962 382 962 c 0,7,8
 484 962 484 962 572 1030 c 128,-1,9
 660 1098 660 1098 676 1204 c 2,10,-1
 696 1324 l 1,11,12
 648 1306 648 1306 557 1291 c 128,-1,13
 466 1276 466 1276 406 1263 c 128,-1,14
 346 1250 346 1250 292 1208 c 128,-1,15
 238 1166 238 1166 226 1096 c 0,4,5
150 1092 m 0,16,17
 162 1168 162 1168 206 1219 c 128,-1,18
 250 1270 250 1270 317 1295 c 128,-1,19
 384 1320 384 1320 448 1333 c 128,-1,20
 512 1346 512 1346 588 1359 c 128,-1,21
 664 1372 664 1372 708 1388 c 1,22,-1
 714 1424 l 2,23,24
 726 1502 726 1502 681 1553 c 128,-1,25
 636 1604 636 1604 540 1604 c 0,26,27
 460 1604 460 1604 392 1563 c 128,-1,28
 324 1522 324 1522 294 1486 c 1,29,-1
 248 1526 l 1,30,31
 294 1582 294 1582 378 1626 c 128,-1,32
 462 1670 462 1670 550 1670 c 0,33,34
 692 1670 692 1670 747 1598 c 128,-1,35
 802 1526 802 1526 782 1404 c 2,36,-1
 702 920 l 1,37,-1
 632 920 l 1,38,-1
 652 1038 l 1,39,40
 606 976 606 976 530 936 c 128,-1,41
 454 896 454 896 364 896 c 0,42,43
 250 896 250 896 193 952 c 128,-1,44
 136 1008 136 1008 150 1092 c 0,16,17
EndSplineSet
EndChar

StartChar: guillemotleft
Encoding: 171 171 109
Width: 830
GlyphClass: 2
Flags: W
LayerCount: 2
Fore
SplineSet
56 502 m 1,0,-1
 440 944 l 1,1,-1
 498 900 l 1,2,-1
 156 502 l 1,3,-1
 364 104 l 1,4,-1
 290 58 l 1,5,-1
 56 502 l 1,0,-1
376 502 m 1,6,-1
 760 938 l 1,7,-1
 814 888 l 1,8,-1
 476 502 l 1,9,-1
 684 110 l 1,10,-1
 614 64 l 1,11,-1
 376 502 l 1,6,-1
EndSplineSet
EndChar

StartChar: logicalnot
Encoding: 172 172 110
Width: 1048
GlyphClass: 2
Flags: W
LayerCount: 2
Fore
SplineSet
110 662 m 1,0,-1
 124 742 l 1,1,-1
 988 742 l 1,2,-1
 908 254 l 1,3,-1
 818 254 l 1,4,-1
 886 662 l 1,5,-1
 110 662 l 1,0,-1
EndSplineSet
EndChar

StartChar: uni00AD
Encoding: 173 173 111
Width: 1082
GlyphClass: 2
Flags: W
LayerCount: 2
Fore
SplineSet
136 686 m 1,0,-1
 150 766 l 1,1,-1
 998 766 l 1,2,-1
 984 686 l 1,3,-1
 136 686 l 1,0,-1
EndSplineSet
EndChar

StartChar: registered
Encoding: 174 174 112
Width: 1740
GlyphClass: 2
Flags: W
LayerCount: 2
Fore
SplineSet
574 294 m 1,0,-1
 722 1194 l 1,1,-1
 1042 1194 l 2,2,3
 1164 1194 1164 1194 1223 1123 c 128,-1,4
 1282 1052 1282 1052 1264 948 c 0,5,6
 1236 782 1236 782 1076 724 c 1,7,8
 1138 678 1138 678 1148 556 c 0,9,10
 1164 362 1164 362 1192 294 c 1,11,-1
 1094 294 l 1,12,13
 1074 350 1074 350 1060 538 c 0,14,15
 1054 614 1054 614 1031 654 c 128,-1,16
 1008 694 1008 694 944 694 c 2,17,-1
 726 694 l 1,18,-1
 660 294 l 1,19,-1
 574 294 l 1,0,-1
738 766 m 1,20,-1
 960 766 l 2,21,22
 1046 766 1046 766 1104 814 c 128,-1,23
 1162 862 1162 862 1174 942 c 0,24,25
 1186 1018 1186 1018 1149 1068 c 128,-1,26
 1112 1118 1112 1118 1018 1118 c 2,27,-1
 796 1118 l 1,28,-1
 738 766 l 1,20,-1
136 748 m 256,29,30
 192 1084 192 1084 446 1307 c 128,-1,31
 700 1530 700 1530 1032 1530 c 256,32,33
 1364 1530 1364 1530 1544 1309 c 128,-1,34
 1724 1088 1724 1088 1668 748 c 0,35,36
 1614 418 1614 418 1361 194 c 128,-1,37
 1108 -30 1108 -30 772 -30 c 0,38,39
 440 -30 440 -30 260 191 c 128,-1,40
 80 412 80 412 136 748 c 256,29,30
208 748 m 0,41,42
 158 450 158 450 317 243 c 128,-1,43
 476 36 476 36 784 36 c 0,44,45
 1090 36 1090 36 1318 244 c 128,-1,46
 1546 452 1546 452 1596 748 c 0,47,48
 1646 1048 1646 1048 1484 1255 c 128,-1,49
 1322 1462 1322 1462 1020 1462 c 0,50,51
 720 1462 720 1462 489 1258 c 128,-1,52
 258 1054 258 1054 208 748 c 0,41,42
EndSplineSet
EndChar

StartChar: macron
Encoding: 175 175 113
Width: 1016
GlyphClass: 2
Flags: W
LayerCount: 2
Fore
SplineSet
164 1556 m 1,0,-1
 178 1638 l 1,1,-1
 1196 1638 l 1,2,-1
 1182 1556 l 1,3,-1
 164 1556 l 1,0,-1
EndSplineSet
EndChar

StartChar: degree
Encoding: 176 176 114
Width: 790
GlyphClass: 2
Flags: W
LayerCount: 2
Fore
SplineSet
276 1256 m 0,0,1
 292 1348 292 1348 370 1417 c 128,-1,2
 448 1486 448 1486 550 1486 c 0,3,4
 648 1486 648 1486 704 1421 c 128,-1,5
 760 1356 760 1356 744 1256 c 256,6,7
 728 1156 728 1156 650 1091 c 128,-1,8
 572 1026 572 1026 474 1026 c 0,9,10
 374 1026 374 1026 317 1092 c 128,-1,11
 260 1158 260 1158 276 1256 c 0,0,1
340 1256 m 0,12,13
 328 1180 328 1180 369 1133 c 128,-1,14
 410 1086 410 1086 482 1086 c 0,15,16
 550 1086 550 1086 608 1134 c 128,-1,17
 666 1182 666 1182 678 1256 c 0,18,19
 690 1326 690 1326 652 1375 c 128,-1,20
 614 1424 614 1424 538 1424 c 0,21,22
 460 1424 460 1424 406 1374 c 128,-1,23
 352 1324 352 1324 340 1256 c 0,12,13
EndSplineSet
EndChar

StartChar: plusminus
Encoding: 177 177 115
Width: 1088
GlyphClass: 2
Flags: W
LayerCount: 2
Fore
SplineSet
126 818 m 1,0,-1
 138 900 l 1,1,-1
 556 900 l 1,2,-1
 620 1290 l 1,3,-1
 708 1290 l 1,4,-1
 644 900 l 1,5,-1
 1060 900 l 1,6,-1
 1046 818 l 1,7,-1
 630 818 l 1,8,-1
 566 428 l 1,9,-1
 478 428 l 1,10,-1
 542 818 l 1,11,-1
 126 818 l 1,0,-1
26 180 m 1,12,-1
 38 258 l 1,13,-1
 952 258 l 1,14,-1
 938 180 l 1,15,-1
 26 180 l 1,12,-1
EndSplineSet
EndChar

StartChar: twosuperior
Encoding: 178 178 116
Width: 608
GlyphClass: 2
Flags: W
LayerCount: 2
Fore
SplineSet
208 1460 m 1,0,1
 294 1668 294 1668 490 1668 c 0,2,3
 592 1668 592 1668 645 1608 c 128,-1,4
 698 1548 698 1548 682 1442 c 0,5,6
 662 1316 662 1316 506 1186 c 0,7,8
 302 1016 302 1016 254 962 c 0,9,10
 222 924 222 924 202 888 c 1,11,-1
 590 888 l 1,12,-1
 580 826 l 1,13,-1
 106 826 l 1,14,15
 116 882 116 882 168 952 c 128,-1,16
 220 1022 220 1022 266 1064 c 128,-1,17
 312 1106 312 1106 438 1212 c 0,18,19
 456 1230 456 1230 468 1238 c 0,20,21
 594 1346 594 1346 610 1442 c 0,22,23
 622 1518 622 1518 586 1560 c 128,-1,24
 550 1602 550 1602 476 1602 c 0,25,26
 344 1602 344 1602 268 1444 c 1,27,-1
 208 1460 l 1,0,1
EndSplineSet
EndChar

StartChar: threesuperior
Encoding: 179 179 117
Width: 610
GlyphClass: 2
Flags: W
LayerCount: 2
Fore
SplineSet
108 962 m 1,0,-1
 174 992 l 1,1,2
 222 870 222 870 342 870 c 0,3,4
 424 870 424 870 486 917 c 128,-1,5
 548 964 548 964 564 1056 c 0,6,7
 576 1132 576 1132 533 1181 c 128,-1,8
 490 1230 490 1230 382 1230 c 0,9,10
 342 1230 342 1230 326 1228 c 1,11,-1
 336 1294 l 1,12,13
 356 1292 356 1292 388 1292 c 0,14,15
 484 1292 484 1292 535 1339 c 128,-1,16
 586 1386 586 1386 598 1454 c 0,17,18
 608 1518 608 1518 572 1561 c 128,-1,19
 536 1604 536 1604 464 1604 c 0,20,21
 360 1604 360 1604 278 1476 c 1,22,-1
 224 1498 l 1,23,24
 316 1668 316 1668 476 1668 c 0,25,26
 580 1668 580 1668 632 1608 c 128,-1,27
 684 1548 684 1548 670 1458 c 0,28,29
 648 1324 648 1324 522 1266 c 1,30,31
 662 1214 662 1214 636 1056 c 0,32,33
 616 938 616 938 532 872 c 128,-1,34
 448 806 448 806 332 806 c 0,35,36
 158 806 158 806 108 962 c 1,0,-1
EndSplineSet
EndChar

StartChar: acute
Encoding: 180 180 118
Width: 624
GlyphClass: 2
Flags: W
LayerCount: 2
Fore
SplineSet
278 1318 m 1,0,-1
 558 1664 l 1,1,-1
 694 1664 l 1,2,-1
 364 1318 l 1,3,-1
 278 1318 l 1,0,-1
EndSplineSet
EndChar

StartChar: uni00B5
Encoding: 181 181 119
Width: 1098
GlyphClass: 2
Flags: W
LayerCount: 2
Fore
SplineSet
4 -480 m 1,0,-1
 256 1046 l 1,1,-1
 344 1046 l 1,2,-1
 234 382 l 2,3,4
 210 232 210 232 256 136 c 128,-1,5
 302 40 302 40 432 40 c 0,6,7
 588 40 588 40 693 161 c 128,-1,8
 798 282 798 282 826 444 c 2,9,-1
 926 1046 l 1,10,-1
 1010 1046 l 1,11,-1
 836 0 l 1,12,-1
 756 0 l 1,13,-1
 790 206 l 1,14,-1
 786 206 l 1,15,16
 744 110 744 110 644 37 c 128,-1,17
 544 -36 544 -36 404 -36 c 0,18,19
 234 -36 234 -36 190 112 c 1,20,-1
 92 -480 l 1,21,-1
 4 -480 l 1,0,-1
EndSplineSet
EndChar

StartChar: paragraph
Encoding: 182 182 120
Width: 1228
GlyphClass: 2
Flags: W
LayerCount: 2
Fore
SplineSet
214 1098 m 0,0,1
 248 1302 248 1302 369 1425 c 128,-1,2
 490 1548 490 1548 678 1548 c 2,3,-1
 1212 1548 l 1,4,-1
 932 -140 l 1,5,-1
 856 -140 l 1,6,-1
 1120 1460 l 1,7,-1
 874 1460 l 1,8,-1
 608 -140 l 1,9,-1
 528 -140 l 1,10,-1
 662 674 l 1,11,12
 582 648 582 648 506 648 c 0,13,14
 350 648 350 648 264 767 c 128,-1,15
 178 886 178 886 214 1098 c 0,0,1
EndSplineSet
EndChar

StartChar: periodcentered
Encoding: 183 183 121
Width: 634
GlyphClass: 2
Flags: W
LayerCount: 2
Fore
SplineSet
228 608 m 1,0,-1
 260 800 l 1,1,-1
 454 800 l 1,2,-1
 422 608 l 1,3,-1
 228 608 l 1,0,-1
EndSplineSet
EndChar

StartChar: cedilla
Encoding: 184 184 122
Width: 556
GlyphClass: 2
Flags: W
LayerCount: 2
Fore
SplineSet
-68 -374 m 1,0,1
 14 -394 14 -394 56 -394 c 0,2,3
 212 -394 212 -394 230 -290 c 0,4,5
 246 -194 246 -194 52 -172 c 1,6,-1
 158 -10 l 1,7,-1
 238 -10 l 1,8,-1
 168 -122 l 1,9,10
 338 -156 338 -156 316 -290 c 0,11,12
 302 -372 302 -372 234 -418 c 128,-1,13
 166 -464 166 -464 48 -464 c 0,14,15
 -10 -464 -10 -464 -80 -442 c 1,16,-1
 -68 -374 l 1,0,1
EndSplineSet
EndChar

StartChar: onesuperior
Encoding: 185 185 123
Width: 592
GlyphClass: 2
Flags: W
LayerCount: 2
Fore
SplineSet
264 1478 m 1,0,-1
 274 1538 l 1,1,-1
 324 1538 l 2,2,3
 398 1538 398 1538 429 1555 c 128,-1,4
 460 1572 460 1572 466 1614 c 2,5,-1
 474 1664 l 1,6,-1
 540 1664 l 1,7,-1
 400 818 l 1,8,-1
 324 818 l 1,9,-1
 434 1478 l 1,10,-1
 264 1478 l 1,0,-1
EndSplineSet
EndChar

StartChar: ordmasculine
Encoding: 186 186 124
Width: 750
GlyphClass: 2
Flags: W
LayerCount: 2
Fore
SplineSet
256 1282 m 0,0,1
 232 1140 232 1140 284 1051 c 128,-1,2
 336 962 336 962 440 962 c 256,3,4
 544 962 544 962 626 1052 c 128,-1,5
 708 1142 708 1142 730 1282 c 0,6,7
 754 1428 754 1428 701 1515 c 128,-1,8
 648 1602 648 1602 546 1602 c 256,9,10
 444 1602 444 1602 362 1515 c 128,-1,11
 280 1428 280 1428 256 1282 c 0,0,1
184 1282 m 0,12,13
 212 1450 212 1450 311 1560 c 128,-1,14
 410 1670 410 1670 558 1670 c 0,15,16
 700 1670 700 1670 767 1560 c 128,-1,17
 834 1450 834 1450 808 1282 c 0,18,19
 782 1124 782 1124 681 1010 c 128,-1,20
 580 896 580 896 430 896 c 0,21,22
 278 896 278 896 218 1010 c 128,-1,23
 158 1124 158 1124 184 1282 c 0,12,13
88 682 m 1,24,-1
 100 752 l 1,25,-1
 716 752 l 1,26,-1
 704 682 l 1,27,-1
 88 682 l 1,24,-1
EndSplineSet
EndChar

StartChar: guillemotright
Encoding: 187 187 125
Width: 828
GlyphClass: 2
Flags: W
LayerCount: 2
Fore
SplineSet
122 888 m 1,0,-1
 196 938 l 1,1,-1
 432 502 l 1,2,-1
 52 64 l 1,3,-1
 -4 110 l 1,4,-1
 332 502 l 1,5,-1
 122 888 l 1,0,-1
312 104 m 1,6,-1
 652 502 l 1,7,-1
 442 900 l 1,8,-1
 516 944 l 1,9,-1
 752 502 l 1,10,-1
 374 58 l 1,11,-1
 312 104 l 1,6,-1
EndSplineSet
EndChar

StartChar: onequarter
Encoding: 188 188 126
Width: 1866
GlyphClass: 3
Flags: W
LayerCount: 2
Fore
SplineSet
1084 234 m 1,0,-1
 1424 234 l 1,1,-1
 1512 766 l 1,2,-1
 1436 668 l 1,3,-1
 1084 234 l 1,0,-1
300 1380 m 1,4,-1
 312 1454 l 1,5,-1
 368 1454 l 2,6,7
 460 1454 460 1454 492 1471 c 128,-1,8
 524 1488 524 1488 532 1542 c 2,9,-1
 542 1598 l 1,10,-1
 614 1598 l 1,11,-1
 450 610 l 1,12,-1
 368 610 l 1,13,-1
 496 1380 l 1,14,-1
 300 1380 l 1,4,-1
192 -102 m 1,15,-1
 1430 1570 l 1,16,-1
 1522 1570 l 1,17,-1
 286 -102 l 1,18,-1
 192 -102 l 1,15,-1
988 224 m 1,19,-1
 1542 908 l 1,20,-1
 1620 908 l 1,21,-1
 1508 234 l 1,22,-1
 1654 234 l 1,23,-1
 1642 160 l 1,24,-1
 1496 160 l 1,25,-1
 1456 -84 l 1,26,-1
 1370 -84 l 1,27,-1
 1412 160 l 1,28,-1
 978 160 l 1,29,-1
 988 224 l 1,19,-1
EndSplineSet
Ligature2: "'frac' Diagonal Fractions lookup 7 subtable" one fraction four
Ligature2: "'frac' Diagonal Fractions lookup 7 subtable" one slash four
EndChar

StartChar: onehalf
Encoding: 189 189 127
Width: 1862
GlyphClass: 3
Flags: W
LayerCount: 2
Fore
SplineSet
1122 666 m 1,0,1
 1232 910 1232 910 1454 910 c 0,2,3
 1572 910 1572 910 1635 839 c 128,-1,4
 1698 768 1698 768 1678 644 c 0,5,6
 1654 502 1654 502 1482 356 c 0,7,8
 1300 208 1300 208 1225 136 c 128,-1,9
 1150 64 1150 64 1118 0 c 1,10,-1
 1572 0 l 1,11,-1
 1558 -76 l 1,12,-1
 1006 -76 l 1,13,14
 1022 22 1022 22 1107 116 c 128,-1,15
 1192 210 1192 210 1424 402 c 0,16,17
 1572 524 1572 524 1592 644 c 0,18,19
 1608 736 1608 736 1564 784 c 128,-1,20
 1520 832 1520 832 1436 832 c 256,21,22
 1352 832 1352 832 1291 778 c 128,-1,23
 1230 724 1230 724 1198 644 c 1,24,-1
 1122 666 l 1,0,1
300 1380 m 1,25,-1
 312 1454 l 1,26,-1
 368 1454 l 2,27,28
 460 1454 460 1454 492 1471 c 128,-1,29
 524 1488 524 1488 532 1542 c 2,30,-1
 542 1598 l 1,31,-1
 614 1598 l 1,32,-1
 450 610 l 1,33,-1
 368 610 l 1,34,-1
 496 1380 l 1,35,-1
 300 1380 l 1,25,-1
160 -102 m 1,36,-1
 1418 1568 l 1,37,-1
 1512 1568 l 1,38,-1
 254 -102 l 1,39,-1
 160 -102 l 1,36,-1
EndSplineSet
Ligature2: "'frac' Diagonal Fractions lookup 7 subtable" one fraction two
Ligature2: "'frac' Diagonal Fractions lookup 7 subtable" one slash two
EndChar

StartChar: threequarters
Encoding: 190 190 128
Width: 1870
GlyphClass: 3
Flags: W
LayerCount: 2
Fore
SplineSet
1108 234 m 1,0,-1
 1448 234 l 1,1,-1
 1536 766 l 1,2,-1
 1462 668 l 1,3,-1
 1108 234 l 1,0,-1
322 -102 m 1,4,-1
 1582 1568 l 1,5,-1
 1674 1568 l 1,6,-1
 418 -102 l 1,7,-1
 322 -102 l 1,4,-1
1012 224 m 1,8,-1
 1564 908 l 1,9,-1
 1644 908 l 1,10,-1
 1534 234 l 1,11,-1
 1678 234 l 1,12,-1
 1666 160 l 1,13,-1
 1520 160 l 1,14,-1
 1480 -84 l 1,15,-1
 1396 -84 l 1,16,-1
 1436 160 l 1,17,-1
 1002 160 l 1,18,-1
 1012 224 l 1,8,-1
156 794 m 1,19,-1
 234 826 l 1,20,21
 292 686 292 686 430 686 c 0,22,23
 524 686 524 686 597 740 c 128,-1,24
 670 794 670 794 686 900 c 0,25,26
 702 1000 702 1000 644 1051 c 128,-1,27
 586 1102 586 1102 488 1102 c 0,28,29
 450 1102 450 1102 408 1098 c 1,30,-1
 422 1180 l 1,31,32
 454 1176 454 1176 494 1176 c 0,33,34
 582 1176 582 1176 647 1227 c 128,-1,35
 712 1278 712 1278 726 1364 c 0,36,37
 738 1442 738 1442 696 1491 c 128,-1,38
 654 1540 654 1540 572 1540 c 0,39,40
 450 1540 450 1540 354 1390 c 1,41,-1
 284 1416 l 1,42,43
 400 1616 400 1616 586 1616 c 0,44,45
 710 1616 710 1616 769 1545 c 128,-1,46
 828 1474 828 1474 812 1368 c 0,47,48
 786 1214 786 1214 638 1146 c 1,49,50
 708 1120 708 1120 747 1058 c 128,-1,51
 786 996 786 996 772 900 c 0,52,53
 748 760 748 760 650 684 c 128,-1,54
 552 608 552 608 416 608 c 0,55,56
 318 608 318 608 251 659 c 128,-1,57
 184 710 184 710 156 794 c 1,19,-1
EndSplineSet
Ligature2: "'frac' Diagonal Fractions lookup 7 subtable" three fraction four
Ligature2: "'frac' Diagonal Fractions lookup 7 subtable" three slash four
EndChar

StartChar: questiondown
Encoding: 191 191 129
Width: 1042
GlyphClass: 2
Flags: W
LayerCount: 2
Fore
SplineSet
32 -82 m 0,0,1
 48 10 48 10 97 83 c 128,-1,2
 146 156 146 156 208 207 c 128,-1,3
 270 258 270 258 330 309 c 128,-1,4
 390 360 390 360 440 435 c 128,-1,5
 490 510 490 510 504 602 c 2,6,-1
 510 638 l 1,7,-1
 602 638 l 1,8,-1
 596 598 l 2,9,10
 580 496 580 496 529 416 c 128,-1,11
 478 336 478 336 417 284 c 128,-1,12
 356 232 356 232 296 183 c 128,-1,13
 236 134 236 134 188 67 c 128,-1,14
 140 0 140 0 126 -82 c 0,15,16
 104 -220 104 -220 165 -304 c 128,-1,17
 226 -388 226 -388 360 -388 c 0,18,19
 568 -388 568 -388 718 -142 c 1,20,-1
 794 -174 l 1,21,22
 714 -314 714 -314 596 -391 c 128,-1,23
 478 -468 478 -468 348 -468 c 0,24,25
 172 -468 172 -468 88 -362 c 128,-1,26
 4 -256 4 -256 32 -82 c 0,0,1
496 868 m 1,27,-1
 526 1054 l 1,28,-1
 720 1054 l 1,29,-1
 690 868 l 1,30,-1
 496 868 l 1,27,-1
EndSplineSet
EndChar

StartChar: AE
Encoding: 198 198 136
Width: 1802
GlyphClass: 2
Flags: W
LayerCount: 2
Fore
SplineSet
426 542 m 1,0,-1
 950 542 l 1,1,-1
 1090 1384 l 1,2,-1
 1072 1384 l 1,3,-1
 426 542 l 1,0,-1
-92 0 m 1,4,-1
 1040 1470 l 1,5,-1
 1866 1470 l 1,6,-1
 1852 1388 l 1,7,-1
 1182 1388 l 1,8,-1
 1086 804 l 1,9,-1
 1684 804 l 1,10,-1
 1670 724 l 1,11,-1
 1068 724 l 1,12,-1
 962 82 l 1,13,-1
 1646 82 l 1,14,-1
 1632 0 l 1,15,-1
 860 0 l 1,16,-1
 938 464 l 1,17,-1
 368 464 l 1,18,-1
 12 0 l 1,19,-1
 -92 0 l 1,4,-1
EndSplineSet
EndChar

StartChar: multiply
Encoding: 215 215 153
Width: 1086
GlyphClass: 2
Flags: W
LayerCount: 2
Fore
SplineSet
52 348 m 1,0,-1
 514 722 l 1,1,-1
 182 1094 l 1,2,-1
 252 1156 l 1,3,-1
 578 774 l 1,4,-1
 1034 1156 l 1,5,-1
 1082 1096 l 1,6,-1
 628 722 l 1,7,-1
 964 346 l 1,8,-1
 896 290 l 1,9,-1
 560 666 l 1,10,-1
 100 290 l 1,11,-1
 52 348 l 1,0,-1
EndSplineSet
EndChar

StartChar: Oslash
Encoding: 216 216 154
Width: 1364
GlyphClass: 2
Flags: W
LayerCount: 2
Fore
SplineSet
1072 1338 m 1,0,1
 976 1426 976 1426 828 1426 c 0,2,3
 606 1426 606 1426 446 1239 c 128,-1,4
 286 1052 286 1052 232 734 c 0,5,6
 166 334 166 334 334 156 c 1,7,-1
 1072 1338 l 1,0,1
1120 1274 m 1,8,-1
 390 106 l 1,9,10
 478 44 478 44 598 44 c 0,11,12
 822 44 822 44 980 233 c 128,-1,13
 1138 422 1138 422 1190 734 c 0,14,15
 1248 1092 1248 1092 1120 1274 c 1,8,-1
136 734 m 0,16,17
 194 1082 194 1082 384 1295 c 128,-1,18
 574 1508 574 1508 842 1508 c 0,19,20
 1010 1508 1010 1508 1124 1416 c 1,21,-1
 1238 1594 l 1,22,-1
 1328 1594 l 1,23,-1
 1176 1364 l 1,24,25
 1354 1152 1354 1152 1286 734 c 0,26,27
 1228 388 1228 388 1039 176 c 128,-1,28
 850 -36 850 -36 586 -36 c 0,29,30
 438 -36 438 -36 336 28 c 1,31,-1
 216 -154 l 1,32,-1
 126 -154 l 1,33,-1
 280 76 l 1,34,35
 60 276 60 276 136 734 c 0,16,17
EndSplineSet
EndChar

StartChar: Thorn
Encoding: 222 222 160
Width: 1186
GlyphClass: 2
Flags: W
LayerCount: 2
Fore
SplineSet
122 0 m 1,0,-1
 366 1472 l 1,1,-1
 458 1472 l 1,2,-1
 414 1206 l 1,3,-1
 712 1206 l 2,4,5
 958 1206 958 1206 1061 1087 c 128,-1,6
 1164 968 1164 968 1130 758 c 0,7,8
 1092 526 1092 526 931 415 c 128,-1,9
 770 304 770 304 530 304 c 2,10,-1
 266 304 l 1,11,-1
 214 0 l 1,12,-1
 122 0 l 1,0,-1
278 384 m 1,13,-1
 534 384 l 2,14,15
 974 384 974 384 1036 756 c 0,16,17
 1098 1126 1098 1126 688 1126 c 2,18,-1
 402 1126 l 1,19,-1
 278 384 l 1,13,-1
EndSplineSet
EndChar

StartChar: germandbls
Encoding: 223 223 161
Width: 1250
GlyphClass: 2
Flags: W
LayerCount: 2
Fore
SplineSet
122 0 m 1,0,-1
 310 1132 l 2,1,2
 340 1310 340 1310 471 1409 c 128,-1,3
 602 1508 602 1508 776 1508 c 0,4,5
 952 1508 952 1508 1048 1401 c 128,-1,6
 1144 1294 1144 1294 1116 1120 c 0,7,8
 1094 986 1094 986 1028 899 c 128,-1,9
 962 812 962 812 886 770 c 1,10,-1
 884 766 l 1,11,12
 932 754 932 754 975 727 c 128,-1,13
 1018 700 1018 700 1057 654 c 128,-1,14
 1096 608 1096 608 1113 531 c 128,-1,15
 1130 454 1130 454 1114 360 c 0,16,17
 1086 192 1086 192 962 78 c 128,-1,18
 838 -36 838 -36 656 -36 c 0,19,20
 504 -36 504 -36 378 8 c 1,21,-1
 404 92 l 1,22,23
 520 44 520 44 668 44 c 0,24,25
 794 44 794 44 896 132 c 128,-1,26
 998 220 998 220 1022 360 c 0,27,28
 1052 536 1052 536 964 626 c 128,-1,29
 876 716 876 716 732 716 c 2,30,-1
 616 716 l 1,31,-1
 630 796 l 1,32,-1
 734 796 l 2,33,34
 838 796 838 796 919 886 c 128,-1,35
 1000 976 1000 976 1022 1112 c 256,36,37
 1044 1248 1044 1248 975 1337 c 128,-1,38
 906 1426 906 1426 762 1426 c 0,39,40
 620 1426 620 1426 520 1345 c 128,-1,41
 420 1264 420 1264 398 1124 c 2,42,-1
 210 0 l 1,43,-1
 122 0 l 1,0,-1
EndSplineSet
EndChar

StartChar: ae
Encoding: 230 230 168
Width: 1754
GlyphClass: 2
Flags: W
LayerCount: 2
Fore
SplineSet
36 244 m 0,0,1
 60 384 60 384 171 473 c 128,-1,2
 282 562 282 562 508 598 c 0,3,4
 744 634 744 634 828 670 c 1,5,6
 830 680 830 680 832 700 c 128,-1,7
 834 720 834 720 834 726 c 0,8,9
 854 846 854 846 791 926 c 128,-1,10
 728 1006 728 1006 588 1006 c 0,11,12
 388 1006 388 1006 234 834 c 1,13,-1
 180 880 l 1,14,15
 258 968 258 968 369 1024 c 128,-1,16
 480 1080 480 1080 600 1080 c 0,17,18
 756 1080 756 1080 833 1005 c 128,-1,19
 910 930 910 930 912 810 c 1,20,21
 980 934 980 934 1089 1007 c 128,-1,22
 1198 1080 1198 1080 1326 1080 c 0,23,24
 1516 1080 1516 1080 1607 926 c 128,-1,25
 1698 772 1698 772 1662 556 c 2,26,-1
 1652 494 l 1,27,-1
 884 494 l 1,28,-1
 876 444 l 1,29,30
 862 276 862 276 934 158 c 128,-1,31
 1006 40 1006 40 1158 40 c 0,32,33
 1268 40 1268 40 1358 96 c 128,-1,34
 1448 152 1448 152 1506 236 c 1,35,-1
 1576 208 l 1,36,37
 1414 -36 1414 -36 1144 -36 c 0,38,39
 1000 -36 1000 -36 914 48 c 128,-1,40
 828 132 828 132 808 276 c 1,41,42
 744 140 744 140 616 52 c 128,-1,43
 488 -36 488 -36 330 -36 c 0,44,45
 174 -36 174 -36 95 41 c 128,-1,46
 16 118 16 118 36 244 c 0,0,1
124 250 m 0,47,48
 110 166 110 166 168 103 c 128,-1,49
 226 40 226 40 348 40 c 0,50,51
 500 40 500 40 628 143 c 128,-1,52
 756 246 756 246 782 408 c 2,53,-1
 814 596 l 1,54,55
 708 556 708 556 500 526 c 0,56,57
 324 500 324 500 233 431 c 128,-1,58
 142 362 142 362 124 250 c 0,47,48
896 566 m 1,59,-1
 1576 566 l 1,60,61
 1606 746 1606 746 1534 875 c 128,-1,62
 1462 1004 1462 1004 1312 1004 c 0,63,64
 1168 1004 1168 1004 1057 886 c 128,-1,65
 946 768 946 768 904 606 c 2,66,-1
 896 566 l 1,59,-1
EndSplineSet
EndChar

StartChar: eth
Encoding: 240 240 178
Width: 1062
GlyphClass: 2
Flags: W
LayerCount: 2
Fore
SplineSet
82 482 m 0,0,1
 122 720 122 720 264 857 c 128,-1,2
 406 994 406 994 602 994 c 0,3,4
 730 994 730 994 803 932 c 128,-1,5
 876 870 876 870 898 776 c 1,6,7
 906 1128 906 1128 756 1302 c 1,8,-1
 454 1096 l 1,9,-1
 412 1156 l 1,10,-1
 702 1354 l 1,11,12
 602 1432 602 1432 458 1456 c 1,13,-1
 496 1530 l 1,14,15
 668 1500 668 1500 782 1406 c 1,16,-1
 1000 1556 l 1,17,-1
 1040 1494 l 1,18,-1
 834 1354 l 1,19,20
 882 1300 882 1300 916 1232 c 0,21,22
 1032 986 1032 986 954 510 c 0,23,24
 914 272 914 272 777 118 c 128,-1,25
 640 -36 640 -36 430 -36 c 0,26,27
 224 -36 224 -36 135 112 c 128,-1,28
 46 260 46 260 82 482 c 0,0,1
172 486 m 0,29,30
 140 290 140 290 212 165 c 128,-1,31
 284 40 284 40 446 40 c 0,32,33
 602 40 602 40 713 162 c 128,-1,34
 824 284 824 284 858 490 c 0,35,36
 890 682 890 682 817 800 c 128,-1,37
 744 918 744 918 592 918 c 256,38,39
 440 918 440 918 323 806 c 128,-1,40
 206 694 206 694 172 486 c 0,29,30
EndSplineSet
EndChar

StartChar: divide
Encoding: 247 247 185
Width: 1092
GlyphClass: 2
Flags: W
LayerCount: 2
Fore
SplineSet
532 1006 m 1,0,-1
 560 1176 l 1,1,-1
 736 1176 l 1,2,-1
 706 1006 l 1,3,-1
 532 1006 l 1,0,-1
80 686 m 1,4,-1
 92 766 l 1,5,-1
 1066 766 l 1,6,-1
 1052 686 l 1,7,-1
 80 686 l 1,4,-1
412 278 m 1,8,-1
 440 448 l 1,9,-1
 614 448 l 1,10,-1
 586 278 l 1,11,-1
 412 278 l 1,8,-1
EndSplineSet
EndChar

StartChar: oslash
Encoding: 248 248 186
Width: 1060
GlyphClass: 2
Flags: W
LayerCount: 2
Fore
SplineSet
88 522 m 0,0,1
 128 764 128 764 270 922 c 128,-1,2
 412 1080 412 1080 616 1080 c 0,3,4
 744 1080 744 1080 824 1020 c 1,5,-1
 916 1164 l 1,6,-1
 992 1164 l 1,7,-1
 870 972 l 1,8,9
 1008 816 1008 816 960 522 c 0,10,11
 936 376 936 376 869 252 c 128,-1,12
 802 128 802 128 687 46 c 128,-1,13
 572 -36 572 -36 430 -36 c 0,14,15
 320 -36 320 -36 242 12 c 1,16,-1
 156 -128 l 1,17,-1
 78 -128 l 1,18,-1
 192 54 l 1,19,20
 116 126 116 126 90 252 c 128,-1,21
 64 378 64 378 88 522 c 0,0,1
816 890 m 1,22,-1
 294 86 l 1,23,24
 352 40 352 40 444 40 c 0,25,26
 598 40 598 40 717 175 c 128,-1,27
 836 310 836 310 870 522 c 0,28,29
 910 756 910 756 816 890 c 1,22,-1
774 942 m 1,30,31
 704 1004 704 1004 602 1004 c 0,32,33
 454 1004 454 1004 334 872 c 128,-1,34
 214 740 214 740 178 522 c 0,35,36
 136 272 136 272 246 134 c 1,37,-1
 774 942 l 1,30,31
EndSplineSet
EndChar

StartChar: thorn
Encoding: 254 254 192
Width: 1102
GlyphClass: 2
Flags: W
LayerCount: 2
Fore
SplineSet
258 526 m 0,0,1
 224 308 224 308 293 174 c 128,-1,2
 362 40 362 40 498 40 c 0,3,4
 646 40 646 40 761 170 c 128,-1,5
 876 300 876 300 914 524 c 0,6,7
 950 738 950 738 884 871 c 128,-1,8
 818 1004 818 1004 660 1004 c 0,9,10
 528 1004 528 1004 410 871 c 128,-1,11
 292 738 292 738 260 534 c 0,12,13
 258 530 258 530 258 526 c 0,0,1
6 -480 m 1,14,-1
 340 1532 l 1,15,-1
 426 1532 l 1,16,-1
 306 804 l 1,17,18
 360 926 360 926 467 1003 c 128,-1,19
 574 1080 574 1080 680 1080 c 0,20,21
 870 1080 870 1080 956 930 c 128,-1,22
 1042 780 1042 780 1000 524 c 0,23,24
 954 252 954 252 812 108 c 128,-1,25
 670 -36 670 -36 494 -36 c 0,26,27
 376 -36 376 -36 303 42 c 128,-1,28
 230 120 230 120 212 234 c 1,29,-1
 94 -480 l 1,30,-1
 6 -480 l 1,14,-1
EndSplineSet
EndChar

StartChar: dcroat
Encoding: 273 273 211
Width: 1106
GlyphClass: 2
Flags: W
LayerCount: 2
Fore
SplineSet
90 524 m 0,0,1
 134 786 134 786 272 933 c 128,-1,2
 410 1080 410 1080 594 1080 c 0,3,4
 716 1080 716 1080 790 1000 c 128,-1,5
 864 920 864 920 878 806 c 1,6,-1
 954 1272 l 1,7,-1
 522 1272 l 1,8,-1
 534 1344 l 1,9,-1
 966 1344 l 1,10,-1
 998 1532 l 1,11,-1
 1084 1532 l 1,12,-1
 1054 1344 l 1,13,-1
 1202 1344 l 1,14,-1
 1190 1272 l 1,15,-1
 1042 1272 l 1,16,-1
 830 0 l 1,17,-1
 746 0 l 1,18,-1
 784 230 l 1,19,20
 724 112 724 112 626 38 c 128,-1,21
 528 -36 528 -36 406 -36 c 0,22,23
 240 -36 240 -36 142 104 c 128,-1,24
 44 244 44 244 90 524 c 0,0,1
178 524 m 256,25,26
 142 306 142 306 211 173 c 128,-1,27
 280 40 280 40 430 40 c 0,28,29
 566 40 566 40 680 170 c 128,-1,30
 794 300 794 300 834 524 c 0,31,32
 834 528 834 528 834 532 c 0,33,34
 870 744 870 744 796 874 c 128,-1,35
 722 1004 722 1004 586 1004 c 0,36,37
 442 1004 442 1004 328 873 c 128,-1,38
 214 742 214 742 178 524 c 256,25,26
EndSplineSet
EndChar

StartChar: uni0123
Encoding: 291 291 229
Width: 1082
GlyphClass: 2
Flags: W
LayerCount: 2
Fore
SplineSet
562 1264 m 1,0,-1
 770 1610 l 1,1,-1
 836 1610 l 1,2,-1
 676 1264 l 1,3,-1
 562 1264 l 1,0,-1
180 542 m 0,4,5
 146 334 146 334 215 206 c 128,-1,6
 284 78 284 78 422 78 c 0,7,8
 572 78 572 78 677 201 c 128,-1,9
 782 324 782 324 820 544 c 0,10,11
 854 752 854 752 787 878 c 128,-1,12
 720 1004 720 1004 576 1004 c 0,13,14
 430 1004 430 1004 322 875 c 128,-1,15
 214 746 214 746 180 542 c 0,4,5
92 542 m 0,16,17
 132 782 132 782 267 931 c 128,-1,18
 402 1080 402 1080 584 1080 c 0,19,20
 714 1080 714 1080 780 1004 c 128,-1,21
 846 928 846 928 866 824 c 1,22,-1
 902 1046 l 1,23,-1
 988 1046 l 1,24,-1
 830 92 l 2,25,26
 780 -204 780 -204 664 -346 c 128,-1,27
 548 -488 548 -488 332 -488 c 0,28,29
 230 -488 230 -488 144 -441 c 128,-1,30
 58 -394 58 -394 16 -312 c 1,31,-1
 86 -268 l 1,32,33
 178 -410 178 -410 348 -410 c 0,34,35
 516 -410 516 -410 608 -290 c 128,-1,36
 700 -170 700 -170 740 60 c 2,37,-1
 770 250 l 1,38,39
 714 140 714 140 622 70 c 128,-1,40
 530 0 530 0 406 0 c 0,41,42
 224 0 224 0 138 152 c 128,-1,43
 52 304 52 304 92 542 c 0,16,17
EndSplineSet
EndChar

StartChar: Hbar
Encoding: 294 294 232
Width: 1446
GlyphClass: 2
Flags: W
LayerCount: 2
Fore
SplineSet
146 1158 m 1,0,-1
 160 1236 l 1,1,-1
 340 1236 l 1,2,-1
 378 1470 l 1,3,-1
 470 1470 l 1,4,-1
 432 1236 l 1,5,-1
 1236 1236 l 1,6,-1
 1274 1470 l 1,7,-1
 1368 1470 l 1,8,-1
 1330 1236 l 1,9,-1
 1510 1236 l 1,10,-1
 1498 1158 l 1,11,-1
 1316 1158 l 1,12,-1
 1126 0 l 1,13,-1
 1032 0 l 1,14,-1
 1150 720 l 1,15,-1
 346 720 l 1,16,-1
 228 0 l 1,17,-1
 136 0 l 1,18,-1
 328 1158 l 1,19,-1
 146 1158 l 1,0,-1
1222 1158 m 1,20,-1
 420 1158 l 1,21,-1
 360 800 l 1,22,-1
 1164 800 l 1,23,-1
 1222 1158 l 1,20,-1
EndSplineSet
EndChar

StartChar: hbar
Encoding: 295 295 233
Width: 1088
GlyphClass: 2
Flags: W
LayerCount: 2
Fore
SplineSet
156 1286 m 1,0,-1
 168 1360 l 1,1,-1
 314 1360 l 1,2,-1
 342 1532 l 1,3,-1
 430 1532 l 1,4,-1
 402 1360 l 1,5,-1
 816 1360 l 1,6,-1
 804 1286 l 1,7,-1
 390 1286 l 1,8,-1
 314 832 l 1,9,10
 362 922 362 922 468 995 c 128,-1,11
 574 1068 574 1068 698 1068 c 0,12,13
 754 1068 754 1068 800 1052 c 128,-1,14
 846 1036 846 1036 890 996 c 128,-1,15
 934 956 934 956 951 871 c 128,-1,16
 968 786 968 786 948 664 c 2,17,-1
 838 0 l 1,18,-1
 750 0 l 1,19,-1
 858 646 l 2,20,21
 914 990 914 990 668 990 c 0,22,23
 540 990 540 990 422 878 c 128,-1,24
 304 766 304 766 280 622 c 2,25,-1
 178 0 l 1,26,-1
 88 0 l 1,27,-1
 302 1286 l 1,28,-1
 156 1286 l 1,0,-1
EndSplineSet
EndChar

StartChar: dotlessi
Encoding: 305 305 243
Width: 436
GlyphClass: 2
Flags: W
LayerCount: 2
Fore
SplineSet
80 0 m 1,0,-1
 254 1046 l 1,1,-1
 342 1046 l 1,2,-1
 170 0 l 1,3,-1
 80 0 l 1,0,-1
EndSplineSet
EndChar

StartChar: kgreenlandic
Encoding: 312 312 250
Width: 934
GlyphClass: 2
Flags: W
LayerCount: 2
Fore
SplineSet
82 0 m 1,0,-1
 256 1046 l 1,1,-1
 344 1046 l 1,2,-1
 260 534 l 1,3,-1
 264 534 l 1,4,-1
 876 1046 l 1,5,-1
 992 1046 l 1,6,-1
 386 536 l 1,7,-1
 844 0 l 1,8,-1
 732 0 l 1,9,-1
 316 474 l 1,10,-1
 238 406 l 1,11,-1
 170 0 l 1,12,-1
 82 0 l 1,0,-1
EndSplineSet
EndChar

StartChar: Lslash
Encoding: 321 321 259
Width: 1054
GlyphClass: 2
Flags: W
LayerCount: 2
Fore
SplineSet
352 708 m 1,0,-1
 248 82 l 1,1,-1
 956 82 l 1,2,-1
 944 0 l 1,3,-1
 142 0 l 1,4,-1
 248 644 l 1,5,-1
 0 488 l 1,6,-1
 -34 556 l 1,7,-1
 264 744 l 1,8,-1
 386 1470 l 1,9,-1
 478 1470 l 1,10,-1
 368 806 l 1,11,-1
 602 952 l 1,12,-1
 636 886 l 1,13,-1
 352 708 l 1,0,-1
EndSplineSet
EndChar

StartChar: lslash
Encoding: 322 322 260
Width: 476
GlyphClass: 2
Flags: W
LayerCount: 2
Fore
SplineSet
312 740 m 1,0,-1
 188 0 l 1,1,-1
 100 0 l 1,2,-1
 212 678 l 1,3,-1
 -18 530 l 1,4,-1
 -50 598 l 1,5,-1
 230 778 l 1,6,-1
 354 1532 l 1,7,-1
 442 1532 l 1,8,-1
 328 840 l 1,9,-1
 556 984 l 1,10,-1
 588 918 l 1,11,-1
 312 740 l 1,0,-1
EndSplineSet
EndChar

StartChar: Eng
Encoding: 330 330 268
Width: 1436
GlyphClass: 2
Flags: W
LayerCount: 2
Fore
SplineSet
122 0 m 1,0,-1
 366 1470 l 1,1,-1
 476 1470 l 1,2,-1
 1062 142 l 1,3,-1
 1072 142 l 1,4,5
 1086 306 1086 306 1116 500 c 2,6,-1
 1278 1470 l 1,7,-1
 1372 1470 l 1,8,-1
 1128 0 l 2,9,10
 1088 -236 1088 -236 983 -362 c 128,-1,11
 878 -488 878 -488 678 -488 c 0,12,13
 578 -488 578 -488 486 -476 c 1,14,-1
 500 -394 l 1,15,16
 584 -406 584 -406 678 -406 c 0,17,18
 828 -406 828 -406 907 -312 c 128,-1,19
 986 -218 986 -218 1024 0 c 1,20,-1
 522 1126 l 1,21,-1
 432 1338 l 1,22,-1
 424 1338 l 1,23,24
 404 1152 404 1152 374 966 c 2,25,-1
 214 0 l 1,26,-1
 122 0 l 1,0,-1
EndSplineSet
EndChar

StartChar: eng
Encoding: 331 331 269
Width: 1074
GlyphClass: 2
Flags: W
LayerCount: 2
Fore
SplineSet
76 0 m 1,0,-1
 248 1046 l 1,1,-1
 332 1046 l 1,2,-1
 296 830 l 1,3,-1
 300 830 l 1,4,5
 330 914 330 914 440 997 c 128,-1,6
 550 1080 550 1080 686 1080 c 0,7,8
 746 1080 746 1080 794 1064 c 128,-1,9
 842 1048 842 1048 884 1006 c 128,-1,10
 926 964 926 964 940 881 c 128,-1,11
 954 798 954 798 934 676 c 2,12,-1
 822 0 l 2,13,14
 780 -258 780 -258 680 -373 c 128,-1,15
 580 -488 580 -488 418 -488 c 0,16,17
 380 -488 380 -488 244 -468 c 1,18,-1
 256 -392 l 1,19,20
 368 -408 368 -408 422 -408 c 0,21,22
 554 -408 554 -408 627 -311 c 128,-1,23
 700 -214 700 -214 734 -8 c 2,24,-1
 844 658 l 2,25,26
 902 1004 902 1004 656 1004 c 0,27,28
 528 1004 528 1004 409 893 c 128,-1,29
 290 782 290 782 266 636 c 2,30,-1
 160 0 l 1,31,-1
 76 0 l 1,0,-1
EndSplineSet
EndChar

StartChar: OE
Encoding: 338 338 276
Width: 1810
GlyphClass: 2
Flags: W
LayerCount: 2
Fore
SplineSet
138 736 m 256,0,1
 196 1092 196 1092 399 1300 c 128,-1,2
 602 1508 602 1508 872 1508 c 0,3,4
 982 1508 982 1508 1072 1470 c 1,5,-1
 1874 1470 l 1,6,-1
 1860 1388 l 1,7,-1
 1146 1388 l 1,8,-1
 1050 804 l 1,9,-1
 1688 804 l 1,10,-1
 1676 724 l 1,11,-1
 1036 724 l 1,12,-1
 930 82 l 1,13,-1
 1654 82 l 1,14,-1
 1640 0 l 1,15,-1
 834 0 l 1,16,17
 738 -36 738 -36 616 -36 c 0,18,19
 346 -36 346 -36 213 172 c 128,-1,20
 80 380 80 380 138 736 c 256,0,1
234 736 m 0,21,22
 182 418 182 418 294 231 c 128,-1,23
 406 44 406 44 630 44 c 0,24,25
 746 44 746 44 838 90 c 1,26,-1
 1050 1376 l 1,27,28
 976 1426 976 1426 858 1426 c 0,29,30
 626 1426 626 1426 456 1237 c 128,-1,31
 286 1048 286 1048 234 736 c 0,21,22
EndSplineSet
EndChar

StartChar: uni0163
Encoding: 355 355 293
Width: 656
GlyphClass: 2
Flags: W
LayerCount: 2
Fore
SplineSet
116 966 m 1,0,-1
 128 1046 l 1,1,-1
 314 1046 l 1,2,-1
 372 1398 l 1,3,-1
 462 1398 l 1,4,-1
 402 1046 l 1,5,-1
 656 1046 l 1,6,-1
 642 966 l 1,7,-1
 390 966 l 1,8,-1
 278 288 l 2,9,10
 260 178 260 178 292 129 c 128,-1,11
 324 80 324 80 418 80 c 2,12,-1
 498 80 l 1,13,-1
 484 0 l 1,14,-1
 394 0 l 2,15,16
 378 0 378 0 366 0 c 1,17,-1
 328 -96 l 1,18,19
 416 -106 416 -106 457 -154 c 128,-1,20
 498 -202 498 -202 486 -272 c 0,21,22
 474 -344 474 -344 412 -393 c 128,-1,23
 350 -442 350 -442 244 -442 c 0,24,25
 164 -442 164 -442 92 -420 c 1,26,-1
 104 -354 l 1,27,28
 180 -378 180 -378 256 -378 c 0,29,30
 318 -378 318 -378 362 -348 c 128,-1,31
 406 -318 406 -318 414 -268 c 0,32,33
 432 -154 432 -154 228 -140 c 1,34,-1
 292 16 l 1,35,36
 154 66 154 66 186 274 c 2,37,-1
 302 966 l 1,38,-1
 116 966 l 1,0,-1
EndSplineSet
Substitution2: "'locl' Localized Forms in Latin lookup 3 subtable" uni021B
Substitution2: "'locl' Localized Forms in Latin lookup 2 subtable" uni021B
Substitution2: "'aalt' Access All Alternates lookup 0 subtable" uni021B
EndChar

StartChar: tbar
Encoding: 359 359 297
Width: 672
GlyphClass: 2
Flags: W
LayerCount: 2
Fore
SplineSet
116 966 m 1,0,-1
 130 1046 l 1,1,-1
 316 1046 l 1,2,-1
 374 1398 l 1,3,-1
 462 1398 l 1,4,-1
 404 1046 l 1,5,-1
 672 1046 l 1,6,-1
 658 966 l 1,7,-1
 390 966 l 1,8,-1
 344 692 l 1,9,-1
 622 692 l 1,10,-1
 610 616 l 1,11,-1
 332 616 l 1,12,-1
 278 288 l 2,13,14
 260 178 260 178 293 129 c 128,-1,15
 326 80 326 80 418 80 c 2,16,-1
 514 80 l 1,17,-1
 500 0 l 1,18,-1
 396 0 l 2,19,20
 142 0 142 0 188 274 c 2,21,-1
 244 616 l 1,22,-1
 40 616 l 1,23,-1
 54 692 l 1,24,-1
 256 692 l 1,25,-1
 302 966 l 1,26,-1
 116 966 l 1,0,-1
EndSplineSet
EndChar

StartChar: longs
Encoding: 383 383 321
Width: 562
GlyphClass: 2
Flags: W
LayerCount: 2
Fore
SplineSet
86 0 m 1,0,-1
 286 1202 l 2,1,2
 312 1354 312 1354 394 1425 c 128,-1,3
 476 1496 476 1496 600 1496 c 2,4,-1
 690 1496 l 1,5,-1
 678 1420 l 1,6,-1
 596 1420 l 2,7,8
 410 1420 410 1420 372 1188 c 2,9,-1
 174 0 l 1,10,-1
 86 0 l 1,0,-1
EndSplineSet
EndChar

StartChar: uni0180
Encoding: 384 384 322
Width: 1106
GlyphClass: 2
Flags: W
LayerCount: 2
Fore
SplineSet
260 524 m 0,0,1
 222 300 222 300 296 170 c 128,-1,2
 370 40 370 40 504 40 c 0,3,4
 652 40 652 40 766 171 c 128,-1,5
 880 302 880 302 918 524 c 0,6,7
 954 744 954 744 884 874 c 128,-1,8
 814 1004 814 1004 666 1004 c 0,9,10
 534 1004 534 1004 415 875 c 128,-1,11
 296 746 296 746 260 524 c 0,0,1
162 1288 m 1,12,-1
 174 1360 l 1,13,-1
 314 1360 l 1,14,-1
 342 1532 l 1,15,-1
 430 1532 l 1,16,-1
 402 1360 l 1,17,-1
 816 1360 l 1,18,-1
 804 1288 l 1,19,-1
 390 1288 l 1,20,-1
 310 802 l 1,21,22
 350 906 350 906 454 993 c 128,-1,23
 558 1080 558 1080 688 1080 c 0,24,25
 874 1080 874 1080 960 930 c 128,-1,26
 1046 780 1046 780 1004 524 c 0,27,28
 958 244 958 244 813 104 c 128,-1,29
 668 -36 668 -36 500 -36 c 0,30,31
 380 -36 380 -36 307 40 c 128,-1,32
 234 116 234 116 214 228 c 1,33,-1
 176 0 l 1,34,-1
 88 0 l 1,35,-1
 302 1288 l 1,36,-1
 162 1288 l 1,12,-1
EndSplineSet
EndChar

StartChar: uni0182
Encoding: 386 386 324
Width: 1278
GlyphClass: 2
Flags: W
LayerCount: 2
Fore
SplineSet
228 82 m 1,0,-1
 660 82 l 2,1,2
 818 82 818 82 925 163 c 128,-1,3
 1032 244 1032 244 1058 400 c 0,4,5
 1082 550 1082 550 1001 639 c 128,-1,6
 920 728 920 728 750 728 c 2,7,-1
 336 728 l 1,8,-1
 228 82 l 1,0,-1
122 0 m 1,9,-1
 366 1470 l 1,10,-1
 1166 1470 l 1,11,-1
 1152 1388 l 1,12,-1
 444 1388 l 1,13,-1
 348 810 l 1,14,-1
 780 810 l 2,15,16
 984 810 984 810 1084 698 c 128,-1,17
 1184 586 1184 586 1154 400 c 0,18,19
 1124 220 1124 220 993 110 c 128,-1,20
 862 0 862 0 668 0 c 2,21,-1
 122 0 l 1,9,-1
EndSplineSet
EndChar

StartChar: uni0183
Encoding: 387 387 325
Width: 1100
GlyphClass: 2
Flags: W
LayerCount: 2
Fore
SplineSet
254 524 m 0,0,1
 216 300 216 300 290 170 c 128,-1,2
 364 40 364 40 498 40 c 0,3,4
 646 40 646 40 760 171 c 128,-1,5
 874 302 874 302 912 524 c 0,6,7
 948 744 948 744 877 874 c 128,-1,8
 806 1004 806 1004 660 1004 c 0,9,10
 528 1004 528 1004 409 875 c 128,-1,11
 290 746 290 746 254 524 c 0,0,1
82 0 m 1,12,-1
 336 1532 l 1,13,-1
 974 1532 l 1,14,-1
 960 1454 l 1,15,-1
 412 1454 l 1,16,-1
 304 802 l 1,17,18
 344 902 344 902 448 991 c 128,-1,19
 552 1080 552 1080 682 1080 c 0,20,21
 866 1080 866 1080 953 930 c 128,-1,22
 1040 780 1040 780 998 524 c 0,23,24
 952 244 952 244 807 104 c 128,-1,25
 662 -36 662 -36 496 -36 c 0,26,27
 376 -36 376 -36 301 41 c 128,-1,28
 226 118 226 118 208 228 c 1,29,-1
 170 0 l 1,30,-1
 82 0 l 1,12,-1
EndSplineSet
EndChar

StartChar: uni0184
Encoding: 388 388 326
Width: 1296
GlyphClass: 2
Flags: W
LayerCount: 2
Fore
SplineSet
218 1368 m 1,0,-1
 404 1470 l 1,1,-1
 468 1470 l 1,2,-1
 358 800 l 1,3,-1
 794 800 l 2,4,5
 994 800 994 800 1096 684 c 128,-1,6
 1198 568 1198 568 1172 400 c 0,7,8
 1144 236 1144 236 1015 118 c 128,-1,9
 886 0 886 0 690 0 c 2,10,-1
 132 0 l 1,11,-1
 340 1258 l 1,12,-1
 218 1368 l 1,0,-1
238 82 m 1,13,-1
 678 82 l 2,14,15
 828 82 828 82 939 166 c 128,-1,16
 1050 250 1050 250 1074 398 c 0,17,18
 1096 534 1096 534 1015 627 c 128,-1,19
 934 720 934 720 778 720 c 2,20,-1
 344 720 l 1,21,-1
 238 82 l 1,13,-1
EndSplineSet
EndChar

StartChar: uni0185
Encoding: 389 389 327
Width: 1106
GlyphClass: 2
Flags: W
LayerCount: 2
Fore
SplineSet
192 1420 m 1,0,-1
 380 1532 l 1,1,-1
 430 1532 l 1,2,-1
 310 802 l 1,3,4
 364 926 364 926 473 1003 c 128,-1,5
 582 1080 582 1080 688 1080 c 0,6,7
 872 1080 872 1080 959 930 c 128,-1,8
 1046 780 1046 780 1004 524 c 0,9,10
 958 246 958 246 813 105 c 128,-1,11
 668 -36 668 -36 500 -36 c 0,12,13
 378 -36 378 -36 307 40 c 128,-1,14
 236 116 236 116 214 230 c 1,15,-1
 176 0 l 1,16,-1
 88 0 l 1,17,-1
 304 1310 l 1,18,-1
 192 1420 l 1,0,-1
260 524 m 256,19,20
 224 302 224 302 296 171 c 128,-1,21
 368 40 368 40 504 40 c 0,22,23
 652 40 652 40 766 172 c 128,-1,24
 880 304 880 304 916 524 c 0,25,26
 952 742 952 742 882 873 c 128,-1,27
 812 1004 812 1004 666 1004 c 0,28,29
 534 1004 534 1004 415 875 c 128,-1,30
 296 746 296 746 260 524 c 256,19,20
EndSplineSet
EndChar

StartChar: uni0186
Encoding: 390 390 328
Width: 1238
GlyphClass: 2
Flags: W
LayerCount: 2
Fore
SplineSet
14 282 m 1,0,-1
 104 310 l 1,1,2
 138 196 138 196 226 120 c 128,-1,3
 314 44 314 44 452 44 c 0,4,5
 672 44 672 44 841 230 c 128,-1,6
 1010 416 1010 416 1064 736 c 0,7,8
 1116 1050 1116 1050 1011 1238 c 128,-1,9
 906 1426 906 1426 680 1426 c 0,10,11
 548 1426 548 1426 447 1353 c 128,-1,12
 346 1280 346 1280 282 1176 c 1,13,-1
 208 1210 l 1,14,15
 278 1328 278 1328 403 1418 c 128,-1,16
 528 1508 528 1508 692 1508 c 0,17,18
 958 1508 958 1508 1088 1303 c 128,-1,19
 1218 1098 1218 1098 1158 736 c 0,20,21
 1098 376 1098 376 900 170 c 128,-1,22
 702 -36 702 -36 436 -36 c 0,23,24
 110 -36 110 -36 14 282 c 1,0,-1
EndSplineSet
EndChar

StartChar: uni018B
Encoding: 395 395 333
Width: 1278
GlyphClass: 2
Flags: W
LayerCount: 2
Fore
SplineSet
166 400 m 0,0,1
 140 246 140 246 222 164 c 128,-1,2
 304 82 304 82 462 82 c 2,3,-1
 888 82 l 1,4,-1
 996 728 l 1,5,-1
 592 728 l 2,6,7
 424 728 424 728 307 639 c 128,-1,8
 190 550 190 550 166 400 c 0,0,1
70 400 m 0,9,10
 100 584 100 584 241 697 c 128,-1,11
 382 810 382 810 588 810 c 2,12,-1
 1008 810 l 1,13,-1
 1104 1388 l 1,14,-1
 400 1388 l 1,15,-1
 414 1470 l 1,16,-1
 1212 1470 l 1,17,-1
 968 0 l 1,18,-1
 430 0 l 2,19,20
 236 0 236 0 138 110 c 128,-1,21
 40 220 40 220 70 400 c 0,9,10
EndSplineSet
EndChar

StartChar: uni018C
Encoding: 396 396 334
Width: 1100
GlyphClass: 2
Flags: W
LayerCount: 2
Fore
SplineSet
178 524 m 256,0,1
 142 304 142 304 210 172 c 128,-1,2
 278 40 278 40 428 40 c 0,3,4
 564 40 564 40 680 170 c 128,-1,5
 796 300 796 300 834 524 c 0,6,7
 870 746 870 746 795 875 c 128,-1,8
 720 1004 720 1004 586 1004 c 0,9,10
 440 1004 440 1004 327 874 c 128,-1,11
 214 744 214 744 178 524 c 256,0,1
90 524 m 0,12,13
 132 782 132 782 271 931 c 128,-1,14
 410 1080 410 1080 594 1080 c 0,15,16
 720 1080 720 1080 793 996 c 128,-1,17
 866 912 866 912 878 806 c 1,18,-1
 986 1454 l 1,19,-1
 428 1454 l 1,20,-1
 442 1532 l 1,21,-1
 1084 1532 l 1,22,-1
 830 0 l 1,23,-1
 746 0 l 1,24,-1
 784 230 l 1,25,26
 730 118 730 118 629 41 c 128,-1,27
 528 -36 528 -36 404 -36 c 0,28,29
 238 -36 238 -36 141 104 c 128,-1,30
 44 244 44 244 90 524 c 0,12,13
EndSplineSet
EndChar

StartChar: uni018D
Encoding: 397 397 335
Width: 1166
GlyphClass: 2
Flags: W
LayerCount: 2
Fore
SplineSet
196 634 m 0,0,1
 150 360 150 360 524 170 c 1,2,3
 708 246 708 246 839 374 c 128,-1,4
 970 502 970 502 992 636 c 0,5,6
 1016 786 1016 786 934 895 c 128,-1,7
 852 1004 852 1004 664 1004 c 0,8,9
 488 1004 488 1004 356 904 c 128,-1,10
 224 804 224 804 196 634 c 0,0,1
106 628 m 0,11,12
 140 838 140 838 297 959 c 128,-1,13
 454 1080 454 1080 678 1080 c 0,14,15
 898 1080 898 1080 1006 956 c 128,-1,16
 1114 832 1114 832 1082 640 c 0,17,18
 1058 498 1058 498 926 355 c 128,-1,19
 794 212 794 212 594 124 c 1,20,21
 830 -26 830 -26 804 -186 c 0,22,23
 784 -312 784 -312 673 -395 c 128,-1,24
 562 -478 562 -478 396 -478 c 0,25,26
 136 -478 136 -478 34 -264 c 1,27,-1
 108 -218 l 1,28,29
 200 -400 200 -400 408 -400 c 0,30,31
 522 -400 522 -400 612 -342 c 128,-1,32
 702 -284 702 -284 718 -188 c 0,33,34
 728 -128 728 -128 682 -68 c 128,-1,35
 636 -8 636 -8 579 32 c 128,-1,36
 522 72 522 72 418 128 c 0,37,38
 56 328 56 328 106 628 c 0,11,12
EndSplineSet
EndChar

StartChar: uni018E
Encoding: 398 398 336
Width: 1188
GlyphClass: 2
Flags: W
LayerCount: 2
Fore
SplineSet
-18 0 m 1,0,-1
 -4 82 l 1,1,-1
 800 82 l 1,2,-1
 906 722 l 1,3,-1
 200 722 l 1,4,-1
 214 804 l 1,5,-1
 920 804 l 1,6,-1
 1016 1388 l 1,7,-1
 238 1388 l 1,8,-1
 252 1470 l 1,9,-1
 1124 1470 l 1,10,-1
 880 0 l 1,11,-1
 -18 0 l 1,0,-1
EndSplineSet
EndChar

StartChar: uni018F
Encoding: 399 399 337
Width: 1342
GlyphClass: 2
Flags: W
LayerCount: 2
Fore
SplineSet
222 686 m 1,0,1
 220 674 220 674 218 656 c 128,-1,2
 216 638 216 638 214 630 c 0,3,4
 198 524 198 524 203 430 c 128,-1,5
 208 336 208 336 240 244 c 128,-1,6
 272 152 272 152 356 98 c 128,-1,7
 440 44 440 44 568 44 c 0,8,9
 650 44 650 44 736 77 c 128,-1,10
 822 110 822 110 908 180 c 128,-1,11
 994 250 994 250 1063 381 c 128,-1,12
 1132 512 1132 512 1160 686 c 1,13,-1
 222 686 l 1,0,1
120 656 m 2,14,-1
 138 766 l 1,15,-1
 1172 766 l 1,16,17
 1192 910 1192 910 1183 1027 c 128,-1,18
 1174 1144 1174 1144 1130 1235 c 128,-1,19
 1086 1326 1086 1326 999 1376 c 128,-1,20
 912 1426 912 1426 784 1426 c 0,21,22
 518 1426 518 1426 334 1178 c 1,23,-1
 260 1214 l 1,24,25
 346 1348 346 1348 489 1428 c 128,-1,26
 632 1508 632 1508 800 1508 c 0,27,28
 1002 1508 1002 1508 1121 1404 c 128,-1,29
 1240 1300 1240 1300 1271 1130 c 128,-1,30
 1302 960 1302 960 1264 732 c 0,31,32
 1202 356 1202 356 1006 160 c 128,-1,33
 810 -36 810 -36 552 -36 c 0,34,35
 404 -36 404 -36 305 25 c 128,-1,36
 206 86 206 86 162 189 c 128,-1,37
 118 292 118 292 108 409 c 128,-1,38
 98 526 98 526 120 656 c 2,14,-1
EndSplineSet
EndChar

StartChar: uni0190
Encoding: 400 400 338
Width: 1162
GlyphClass: 2
Flags: W
LayerCount: 2
Fore
SplineSet
80 400 m 0,0,1
 106 560 106 560 224 658 c 128,-1,2
 342 756 342 756 474 784 c 1,3,4
 372 820 372 820 305 913 c 128,-1,5
 238 1006 238 1006 262 1144 c 0,6,7
 288 1298 288 1298 423 1403 c 128,-1,8
 558 1508 558 1508 760 1508 c 0,9,10
 1060 1508 1060 1508 1154 1230 c 1,11,-1
 1066 1198 l 1,12,13
 982 1428 982 1428 752 1428 c 0,14,15
 604 1428 604 1428 491 1346 c 128,-1,16
 378 1264 378 1264 356 1136 c 0,17,18
 332 988 332 988 429 903 c 128,-1,19
 526 818 526 818 678 818 c 0,20,21
 764 818 764 818 782 820 c 1,22,-1
 768 738 l 1,23,24
 748 740 748 740 658 740 c 0,25,26
 552 740 552 740 453 707 c 128,-1,27
 354 674 354 674 274 595 c 128,-1,28
 194 516 194 516 176 402 c 0,29,30
 146 226 146 226 254 134 c 128,-1,31
 362 42 362 42 530 42 c 0,32,33
 644 42 644 42 763 103 c 128,-1,34
 882 164 882 164 958 254 c 1,35,-1
 1028 218 l 1,36,37
 944 104 944 104 805 34 c 128,-1,38
 666 -36 666 -36 516 -36 c 0,39,40
 302 -36 302 -36 174 78 c 128,-1,41
 46 192 46 192 80 400 c 0,0,1
EndSplineSet
EndChar

StartChar: uni0191
Encoding: 401 401 339
Width: 1138
GlyphClass: 2
Flags: W
LayerCount: 2
Fore
SplineSet
-212 -400 m 1,0,1
 -140 -406 -140 -406 -118 -406 c 0,2,3
 -12 -406 -12 -406 44 -333 c 128,-1,4
 100 -260 100 -260 124 -114 c 2,5,-1
 386 1470 l 1,6,-1
 1226 1470 l 1,7,-1
 1212 1388 l 1,8,-1
 466 1388 l 1,9,-1
 364 782 l 1,10,-1
 1038 782 l 1,11,-1
 1024 704 l 1,12,-1
 352 704 l 1,13,-1
 216 -114 l 2,14,15
 154 -488 154 -488 -118 -488 c 0,16,17
 -166 -488 -166 -488 -224 -480 c 1,18,-1
 -212 -400 l 1,0,1
EndSplineSet
EndChar

StartChar: florin
Encoding: 402 402 340
Width: 624
GlyphClass: 2
Flags: W
LayerCount: 2
Fore
SplineSet
-214 -400 m 1,0,1
 -152 -408 -152 -408 -124 -408 c 0,2,3
 78 -408 78 -408 128 -96 c 2,4,-1
 304 966 l 1,5,-1
 120 966 l 1,6,-1
 132 1046 l 1,7,-1
 318 1046 l 1,8,-1
 350 1240 l 2,9,10
 374 1390 374 1390 457 1461 c 128,-1,11
 540 1532 540 1532 662 1532 c 2,12,-1
 764 1532 l 1,13,-1
 750 1454 l 1,14,-1
 658 1454 l 2,15,16
 472 1454 472 1454 434 1226 c 2,17,-1
 404 1046 l 1,18,-1
 656 1046 l 1,19,-1
 644 966 l 1,20,-1
 390 966 l 1,21,-1
 214 -100 l 2,22,23
 150 -488 150 -488 -126 -488 c 0,24,25
 -150 -488 -150 -488 -188 -484 c 128,-1,26
 -226 -480 -226 -480 -228 -480 c 1,27,-1
 -214 -400 l 1,0,1
EndSplineSet
EndChar

StartChar: uni0194
Encoding: 404 404 342
Width: 1154
GlyphClass: 2
Flags: W
LayerCount: 2
Fore
SplineSet
144 1470 m 1,0,-1
 250 1470 l 1,1,-1
 516 306 l 1,2,-1
 528 240 l 1,3,-1
 530 240 l 1,4,-1
 560 306 l 1,5,-1
 1206 1470 l 1,6,-1
 1312 1470 l 1,7,-1
 592 188 l 1,8,9
 666 64 666 64 696 -23 c 128,-1,10
 726 -110 726 -110 708 -210 c 0,11,12
 690 -324 690 -324 606 -406 c 128,-1,13
 522 -488 522 -488 410 -488 c 256,14,15
 298 -488 298 -488 239 -412 c 128,-1,16
 180 -336 180 -336 200 -210 c 0,17,18
 216 -116 216 -116 279 -22 c 128,-1,19
 342 72 342 72 446 188 c 1,20,-1
 144 1470 l 1,0,-1
296 -208 m 0,21,22
 282 -294 282 -294 316 -351 c 128,-1,23
 350 -408 350 -408 422 -408 c 0,24,25
 492 -408 492 -408 548 -348 c 128,-1,26
 604 -288 604 -288 616 -208 c 0,27,28
 638 -72 638 -72 510 130 c 1,29,30
 320 -66 320 -66 296 -208 c 0,21,22
EndSplineSet
EndChar

StartChar: uni0195
Encoding: 405 405 343
Width: 1718
GlyphClass: 2
Flags: W
LayerCount: 2
Fore
SplineSet
82 0 m 1,0,-1
 336 1532 l 1,1,-1
 424 1532 l 1,2,-1
 310 846 l 1,3,-1
 312 844 l 1,4,5
 368 942 368 942 472 1011 c 128,-1,6
 576 1080 576 1080 694 1080 c 0,7,8
 752 1080 752 1080 800 1064 c 128,-1,9
 848 1048 848 1048 891 1008 c 128,-1,10
 934 968 934 968 949 884 c 128,-1,11
 964 800 964 800 944 676 c 2,12,-1
 884 322 l 2,13,14
 862 192 862 192 917 116 c 128,-1,15
 972 40 972 40 1106 40 c 0,16,17
 1390 40 1390 40 1438 334 c 2,18,-1
 1556 1046 l 1,19,-1
 1642 1046 l 1,20,-1
 1524 328 l 2,21,22
 1494 150 1494 150 1386 57 c 128,-1,23
 1278 -36 1278 -36 1094 -36 c 0,24,25
 944 -36 944 -36 857 44 c 128,-1,26
 770 124 770 124 800 306 c 2,27,-1
 858 658 l 2,28,29
 916 1004 916 1004 666 1004 c 0,30,31
 538 1004 538 1004 419 892 c 128,-1,32
 300 780 300 780 276 638 c 0,33,34
 276 634 276 634 276 632 c 2,35,-1
 170 0 l 1,36,-1
 82 0 l 1,0,-1
EndSplineSet
EndChar

StartChar: uni0196
Encoding: 406 406 344
Width: 640
GlyphClass: 2
Flags: W
LayerCount: 2
Fore
SplineSet
164 312 m 2,0,-1
 356 1470 l 1,1,-1
 450 1470 l 1,2,-1
 258 316 l 2,3,4
 234 176 234 176 267 110 c 128,-1,5
 300 44 300 44 394 44 c 0,6,7
 462 44 462 44 528 54 c 1,8,-1
 516 -26 l 1,9,10
 420 -36 420 -36 368 -36 c 0,11,12
 106 -36 106 -36 164 312 c 2,0,-1
EndSplineSet
EndChar

StartChar: uni0197
Encoding: 407 407 345
Width: 546
GlyphClass: 2
Flags: W
LayerCount: 2
Fore
SplineSet
94 716 m 1,0,-1
 106 792 l 1,1,-1
 266 792 l 1,2,-1
 378 1470 l 1,3,-1
 470 1470 l 1,4,-1
 358 792 l 1,5,-1
 520 792 l 1,6,-1
 508 716 l 1,7,-1
 344 716 l 1,8,-1
 226 0 l 1,9,-1
 134 0 l 1,10,-1
 252 716 l 1,11,-1
 94 716 l 1,0,-1
EndSplineSet
EndChar

StartChar: uni0198
Encoding: 408 408 346
Width: 1232
GlyphClass: 2
Flags: W
LayerCount: 2
Fore
SplineSet
122 0 m 1,0,-1
 366 1470 l 1,1,-1
 458 1470 l 1,2,-1
 316 606 l 1,3,-1
 318 606 l 1,4,-1
 1134 1410 l 2,5,6
 1234 1508 1234 1508 1364 1508 c 0,7,8
 1412 1508 1412 1508 1474 1496 c 1,9,-1
 1460 1412 l 1,10,11
 1388 1428 1388 1428 1354 1428 c 0,12,13
 1278 1428 1278 1428 1212 1364 c 2,14,-1
 678 840 l 1,15,-1
 1122 0 l 1,16,-1
 1000 0 l 1,17,-1
 602 768 l 1,18,-1
 292 466 l 1,19,-1
 214 0 l 1,20,-1
 122 0 l 1,0,-1
EndSplineSet
EndChar

StartChar: uni0199
Encoding: 409 409 347
Width: 936
GlyphClass: 2
Flags: W
LayerCount: 2
Fore
SplineSet
84 0 m 1,0,-1
 290 1240 l 2,1,2
 314 1382 314 1382 405 1462 c 128,-1,3
 496 1542 496 1542 636 1542 c 0,4,5
 662 1542 662 1542 699 1538 c 128,-1,6
 736 1534 736 1534 744 1534 c 1,7,-1
 730 1454 l 1,8,9
 664 1462 664 1462 636 1462 c 0,10,11
 538 1462 538 1462 467 1403 c 128,-1,12
 396 1344 396 1344 376 1228 c 2,13,-1
 246 442 l 1,14,-1
 854 1046 l 1,15,-1
 970 1046 l 1,16,-1
 550 632 l 1,17,-1
 844 0 l 1,18,-1
 738 0 l 1,19,-1
 480 564 l 1,20,-1
 226 316 l 1,21,-1
 172 0 l 1,22,-1
 84 0 l 1,0,-1
EndSplineSet
EndChar

StartChar: uni019A
Encoding: 410 410 348
Width: 468
GlyphClass: 2
Flags: W
LayerCount: 2
Fore
SplineSet
58 742 m 1,0,-1
 70 818 l 1,1,-1
 232 818 l 1,2,-1
 350 1532 l 1,3,-1
 438 1532 l 1,4,-1
 320 818 l 1,5,-1
 480 818 l 1,6,-1
 468 742 l 1,7,-1
 308 742 l 1,8,-1
 184 0 l 1,9,-1
 96 0 l 1,10,-1
 220 742 l 1,11,-1
 58 742 l 1,0,-1
EndSplineSet
EndChar

StartChar: uni019B
Encoding: 411 411 349
Width: 900
GlyphClass: 2
Flags: W
LayerCount: 2
Fore
SplineSet
-74 0 m 1,0,-1
 496 1086 l 1,1,-1
 478 1212 l 1,2,-1
 200 1028 l 1,3,-1
 168 1088 l 1,4,-1
 460 1278 l 1,5,6
 414 1450 414 1450 300 1450 c 2,7,-1
 264 1450 l 1,8,-1
 278 1528 l 1,9,-1
 330 1528 l 2,10,11
 468 1528 468 1528 536 1328 c 1,12,-1
 750 1472 l 1,13,-1
 784 1412 l 1,14,-1
 552 1260 l 1,15,-1
 784 0 l 1,16,-1
 684 0 l 1,17,-1
 566 704 l 2,18,19
 542 846 542 846 524 970 c 1,20,-1
 518 970 l 1,21,22
 464 854 464 854 390 708 c 2,23,-1
 28 0 l 1,24,-1
 -74 0 l 1,0,-1
EndSplineSet
EndChar

StartChar: uni019C
Encoding: 412 412 350
Width: 1850
GlyphClass: 2
Flags: W
LayerCount: 2
Fore
SplineSet
188 394 m 2,0,-1
 366 1470 l 1,1,-1
 456 1470 l 1,2,-1
 278 400 l 2,3,4
 218 42 218 42 464 42 c 0,5,6
 594 42 594 42 712 156 c 128,-1,7
 830 270 830 270 858 442 c 2,8,-1
 1028 1470 l 1,9,-1
 1122 1470 l 1,10,-1
 946 400 l 2,11,12
 920 238 920 238 964 140 c 128,-1,13
 1008 42 1008 42 1136 42 c 0,14,15
 1274 42 1274 42 1384 153 c 128,-1,16
 1494 264 1494 264 1520 430 c 2,17,-1
 1692 1470 l 1,18,-1
 1784 1470 l 1,19,-1
 1542 0 l 1,20,-1
 1452 0 l 1,21,-1
 1482 188 l 1,22,-1
 1480 188 l 1,23,24
 1426 88 1426 88 1322 26 c 128,-1,25
 1218 -36 1218 -36 1102 -36 c 0,26,27
 968 -36 968 -36 909 42 c 128,-1,28
 850 120 850 120 848 232 c 1,29,30
 818 150 818 150 703 57 c 128,-1,31
 588 -36 588 -36 428 -36 c 0,32,33
 116 -36 116 -36 188 394 c 2,0,-1
EndSplineSet
EndChar

StartChar: uni019D
Encoding: 413 413 351
Width: 1454
GlyphClass: 2
Flags: W
LayerCount: 2
Fore
SplineSet
384 1470 m 1,0,-1
 494 1470 l 1,1,-1
 1078 132 l 1,2,-1
 1088 132 l 1,3,4
 1102 294 1102 294 1136 506 c 2,5,-1
 1296 1470 l 1,6,-1
 1390 1470 l 1,7,-1
 1148 0 l 1,8,-1
 1036 0 l 1,9,-1
 542 1126 l 1,10,-1
 452 1338 l 1,11,-1
 444 1338 l 1,12,13
 424 1152 424 1152 390 940 c 2,14,-1
 224 -58 l 2,15,16
 188 -272 188 -272 104 -380 c 128,-1,17
 20 -488 20 -488 -138 -488 c 0,18,19
 -144 -488 -144 -488 -204 -480 c 1,20,-1
 -192 -402 l 1,21,22
 -162 -406 -162 -406 -136 -406 c 0,23,24
 -8 -406 -8 -406 48 -318 c 128,-1,25
 104 -230 104 -230 132 -54 c 2,26,-1
 384 1470 l 1,0,-1
EndSplineSet
EndChar

StartChar: uni019E
Encoding: 414 414 352
Width: 1092
GlyphClass: 2
Flags: W
LayerCount: 2
Fore
SplineSet
76 0 m 1,0,-1
 248 1046 l 1,1,-1
 332 1046 l 1,2,-1
 296 838 l 1,3,-1
 300 838 l 1,4,5
 350 934 350 934 455 1007 c 128,-1,6
 560 1080 560 1080 686 1080 c 0,7,8
 734 1080 734 1080 772 1071 c 128,-1,9
 810 1062 810 1062 849 1035 c 128,-1,10
 888 1008 888 1008 911 965 c 128,-1,11
 934 922 934 922 942 848 c 128,-1,12
 950 774 950 774 934 676 c 2,13,-1
 742 -480 l 1,14,-1
 656 -480 l 1,15,-1
 844 658 l 2,16,17
 902 1004 902 1004 656 1004 c 0,18,19
 528 1004 528 1004 409 894 c 128,-1,20
 290 784 290 784 266 642 c 0,21,22
 266 638 266 638 266 636 c 2,23,-1
 160 0 l 1,24,-1
 76 0 l 1,0,-1
EndSplineSet
EndChar

StartChar: uni019F
Encoding: 415 415 353
Width: 1364
GlyphClass: 2
Flags: W
LayerCount: 2
Fore
SplineSet
138 736 m 256,0,1
 196 1084 196 1084 386 1296 c 128,-1,2
 576 1508 576 1508 842 1508 c 256,3,4
 1106 1508 1106 1508 1224 1295 c 128,-1,5
 1342 1082 1342 1082 1286 734 c 256,6,7
 1228 386 1228 386 1038 175 c 128,-1,8
 848 -36 848 -36 586 -36 c 0,9,10
 320 -36 320 -36 200 176 c 128,-1,11
 80 388 80 388 138 736 c 256,0,1
1182 696 m 1,12,-1
 226 696 l 1,13,14
 186 400 186 400 284 222 c 128,-1,15
 382 44 382 44 598 44 c 0,16,17
 812 44 812 44 968 221 c 128,-1,18
 1124 398 1124 398 1182 696 c 1,12,-1
240 772 m 1,19,-1
 1196 772 l 1,20,21
 1238 1072 1238 1072 1140 1249 c 128,-1,22
 1042 1426 1042 1426 828 1426 c 256,23,24
 614 1426 614 1426 456 1249 c 128,-1,25
 298 1072 298 1072 240 772 c 1,19,-1
EndSplineSet
EndChar

StartChar: uni01A2
Encoding: 418 418 356
Width: 1928
GlyphClass: 2
Flags: W
LayerCount: 2
Fore
SplineSet
134 722 m 0,0,1
 194 1090 194 1090 395 1299 c 128,-1,2
 596 1508 596 1508 842 1508 c 0,3,4
 956 1508 956 1508 1126 1468 c 128,-1,5
 1296 1428 1296 1428 1466 1428 c 0,6,7
 1578 1428 1578 1428 1864 1470 c 1,8,-1
 1620 0 l 1,9,-1
 1528 0 l 1,10,-1
 1756 1378 l 1,11,12
 1582 1350 1582 1350 1452 1350 c 0,13,14
 1292 1350 1292 1350 1174 1372 c 1,15,-1
 962 98 l 1,16,17
 794 -36 794 -36 586 -36 c 0,18,19
 342 -36 342 -36 210 173 c 128,-1,20
 78 382 78 382 134 722 c 0,0,1
230 722 m 0,21,22
 178 408 178 408 291 226 c 128,-1,23
 404 44 404 44 598 44 c 0,24,25
 664 44 664 44 726 62 c 128,-1,26
 788 80 788 80 809 92 c 128,-1,27
 830 104 830 104 876 132 c 1,28,-1
 1084 1386 l 1,29,30
 1068 1390 1068 1390 1034 1399 c 128,-1,31
 1000 1408 1000 1408 982 1414 c 128,-1,32
 964 1420 964 1420 922 1424 c 128,-1,33
 880 1428 880 1428 828 1428 c 0,34,35
 742 1428 742 1428 652 1386 c 128,-1,36
 562 1344 562 1344 477 1262 c 128,-1,37
 392 1180 392 1180 326 1040 c 128,-1,38
 260 900 260 900 230 722 c 0,21,22
EndSplineSet
EndChar

StartChar: uni01A3
Encoding: 419 419 357
Width: 1564
GlyphClass: 2
Flags: W
LayerCount: 2
Fore
SplineSet
88 522 m 0,0,1
 132 792 132 792 280 936 c 128,-1,2
 428 1080 428 1080 626 1080 c 0,3,4
 718 1080 718 1080 873 1052 c 128,-1,5
 1028 1024 1028 1024 1174 1024 c 0,6,7
 1322 1024 1322 1024 1480 1052 c 1,8,-1
 1304 0 l 1,9,-1
 1218 0 l 1,10,-1
 1378 964 l 1,11,12
 1232 946 1232 946 1158 946 c 0,13,14
 1026 946 1026 946 954 956 c 1,15,-1
 824 162 l 1,16,17
 672 -36 672 -36 442 -36 c 0,18,19
 252 -36 252 -36 147 107 c 128,-1,20
 42 250 42 250 88 522 c 0,0,1
178 522 m 0,21,22
 142 306 142 306 218 173 c 128,-1,23
 294 40 294 40 454 40 c 0,24,25
 622 40 622 40 744 200 c 1,26,-1
 870 968 l 1,27,28
 730 1004 730 1004 614 1004 c 0,29,30
 438 1004 438 1004 325 867 c 128,-1,31
 212 730 212 730 178 522 c 0,21,22
EndSplineSet
EndChar

StartChar: uni01A5
Encoding: 421 421 359
Width: 1100
GlyphClass: 2
Flags: W
LayerCount: 2
Fore
SplineSet
256 526 m 0,0,1
 220 306 220 306 290 173 c 128,-1,2
 360 40 360 40 500 40 c 0,3,4
 644 40 644 40 759 171 c 128,-1,5
 874 302 874 302 912 524 c 0,6,7
 948 736 948 736 881 870 c 128,-1,8
 814 1004 814 1004 660 1004 c 0,9,10
 526 1004 526 1004 409 871 c 128,-1,11
 292 738 292 738 256 526 c 0,0,1
4 -480 m 1,12,-1
 288 1236 l 2,13,14
 314 1394 314 1394 411 1466 c 128,-1,15
 508 1538 508 1538 624 1538 c 0,16,17
 658 1538 658 1538 698 1534 c 128,-1,18
 738 1530 738 1530 744 1530 c 1,19,-1
 730 1452 l 1,20,21
 696 1456 696 1456 620 1456 c 0,22,23
 512 1456 512 1456 450 1387 c 128,-1,24
 388 1318 388 1318 372 1224 c 2,25,-1
 302 806 l 1,26,27
 354 920 354 920 457 1000 c 128,-1,28
 560 1080 560 1080 682 1080 c 0,29,30
 864 1080 864 1080 952 929 c 128,-1,31
 1040 778 1040 778 998 524 c 0,32,33
 952 250 952 250 809 107 c 128,-1,34
 666 -36 666 -36 494 -36 c 0,35,36
 370 -36 370 -36 299 40 c 128,-1,37
 228 116 228 116 210 232 c 1,38,-1
 92 -480 l 1,39,-1
 4 -480 l 1,12,-1
EndSplineSet
EndChar

StartChar: uni01A6
Encoding: 422 422 360
Width: 1164
GlyphClass: 2
Flags: W
LayerCount: 2
Fore
SplineSet
274 564 m 1,0,-1
 598 564 l 2,1,2
 742 564 742 564 851 633 c 128,-1,3
 960 702 960 702 988 864 c 0,4,5
 1010 992 1010 992 943 1069 c 128,-1,6
 876 1146 876 1146 702 1146 c 2,7,-1
 370 1146 l 1,8,-1
 274 564 l 1,0,-1
86 0 m 1,9,-1
 330 1470 l 1,10,-1
 424 1470 l 1,11,-1
 384 1226 l 1,12,-1
 742 1226 l 2,13,14
 944 1226 944 1226 1025 1125 c 128,-1,15
 1106 1024 1106 1024 1080 868 c 0,16,17
 1030 568 1030 568 694 510 c 1,18,19
 768 478 768 478 799 416 c 128,-1,20
 830 354 830 354 848 248 c 0,21,22
 900 -36 900 -36 946 -156 c 1,23,-1
 842 -156 l 1,24,25
 818 -82 818 -82 788 65 c 128,-1,26
 758 212 758 212 746 268 c 0,27,28
 720 374 720 374 666 429 c 128,-1,29
 612 484 612 484 504 484 c 2,30,-1
 260 484 l 1,31,-1
 180 0 l 1,32,-1
 86 0 l 1,9,-1
EndSplineSet
EndChar

StartChar: uni01A7
Encoding: 423 423 361
Width: 1182
GlyphClass: 2
Flags: W
LayerCount: 2
Fore
SplineSet
64 376 m 0,0,1
 76 448 76 448 114 508 c 128,-1,2
 152 568 152 568 193 607 c 128,-1,3
 234 646 234 646 309 683 c 128,-1,4
 384 720 384 720 436 739 c 128,-1,5
 488 758 488 758 576 787 c 128,-1,6
 664 816 664 816 710 832 c 128,-1,7
 756 848 756 848 827 881 c 128,-1,8
 898 914 898 914 937 945 c 128,-1,9
 976 976 976 976 1010 1027 c 128,-1,10
 1044 1078 1044 1078 1054 1138 c 0,11,12
 1076 1270 1076 1270 992 1348 c 128,-1,13
 908 1426 908 1426 736 1426 c 0,14,15
 496 1426 496 1426 330 1230 c 1,16,-1
 252 1260 l 1,17,18
 330 1364 330 1364 461 1436 c 128,-1,19
 592 1508 592 1508 744 1508 c 0,20,21
 960 1508 960 1508 1069 1407 c 128,-1,22
 1178 1306 1178 1306 1150 1138 c 0,23,24
 1140 1074 1140 1074 1114 1021 c 128,-1,25
 1088 968 1088 968 1042 927 c 128,-1,26
 996 886 996 886 956 858 c 128,-1,27
 916 830 916 830 846 801 c 128,-1,28
 776 772 776 772 735 757 c 128,-1,29
 694 742 694 742 614 718 c 0,30,31
 510 682 510 682 453 661 c 128,-1,32
 396 640 396 640 323 598 c 128,-1,33
 250 556 250 556 210 500 c 128,-1,34
 170 444 170 444 158 372 c 0,35,36
 132 218 132 218 228 131 c 128,-1,37
 324 44 324 44 496 44 c 0,38,39
 626 44 626 44 750 111 c 128,-1,40
 874 178 874 178 956 278 c 1,41,-1
 1034 240 l 1,42,43
 938 116 938 116 796 40 c 128,-1,44
 654 -36 654 -36 486 -36 c 0,45,46
 256 -36 256 -36 144 73 c 128,-1,47
 32 182 32 182 64 376 c 0,0,1
EndSplineSet
EndChar

StartChar: uni01A8
Encoding: 424 424 362
Width: 918
GlyphClass: 2
Flags: W
LayerCount: 2
Fore
SplineSet
28 246 m 0,0,1
 36 300 36 300 67 346 c 128,-1,2
 98 392 98 392 136 421 c 128,-1,3
 174 450 174 450 233 478 c 128,-1,4
 292 506 292 506 335 521 c 128,-1,5
 378 536 378 536 444 554 c 0,6,7
 580 594 580 594 663 647 c 128,-1,8
 746 700 746 700 764 800 c 0,9,10
 778 890 778 890 714 947 c 128,-1,11
 650 1004 650 1004 528 1004 c 0,12,13
 432 1004 432 1004 350 955 c 128,-1,14
 268 906 268 906 214 830 c 1,15,-1
 156 870 l 1,16,17
 218 960 218 960 320 1020 c 128,-1,18
 422 1080 422 1080 540 1080 c 0,19,20
 694 1080 694 1080 783 1007 c 128,-1,21
 872 934 872 934 850 800 c 0,22,23
 838 732 838 732 804 680 c 128,-1,24
 770 628 770 628 712 592 c 128,-1,25
 654 556 654 556 606 537 c 128,-1,26
 558 518 558 518 484 496 c 0,27,28
 294 436 294 436 242 406 c 0,29,30
 132 344 132 344 116 246 c 0,31,32
 100 152 100 152 168 96 c 128,-1,33
 236 40 236 40 368 40 c 0,34,35
 466 40 466 40 557 89 c 128,-1,36
 648 138 648 138 714 224 c 1,37,-1
 772 184 l 1,38,39
 614 -36 614 -36 356 -36 c 0,40,41
 176 -36 176 -36 92 46 c 128,-1,42
 8 128 8 128 28 246 c 0,0,1
EndSplineSet
EndChar

StartChar: uni01A9
Encoding: 425 425 363
Width: 1180
GlyphClass: 2
Flags: W
LayerCount: 2
Fore
SplineSet
78 0 m 1,0,-1
 90 70 l 1,1,-1
 754 736 l 1,2,-1
 310 1400 l 1,3,-1
 322 1470 l 1,4,-1
 1174 1470 l 1,5,-1
 1162 1388 l 1,6,-1
 432 1388 l 1,7,-1
 862 736 l 1,8,-1
 216 82 l 1,9,-1
 956 82 l 1,10,-1
 944 0 l 1,11,-1
 78 0 l 1,0,-1
EndSplineSet
EndChar

StartChar: uni01AA
Encoding: 426 426 364
Width: 816
GlyphClass: 2
Flags: W
LayerCount: 2
Fore
SplineSet
128 1242 m 0,0,1
 114 1158 114 1158 162 1108 c 128,-1,2
 210 1058 210 1058 292 1058 c 0,3,4
 426 1058 426 1058 528 1140 c 1,5,6
 536 1188 536 1188 535 1233 c 128,-1,7
 534 1278 534 1278 520 1325 c 128,-1,8
 506 1372 506 1372 465 1401 c 128,-1,9
 424 1430 424 1430 358 1430 c 0,10,11
 274 1430 274 1430 208 1379 c 128,-1,12
 142 1328 142 1328 128 1242 c 0,0,1
42 1238 m 0,13,14
 62 1364 62 1364 156 1436 c 128,-1,15
 250 1508 250 1508 368 1508 c 0,16,17
 522 1508 522 1508 582 1404 c 128,-1,18
 642 1300 642 1300 612 1130 c 2,19,-1
 396 -182 l 2,20,21
 378 -294 378 -294 410 -350 c 128,-1,22
 442 -406 442 -406 542 -406 c 0,23,24
 552 -406 552 -406 630 -400 c 1,25,-1
 616 -480 l 1,26,-1
 580 -484 l 2,27,28
 544 -488 544 -488 516 -488 c 0,29,30
 256 -488 256 -488 308 -184 c 2,31,-1
 512 1052 l 1,32,33
 416 980 416 980 270 980 c 0,34,35
 156 980 156 980 90 1052 c 128,-1,36
 24 1124 24 1124 42 1238 c 0,13,14
EndSplineSet
EndChar

StartChar: uni01AB
Encoding: 427 427 365
Width: 704
GlyphClass: 2
Flags: W
LayerCount: 2
Fore
SplineSet
116 966 m 1,0,-1
 128 1046 l 1,1,-1
 314 1046 l 1,2,-1
 372 1398 l 1,3,-1
 462 1398 l 1,4,-1
 402 1046 l 1,5,-1
 656 1046 l 1,6,-1
 642 966 l 1,7,-1
 390 966 l 1,8,-1
 278 288 l 2,9,10
 260 178 260 178 292 129 c 128,-1,11
 324 80 324 80 418 80 c 0,12,13
 530 80 530 80 570 88 c 1,14,-1
 540 -94 l 2,15,16
 506 -298 506 -298 423 -393 c 128,-1,17
 340 -488 340 -488 200 -488 c 0,18,19
 160 -488 160 -488 120 -480 c 1,20,-1
 134 -400 l 1,21,22
 198 -406 198 -406 208 -406 c 0,23,24
 312 -406 312 -406 369 -340 c 128,-1,25
 426 -274 426 -274 454 -102 c 2,26,-1
 470 0 l 1,27,28
 454 0 454 0 438 0 c 0,29,30
 404 0 404 0 364 2 c 0,31,32
 252 10 252 10 208 75 c 128,-1,33
 164 140 164 140 186 274 c 2,34,-1
 302 966 l 1,35,-1
 116 966 l 1,0,-1
EndSplineSet
EndChar

StartChar: uni01AC
Encoding: 428 428 366
Width: 1102
GlyphClass: 2
Flags: W
LayerCount: 2
Fore
SplineSet
92 1240 m 0,0,1
 130 1470 130 1470 460 1470 c 2,2,-1
 1220 1470 l 1,3,-1
 1206 1388 l 1,4,-1
 752 1388 l 1,5,-1
 522 0 l 1,6,-1
 428 0 l 1,7,-1
 658 1388 l 1,8,-1
 450 1388 l 2,9,10
 324 1388 324 1388 258 1353 c 128,-1,11
 192 1318 192 1318 178 1234 c 0,12,13
 178 1230 178 1230 176 1180 c 1,14,-1
 90 1180 l 1,15,16
 92 1238 92 1238 92 1240 c 0,0,1
EndSplineSet
EndChar

StartChar: uni01AD
Encoding: 429 429 367
Width: 658
GlyphClass: 2
Flags: W
LayerCount: 2
Fore
SplineSet
116 966 m 1,0,-1
 128 1046 l 1,1,-1
 314 1046 l 1,2,-1
 344 1222 l 2,3,4
 368 1364 368 1364 460 1445 c 128,-1,5
 552 1526 552 1526 690 1526 c 0,6,7
 718 1526 718 1526 753 1521 c 128,-1,8
 788 1516 788 1516 796 1516 c 1,9,-1
 784 1438 l 1,10,11
 736 1444 736 1444 688 1444 c 0,12,13
 588 1444 588 1444 519 1386 c 128,-1,14
 450 1328 450 1328 430 1214 c 2,15,-1
 402 1046 l 1,16,-1
 656 1046 l 1,17,-1
 642 966 l 1,18,-1
 390 966 l 1,19,-1
 278 288 l 2,20,21
 260 178 260 178 292 129 c 128,-1,22
 324 80 324 80 418 80 c 2,23,-1
 498 80 l 1,24,-1
 484 0 l 1,25,-1
 396 0 l 2,26,27
 142 0 142 0 186 274 c 2,28,-1
 302 966 l 1,29,-1
 116 966 l 1,0,-1
EndSplineSet
EndChar

StartChar: uni01AE
Encoding: 430 430 368
Width: 1064
GlyphClass: 2
Flags: W
LayerCount: 2
Fore
SplineSet
170 1388 m 1,0,-1
 184 1470 l 1,1,-1
 1186 1470 l 1,2,-1
 1172 1388 l 1,3,-1
 716 1388 l 1,4,-1
 456 -178 l 2,5,6
 436 -300 436 -300 467 -353 c 128,-1,7
 498 -406 498 -406 602 -406 c 0,8,9
 644 -406 644 -406 696 -398 c 1,10,-1
 682 -480 l 1,11,12
 626 -488 626 -488 578 -488 c 0,13,14
 444 -488 444 -488 389 -417 c 128,-1,15
 334 -346 334 -346 362 -176 c 2,16,-1
 622 1388 l 1,17,-1
 170 1388 l 1,0,-1
EndSplineSet
EndChar

StartChar: uni01B1
Encoding: 433 433 371
Width: 1468
GlyphClass: 2
Flags: W
LayerCount: 2
Fore
SplineSet
114 602 m 0,0,1
 186 1034 186 1034 646 1196 c 1,2,-1
 678 1388 l 1,3,-1
 254 1388 l 1,4,-1
 268 1470 l 1,5,-1
 770 1470 l 1,6,-1
 716 1142 l 1,7,8
 502 1080 502 1080 372 937 c 128,-1,9
 242 794 242 794 210 602 c 0,10,11
 170 356 170 356 291 201 c 128,-1,12
 412 46 412 46 650 46 c 256,13,14
 888 46 888 46 1059 202 c 128,-1,15
 1230 358 1230 358 1272 602 c 0,16,17
 1304 792 1304 792 1222 936 c 128,-1,18
 1140 1080 1140 1080 948 1142 c 1,19,-1
 1002 1470 l 1,20,-1
 1502 1470 l 1,21,-1
 1488 1388 l 1,22,-1
 1064 1388 l 1,23,-1
 1032 1196 l 1,24,25
 1440 1038 1440 1038 1368 602 c 0,26,27
 1322 330 1322 330 1127 147 c 128,-1,28
 932 -36 932 -36 636 -36 c 0,29,30
 342 -36 342 -36 205 146 c 128,-1,31
 68 328 68 328 114 602 c 0,0,1
EndSplineSet
EndChar

StartChar: uni01B2
Encoding: 434 434 372
Width: 1398
GlyphClass: 2
Flags: W
LayerCount: 2
Fore
SplineSet
202 476 m 2,0,-1
 366 1470 l 1,1,-1
 458 1470 l 1,2,-1
 294 476 l 2,3,4
 222 44 222 44 608 44 c 0,5,6
 832 44 832 44 1006 261 c 128,-1,7
 1180 478 1180 478 1238 826 c 0,8,9
 1284 1108 1284 1108 1227 1267 c 128,-1,10
 1170 1426 1170 1426 1024 1426 c 0,11,12
 966 1426 966 1426 910 1414 c 1,13,-1
 924 1498 l 1,14,15
 1010 1508 1010 1508 1050 1508 c 0,16,17
 1224 1508 1224 1508 1308 1342 c 128,-1,18
 1392 1176 1392 1176 1334 830 c 0,19,20
 1270 446 1270 446 1072 205 c 128,-1,21
 874 -36 874 -36 594 -36 c 0,22,23
 354 -36 354 -36 256 86 c 128,-1,24
 158 208 158 208 202 476 c 2,0,-1
EndSplineSet
EndChar

StartChar: uni01B3
Encoding: 435 435 373
Width: 1122
GlyphClass: 2
Flags: W
LayerCount: 2
Fore
SplineSet
144 1470 m 1,0,-1
 256 1470 l 1,1,-1
 488 908 l 2,2,3
 528 818 528 818 576 694 c 1,4,-1
 580 694 l 1,5,6
 594 710 594 710 740 908 c 2,7,-1
 1080 1372 l 2,8,9
 1180 1508 1180 1508 1324 1508 c 0,10,11
 1364 1508 1364 1508 1394 1504 c 1,12,-1
 1380 1422 l 1,13,14
 1320 1428 1320 1428 1318 1428 c 0,15,16
 1228 1428 1228 1428 1154 1328 c 2,17,-1
 612 606 l 1,18,-1
 512 0 l 1,19,-1
 418 0 l 1,20,-1
 518 606 l 1,21,-1
 144 1470 l 1,0,-1
EndSplineSet
EndChar

StartChar: uni01B4
Encoding: 436 436 374
Width: 906
GlyphClass: 2
Flags: W
LayerCount: 2
Fore
SplineSet
100 1046 m 1,0,-1
 202 1046 l 1,1,-1
 328 334 l 2,2,3
 344 230 344 230 372 74 c 1,4,-1
 376 74 l 1,5,6
 432 188 432 188 506 338 c 2,7,-1
 806 940 l 2,8,9
 874 1076 874 1076 1022 1076 c 0,10,11
 1030 1076 1030 1076 1094 1070 c 1,12,-1
 1080 990 l 1,13,14
 1054 996 1054 996 1026 996 c 0,15,16
 976 996 976 996 939 967 c 128,-1,17
 902 938 902 938 886 906 c 2,18,-1
 326 -186 l 2,19,20
 246 -342 246 -342 170 -411 c 128,-1,21
 94 -480 94 -480 8 -480 c 2,22,-1
 -48 -480 l 1,23,-1
 -36 -400 l 1,24,-1
 4 -400 l 2,25,26
 142 -400 142 -400 258 -148 c 2,27,-1
 310 -42 l 1,28,-1
 100 1046 l 1,0,-1
EndSplineSet
EndChar

StartChar: uni01B5
Encoding: 437 437 375
Width: 1198
GlyphClass: 2
Flags: W
LayerCount: 2
Fore
SplineSet
242 692 m 1,0,-1
 254 766 l 1,1,-1
 594 766 l 1,2,-1
 1100 1388 l 1,3,-1
 308 1388 l 1,4,-1
 322 1470 l 1,5,-1
 1228 1470 l 1,6,-1
 1214 1396 l 1,7,-1
 698 766 l 1,8,-1
 1006 766 l 1,9,-1
 994 692 l 1,10,-1
 636 692 l 1,11,-1
 134 82 l 1,12,-1
 1018 82 l 1,13,-1
 1006 0 l 1,14,-1
 12 0 l 1,15,-1
 24 74 l 1,16,-1
 530 692 l 1,17,-1
 242 692 l 1,0,-1
EndSplineSet
EndChar

StartChar: uni01B6
Encoding: 438 438 376
Width: 896
GlyphClass: 2
Flags: W
LayerCount: 2
Fore
SplineSet
-22 0 m 1,0,-1
 -10 66 l 1,1,-1
 360 498 l 1,2,-1
 138 498 l 1,3,-1
 150 572 l 1,4,-1
 422 572 l 1,5,-1
 762 966 l 1,6,-1
 188 966 l 1,7,-1
 202 1046 l 1,8,-1
 884 1046 l 1,9,-1
 872 982 l 1,10,-1
 524 572 l 1,11,-1
 752 572 l 1,12,-1
 740 498 l 1,13,-1
 458 498 l 1,14,-1
 102 78 l 1,15,-1
 744 78 l 1,16,-1
 732 0 l 1,17,-1
 -22 0 l 1,0,-1
EndSplineSet
EndChar

StartChar: uni01B7
Encoding: 439 439 377
Width: 1326
GlyphClass: 2
Flags: W
LayerCount: 2
Fore
SplineSet
-18 -182 m 1,0,-1
 66 -142 l 1,1,2
 102 -254 102 -254 202 -325 c 128,-1,3
 302 -396 302 -396 444 -396 c 0,4,5
 692 -396 692 -396 852 -250 c 128,-1,6
 1012 -104 1012 -104 1052 138 c 0,7,8
 1090 366 1090 366 963 500 c 128,-1,9
 836 634 836 634 532 634 c 2,10,-1
 422 634 l 1,11,-1
 436 720 l 1,12,-1
 1120 1388 l 1,13,-1
 280 1388 l 1,14,-1
 294 1470 l 1,15,-1
 1272 1470 l 1,16,-1
 1264 1416 l 1,17,-1
 542 712 l 1,18,-1
 590 712 l 1,19,20
 900 704 900 704 1045 552 c 128,-1,21
 1190 400 1190 400 1146 140 c 0,22,23
 1098 -146 1098 -146 903 -312 c 128,-1,24
 708 -478 708 -478 432 -478 c 0,25,26
 256 -478 256 -478 141 -393 c 128,-1,27
 26 -308 26 -308 -18 -182 c 1,0,-1
EndSplineSet
EndChar

StartChar: uni01B8
Encoding: 440 440 378
Width: 1326
GlyphClass: 2
Flags: W
LayerCount: 2
Fore
SplineSet
42 140 m 0,0,1
 86 400 86 400 287 556 c 128,-1,2
 488 712 488 712 786 712 c 2,3,-1
 836 712 l 1,4,-1
 350 1416 l 1,5,-1
 358 1470 l 1,6,-1
 1334 1470 l 1,7,-1
 1320 1388 l 1,8,-1
 482 1388 l 1,9,-1
 944 720 l 1,10,-1
 930 634 l 1,11,-1
 820 634 l 2,12,13
 516 634 516 634 346 500 c 128,-1,14
 176 366 176 366 138 138 c 0,15,16
 98 -104 98 -104 208 -250 c 128,-1,17
 318 -396 318 -396 566 -396 c 0,18,19
 710 -396 710 -396 832 -325 c 128,-1,20
 954 -254 954 -254 1028 -142 c 1,21,-1
 1100 -182 l 1,22,23
 1014 -308 1014 -308 871 -393 c 128,-1,24
 728 -478 728 -478 552 -478 c 0,25,26
 276 -478 276 -478 135 -312 c 128,-1,27
 -6 -146 -6 -146 42 140 c 0,0,1
EndSplineSet
EndChar

StartChar: uni01B9
Encoding: 441 441 379
Width: 1008
GlyphClass: 2
Flags: W
LayerCount: 2
Fore
SplineSet
8 -22 m 0,0,1
 42 188 42 188 197 307 c 128,-1,2
 352 426 352 426 564 426 c 2,3,-1
 634 426 l 1,4,-1
 224 982 l 1,5,-1
 234 1046 l 1,6,-1
 954 1046 l 1,7,-1
 940 966 l 1,8,-1
 342 966 l 1,9,-1
 742 420 l 1,10,-1
 730 356 l 1,11,-1
 586 356 l 2,12,13
 382 356 382 356 254 254 c 128,-1,14
 126 152 126 152 98 -22 c 0,15,16
 70 -190 70 -190 142 -299 c 128,-1,17
 214 -408 214 -408 370 -408 c 0,18,19
 580 -408 580 -408 722 -208 c 1,20,-1
 790 -238 l 1,21,22
 628 -488 628 -488 356 -488 c 0,23,24
 166 -488 166 -488 70 -359 c 128,-1,25
 -26 -230 -26 -230 8 -22 c 0,0,1
EndSplineSet
EndChar

StartChar: uni01BA
Encoding: 442 442 380
Width: 872
GlyphClass: 2
Flags: W
LayerCount: 2
Fore
SplineSet
-24 -212 m 0,0,1
 -10 -132 -10 -132 54 -71 c 128,-1,2
 118 -10 118 -10 203 29 c 128,-1,3
 288 68 288 68 372 106 c 128,-1,4
 456 144 456 144 520 200 c 128,-1,5
 584 256 584 256 596 328 c 0,6,7
 624 498 624 498 322 498 c 2,8,-1
 254 498 l 1,9,-1
 264 558 l 1,10,-1
 712 966 l 1,11,-1
 180 966 l 1,12,-1
 192 1046 l 1,13,-1
 836 1046 l 1,14,-1
 826 982 l 1,15,-1
 362 558 l 1,16,-1
 400 556 l 2,17,18
 562 554 562 554 632 494 c 128,-1,19
 702 434 702 434 686 330 c 0,20,21
 672 246 672 246 607 181 c 128,-1,22
 542 116 542 116 457 74 c 128,-1,23
 372 32 372 32 287 -5 c 128,-1,24
 202 -42 202 -42 140 -93 c 128,-1,25
 78 -144 78 -144 68 -206 c 0,26,27
 56 -280 56 -280 99 -322 c 128,-1,28
 142 -364 142 -364 234 -364 c 0,29,30
 298 -364 298 -364 408 -348 c 1,31,-1
 396 -426 l 1,32,33
 304 -442 304 -442 212 -442 c 0,34,35
 86 -442 86 -442 22 -382 c 128,-1,36
 -42 -322 -42 -322 -24 -212 c 0,0,1
EndSplineSet
EndChar

StartChar: uni01BB
Encoding: 443 443 381
Width: 1080
GlyphClass: 2
Flags: W
LayerCount: 2
Fore
SplineSet
250 680 m 1,0,-1
 262 758 l 1,1,-1
 706 758 l 1,2,3
 902 936 902 936 930 1114 c 0,4,5
 956 1266 956 1266 884 1347 c 128,-1,6
 812 1428 812 1428 670 1428 c 0,7,8
 546 1428 546 1428 448 1351 c 128,-1,9
 350 1274 350 1274 288 1138 c 1,10,-1
 208 1160 l 1,11,12
 276 1318 276 1318 400 1413 c 128,-1,13
 524 1508 524 1508 688 1508 c 0,14,15
 868 1508 868 1508 963 1404 c 128,-1,16
 1058 1300 1058 1300 1026 1112 c 0,17,18
 996 932 996 932 818 758 c 1,19,-1
 1030 758 l 1,20,-1
 1018 680 l 1,21,-1
 740 680 l 1,22,23
 710 654 710 654 642 597 c 128,-1,24
 574 540 574 540 547 518 c 128,-1,25
 520 496 520 496 466 449 c 128,-1,26
 412 402 412 402 389 380 c 128,-1,27
 366 358 366 358 326 320 c 128,-1,28
 286 282 286 282 266 257 c 128,-1,29
 246 232 246 232 220 200 c 128,-1,30
 194 168 194 168 176 139 c 128,-1,31
 158 110 158 110 146 80 c 1,32,-1
 854 80 l 1,33,-1
 840 0 l 1,34,-1
 22 0 l 1,35,36
 44 134 44 134 187 287 c 128,-1,37
 330 440 330 440 618 680 c 1,38,-1
 250 680 l 1,0,-1
EndSplineSet
EndChar

StartChar: uni01BC
Encoding: 444 444 382
Width: 1042
GlyphClass: 2
Flags: W
LayerCount: 2
Fore
SplineSet
36 208 m 1,0,-1
 118 242 l 1,1,2
 178 42 178 42 410 42 c 0,3,4
 564 42 564 42 672 143 c 128,-1,5
 780 244 780 244 808 412 c 0,6,7
 834 568 834 568 742 680 c 128,-1,8
 650 792 650 792 420 792 c 0,9,10
 336 792 336 792 234 776 c 1,11,-1
 404 1388 l 1,12,-1
 298 1388 l 1,13,-1
 312 1470 l 1,14,-1
 1002 1470 l 1,15,-1
 988 1388 l 1,16,-1
 490 1388 l 1,17,-1
 350 866 l 1,18,19
 416 870 416 870 468 870 c 0,20,21
 708 870 708 870 822 740 c 128,-1,22
 936 610 936 610 904 412 c 0,23,24
 870 206 870 206 733 85 c 128,-1,25
 596 -36 596 -36 396 -36 c 0,26,27
 106 -36 106 -36 36 208 c 1,0,-1
EndSplineSet
EndChar

StartChar: uni01BD
Encoding: 445 445 383
Width: 846
GlyphClass: 2
Flags: W
LayerCount: 2
Fore
SplineSet
30 144 m 1,0,-1
 104 184 l 1,1,2
 130 120 130 120 185 80 c 128,-1,3
 240 40 240 40 312 40 c 0,4,5
 436 40 436 40 511 109 c 128,-1,6
 586 178 586 178 604 284 c 0,7,8
 624 404 624 404 545 482 c 128,-1,9
 466 560 466 560 322 560 c 0,10,11
 234 560 234 560 192 554 c 1,12,-1
 322 966 l 1,13,-1
 226 966 l 1,14,-1
 240 1046 l 1,15,-1
 770 1046 l 1,16,-1
 756 966 l 1,17,-1
 398 966 l 1,18,-1
 296 638 l 1,19,-1
 348 638 l 2,20,21
 530 638 530 638 622 537 c 128,-1,22
 714 436 714 436 690 286 c 0,23,24
 666 140 666 140 565 52 c 128,-1,25
 464 -36 464 -36 298 -36 c 0,26,27
 102 -36 102 -36 30 144 c 1,0,-1
EndSplineSet
EndChar

StartChar: uni01BE
Encoding: 446 446 384
Width: 820
GlyphClass: 2
Flags: W
LayerCount: 2
Fore
SplineSet
156 966 m 1,0,-1
 170 1046 l 1,1,-1
 314 1046 l 1,2,-1
 370 1382 l 1,3,-1
 456 1382 l 1,4,-1
 402 1046 l 1,5,-1
 670 1046 l 1,6,-1
 658 966 l 1,7,-1
 388 966 l 1,8,-1
 358 782 l 2,9,10
 346 708 346 708 374 646 c 128,-1,11
 402 584 402 584 450 542 c 128,-1,12
 498 500 498 500 546 458 c 128,-1,13
 594 416 594 416 623 358 c 128,-1,14
 652 300 652 300 640 228 c 0,15,16
 620 106 620 106 534 35 c 128,-1,17
 448 -36 448 -36 294 -36 c 0,18,19
 102 -36 102 -36 24 140 c 1,20,-1
 94 182 l 1,21,22
 170 40 170 40 304 40 c 0,23,24
 524 40 524 40 554 228 c 0,25,26
 564 284 564 284 533 332 c 128,-1,27
 502 380 502 380 453 419 c 128,-1,28
 404 458 404 458 357 503 c 128,-1,29
 310 548 310 548 282 617 c 128,-1,30
 254 686 254 686 268 768 c 2,31,-1
 302 966 l 1,32,-1
 156 966 l 1,0,-1
EndSplineSet
EndChar

StartChar: uni01BF
Encoding: 447 447 385
Width: 1094
GlyphClass: 2
Flags: W
LayerCount: 2
Fore
SplineSet
4 -480 m 1,0,-1
 256 1046 l 1,1,-1
 344 1046 l 1,2,-1
 328 952 l 1,3,4
 504 1080 504 1080 678 1080 c 0,5,6
 866 1080 866 1080 956 965 c 128,-1,7
 1046 850 1046 850 1012 650 c 0,8,9
 920 98 920 98 170 0 c 1,10,-1
 92 -480 l 1,11,-1
 4 -480 l 1,0,-1
184 78 m 1,12,13
 850 174 850 174 926 642 c 0,14,15
 956 820 956 820 877 912 c 128,-1,16
 798 1004 798 1004 654 1004 c 0,17,18
 490 1004 490 1004 312 858 c 1,19,-1
 184 78 l 1,12,13
EndSplineSet
EndChar

StartChar: uni01C0
Encoding: 448 448 386
Width: 398
GlyphClass: 2
Flags: W
LayerCount: 2
Fore
SplineSet
-8 -444 m 1,0,-1
 338 1644 l 1,1,-1
 424 1644 l 1,2,-1
 78 -444 l 1,3,-1
 -8 -444 l 1,0,-1
EndSplineSet
EndChar

StartChar: uni01C1
Encoding: 449 449 387
Width: 692
GlyphClass: 2
Flags: W
LayerCount: 2
Fore
SplineSet
-8 -444 m 1,0,-1
 338 1644 l 1,1,-1
 424 1644 l 1,2,-1
 78 -444 l 1,3,-1
 -8 -444 l 1,0,-1
284 -444 m 1,4,-1
 630 1644 l 1,5,-1
 714 1644 l 1,6,-1
 368 -444 l 1,7,-1
 284 -444 l 1,4,-1
EndSplineSet
EndChar

StartChar: uni01C2
Encoding: 450 450 388
Width: 580
GlyphClass: 2
Flags: W
LayerCount: 2
Fore
SplineSet
86 860 m 1,0,-1
 98 930 l 1,1,-1
 310 930 l 1,2,-1
 428 1644 l 1,3,-1
 512 1644 l 1,4,-1
 394 930 l 1,5,-1
 602 930 l 1,6,-1
 590 860 l 1,7,-1
 382 860 l 1,8,-1
 320 486 l 1,9,-1
 528 486 l 1,10,-1
 516 416 l 1,11,-1
 310 416 l 1,12,-1
 166 -446 l 1,13,-1
 82 -446 l 1,14,-1
 224 416 l 1,15,-1
 14 416 l 1,16,-1
 24 486 l 1,17,-1
 236 486 l 1,18,-1
 298 860 l 1,19,-1
 86 860 l 1,0,-1
EndSplineSet
EndChar

StartChar: uni01DD
Encoding: 477 477 415
Width: 1048
GlyphClass: 2
Flags: W
LayerCount: 2
Fore
SplineSet
78 486 m 0,0,1
 80 496 80 496 84 518 c 128,-1,2
 88 540 88 540 90 550 c 1,3,-1
 862 550 l 1,4,5
 894 738 894 738 822 871 c 128,-1,6
 750 1004 750 1004 582 1004 c 0,7,8
 472 1004 472 1004 379 946 c 128,-1,9
 286 888 286 888 230 806 c 1,10,-1
 162 834 l 1,11,12
 324 1080 324 1080 596 1080 c 0,13,14
 804 1080 804 1080 894 922 c 128,-1,15
 984 764 984 764 944 516 c 0,16,17
 904 274 904 274 758 119 c 128,-1,18
 612 -36 612 -36 418 -36 c 256,19,20
 222 -36 222 -36 132 116 c 128,-1,21
 42 268 42 268 78 486 c 0,0,1
164 478 m 1,22,23
 134 298 134 298 206 169 c 128,-1,24
 278 40 278 40 430 40 c 0,25,26
 588 40 588 40 702 170 c 128,-1,27
 816 300 816 300 850 478 c 1,28,-1
 164 478 l 1,22,23
EndSplineSet
EndChar

StartChar: uni01E4
Encoding: 484 484 422
Width: 1404
GlyphClass: 2
Flags: W
LayerCount: 2
Fore
SplineSet
138 736 m 0,0,1
 194 1080 194 1080 388 1294 c 128,-1,2
 582 1508 582 1508 874 1508 c 0,3,4
 1042 1508 1042 1508 1143 1422 c 128,-1,5
 1244 1336 1244 1336 1280 1222 c 1,6,-1
 1196 1190 l 1,7,8
 1104 1426 1104 1426 860 1426 c 256,9,10
 616 1426 616 1426 450 1236 c 128,-1,11
 284 1046 284 1046 234 736 c 0,12,13
 182 420 182 420 286 232 c 128,-1,14
 390 44 390 44 628 44 c 0,15,16
 790 44 790 44 910 136 c 128,-1,17
 1030 228 1030 228 1092 380 c 1,18,-1
 690 380 l 1,19,-1
 700 448 l 1,20,-1
 1116 448 l 1,21,22
 1132 498 1132 498 1142 556 c 2,23,-1
 1164 688 l 1,24,-1
 718 688 l 1,25,-1
 730 768 l 1,26,-1
 1268 768 l 1,27,-1
 1214 448 l 1,28,-1
 1388 448 l 1,29,-1
 1378 380 l 1,30,-1
 1204 380 l 1,31,-1
 1140 0 l 1,32,-1
 1066 0 l 1,33,-1
 1108 274 l 1,34,35
 1042 138 1042 138 919 51 c 128,-1,36
 796 -36 796 -36 614 -36 c 0,37,38
 332 -36 332 -36 206 174 c 128,-1,39
 80 384 80 384 138 736 c 0,0,1
EndSplineSet
EndChar

StartChar: uni01E5
Encoding: 485 485 423
Width: 1092
GlyphClass: 2
Flags: W
LayerCount: 2
Fore
SplineSet
92 546 m 256,0,1
 132 782 132 782 267 931 c 128,-1,2
 402 1080 402 1080 586 1080 c 0,3,4
 714 1080 714 1080 781 1003 c 128,-1,5
 848 926 848 926 866 824 c 1,6,-1
 902 1046 l 1,7,-1
 988 1046 l 1,8,-1
 832 102 l 2,9,10
 808 -40 808 -40 780 -124 c 1,11,-1
 938 -124 l 1,12,-1
 926 -188 l 1,13,-1
 756 -188 l 1,14,15
 692 -336 692 -336 592 -412 c 128,-1,16
 492 -488 492 -488 334 -488 c 0,17,18
 226 -488 226 -488 143 -441 c 128,-1,19
 60 -394 60 -394 16 -312 c 1,20,-1
 86 -268 l 1,21,22
 178 -410 178 -410 350 -410 c 0,23,24
 560 -410 560 -410 664 -188 c 1,25,-1
 268 -188 l 1,26,-1
 280 -124 l 1,27,-1
 694 -124 l 1,28,29
 722 -48 722 -48 744 92 c 2,30,-1
 774 274 l 1,31,32
 718 164 718 164 625 92 c 128,-1,33
 532 20 532 20 408 20 c 0,34,35
 226 20 226 20 139 165 c 128,-1,36
 52 310 52 310 92 546 c 256,0,1
180 544 m 0,37,38
 146 342 146 342 217 221 c 128,-1,39
 288 100 288 100 424 100 c 0,40,41
 572 100 572 100 679 222 c 128,-1,42
 786 344 786 344 820 556 c 0,43,44
 852 754 852 754 785 879 c 128,-1,45
 718 1004 718 1004 580 1004 c 0,46,47
 432 1004 432 1004 323 874 c 128,-1,48
 214 744 214 744 180 544 c 0,37,38
EndSplineSet
EndChar

StartChar: uni01EF
Encoding: 495 495 433
Width: 1008
GlyphClass: 2
Flags: W
LayerCount: 2
Fore
SplineSet
298 1578 m 1,0,-1
 398 1578 l 1,1,-1
 604 1330 l 1,2,-1
 892 1578 l 1,3,-1
 988 1578 l 1,4,-1
 634 1264 l 1,5,-1
 548 1264 l 1,6,-1
 298 1578 l 1,0,-1
-46 -238 m 1,7,-1
 34 -208 l 1,8,9
 110 -408 110 -408 318 -408 c 0,10,11
 474 -408 474 -408 582 -299 c 128,-1,12
 690 -190 690 -190 718 -18 c 0,13,14
 746 152 746 152 652 254 c 128,-1,15
 558 356 558 356 356 356 c 2,16,-1
 212 356 l 1,17,-1
 222 420 l 1,18,-1
 802 966 l 1,19,-1
 202 966 l 1,20,-1
 216 1046 l 1,21,-1
 938 1046 l 1,22,-1
 926 982 l 1,23,-1
 334 428 l 1,24,-1
 418 426 l 2,25,26
 626 416 626 416 733 299 c 128,-1,27
 840 182 840 182 806 -18 c 0,28,29
 770 -230 770 -230 633 -359 c 128,-1,30
 496 -488 496 -488 306 -488 c 0,31,32
 34 -488 34 -488 -46 -238 c 1,7,-1
EndSplineSet
EndChar

StartChar: uni01F6
Encoding: 502 502 440
Width: 2012
GlyphClass: 2
Flags: W
LayerCount: 2
Fore
SplineSet
122 0 m 1,0,-1
 366 1470 l 1,1,-1
 458 1470 l 1,2,-1
 348 800 l 1,3,-1
 1102 800 l 1,4,-1
 1212 1470 l 1,5,-1
 1306 1470 l 1,6,-1
 1124 362 l 2,7,8
 1096 196 1096 196 1171 118 c 128,-1,9
 1246 40 1246 40 1378 40 c 0,10,11
 1506 40 1506 40 1604 125 c 128,-1,12
 1702 210 1702 210 1726 358 c 2,13,-1
 1840 1046 l 1,14,-1
 1934 1046 l 1,15,-1
 1818 346 l 2,16,17
 1788 164 1788 164 1661 64 c 128,-1,18
 1534 -36 1534 -36 1368 -36 c 0,19,20
 1194 -36 1194 -36 1094 56 c 128,-1,21
 994 148 994 148 1026 346 c 2,22,-1
 1088 718 l 1,23,-1
 334 718 l 1,24,-1
 214 0 l 1,25,-1
 122 0 l 1,0,-1
EndSplineSet
EndChar

StartChar: uni01F7
Encoding: 503 503 441
Width: 1256
GlyphClass: 2
Flags: W
LayerCount: 2
Fore
SplineSet
46 -468 m 1,0,-1
 366 1470 l 1,1,-1
 460 1470 l 1,2,-1
 430 1292 l 1,3,4
 674 1508 674 1508 896 1508 c 0,5,6
 1094 1508 1094 1508 1179 1369 c 128,-1,7
 1264 1230 1264 1230 1224 990 c 0,8,9
 1198 834 1198 834 1113 691 c 128,-1,10
 1028 548 1028 548 928 448 c 128,-1,11
 828 348 828 348 687 255 c 128,-1,12
 546 162 546 162 443 110 c 128,-1,13
 340 58 340 58 218 4 c 1,14,-1
 140 -468 l 1,15,-1
 46 -468 l 1,0,-1
232 92 m 1,16,17
 338 140 338 140 423 184 c 128,-1,18
 508 228 508 228 637 316 c 128,-1,19
 766 404 766 404 857 494 c 128,-1,20
 948 584 948 584 1027 715 c 128,-1,21
 1106 846 1106 846 1128 986 c 0,22,23
 1160 1182 1160 1182 1096 1305 c 128,-1,24
 1032 1428 1032 1428 862 1428 c 0,25,26
 752 1428 752 1428 622 1351 c 128,-1,27
 492 1274 492 1274 412 1184 c 1,28,-1
 232 92 l 1,16,17
EndSplineSet
EndChar

StartChar: Aringacute
Encoding: 506 506 444
Width: 1226
GlyphClass: 2
Flags: W
LayerCount: 2
Fore
SplineSet
-92 0 m 1,0,-1
 704 1470 l 1,1,-1
 824 1470 l 1,2,-1
 1134 0 l 1,3,-1
 1028 0 l 1,4,-1
 936 464 l 1,5,-1
 260 464 l 1,6,-1
 12 0 l 1,7,-1
 -92 0 l 1,0,-1
300 542 m 1,8,-1
 920 542 l 1,9,-1
 800 1146 l 2,10,11
 764 1324 764 1324 754 1382 c 1,12,-1
 746 1382 l 1,13,14
 734 1360 734 1360 622 1146 c 2,15,-1
 300 542 l 1,8,-1
558 1788 m 0,16,17
 574 1886 574 1886 660 1958 c 0,18,19
 724 2014 724 2014 804 2026 c 1,20,-1
 982 2254 l 1,21,-1
 1120 2254 l 1,22,-1
 898 2026 l 1,23,24
 972 2014 972 2014 1018 1960 c 0,25,26
 1076 1888 1076 1888 1060 1788 c 256,27,28
 1044 1688 1044 1688 962 1617 c 128,-1,29
 880 1546 880 1546 772 1546 c 0,30,31
 666 1546 666 1546 604 1617 c 128,-1,32
 542 1688 542 1688 558 1788 c 0,16,17
634 1788 m 0,33,34
 622 1712 622 1712 663 1661 c 128,-1,35
 704 1610 704 1610 782 1610 c 256,36,37
 860 1610 860 1610 917 1660 c 128,-1,38
 974 1710 974 1710 988 1788 c 0,39,40
 1000 1862 1000 1862 961 1914 c 128,-1,41
 922 1966 922 1966 840 1966 c 256,42,43
 760 1966 760 1966 703 1914 c 128,-1,44
 646 1862 646 1862 634 1788 c 0,33,34
EndSplineSet
EndChar

StartChar: aringacute
Encoding: 507 507 445
Width: 1048
GlyphClass: 2
Flags: W
LayerCount: 2
Fore
SplineSet
36 244 m 0,0,1
 60 386 60 386 172 474 c 128,-1,2
 284 562 284 562 507 597 c 128,-1,3
 730 632 730 632 826 670 c 1,4,-1
 834 726 l 2,5,6
 854 848 854 848 790 927 c 128,-1,7
 726 1006 726 1006 584 1006 c 0,8,9
 492 1006 492 1006 399 960 c 128,-1,10
 306 914 306 914 234 834 c 1,11,-1
 182 880 l 1,12,13
 260 968 260 968 369 1024 c 128,-1,14
 478 1080 478 1080 594 1080 c 0,15,16
 790 1080 790 1080 868 976 c 128,-1,17
 946 872 946 872 918 702 c 2,18,-1
 802 0 l 1,19,-1
 716 0 l 1,20,-1
 752 208 l 1,21,22
 702 110 702 110 585 37 c 128,-1,23
 468 -36 468 -36 330 -36 c 0,24,25
 172 -36 172 -36 94 43 c 128,-1,26
 16 122 16 122 36 244 c 0,0,1
124 248 m 0,27,28
 110 164 110 164 168 102 c 128,-1,29
 226 40 226 40 350 40 c 0,30,31
 502 40 502 40 629 143 c 128,-1,32
 756 246 756 246 782 408 c 2,33,-1
 814 596 l 1,34,35
 714 560 714 560 496 526 c 0,36,37
 160 470 160 470 124 248 c 0,27,28
412 1452 m 0,38,39
 428 1550 428 1550 510 1622 c 0,40,41
 572 1678 572 1678 650 1690 c 1,42,-1
 822 1918 l 1,43,-1
 954 1918 l 1,44,-1
 738 1690 l 1,45,46
 810 1678 810 1678 856 1624 c 0,47,48
 912 1552 912 1552 896 1452 c 256,49,50
 880 1352 880 1352 799 1281 c 128,-1,51
 718 1210 718 1210 614 1210 c 0,52,53
 512 1210 512 1210 454 1281 c 128,-1,54
 396 1352 396 1352 412 1452 c 0,38,39
480 1452 m 0,55,56
 468 1376 468 1376 508 1325 c 128,-1,57
 548 1274 548 1274 624 1274 c 256,58,59
 700 1274 700 1274 756 1324 c 128,-1,60
 812 1374 812 1374 824 1452 c 0,61,62
 836 1526 836 1526 799 1578 c 128,-1,63
 762 1630 762 1630 684 1630 c 256,64,65
 606 1630 606 1630 549 1578 c 128,-1,66
 492 1526 492 1526 480 1452 c 0,55,56
EndSplineSet
EndChar

StartChar: uni021C
Encoding: 540 540 478
Width: 1118
GlyphClass: 2
Flags: W
LayerCount: 2
Fore
SplineSet
-48 -374 m 1,0,1
 74 -394 74 -394 200 -394 c 0,2,3
 448 -394 448 -394 626 -259 c 128,-1,4
 804 -124 804 -124 842 108 c 0,5,6
 862 234 862 234 838 328 c 128,-1,7
 814 422 814 422 756 470 c 128,-1,8
 698 518 698 518 633 540 c 128,-1,9
 568 562 568 562 490 562 c 0,10,11
 420 562 420 562 316 524 c 1,12,-1
 330 608 l 1,13,-1
 502 652 l 2,14,15
 702 706 702 706 827 823 c 128,-1,16
 952 940 952 940 978 1088 c 0,17,18
 1004 1250 1004 1250 922 1338 c 128,-1,19
 840 1426 840 1426 670 1426 c 0,20,21
 444 1426 444 1426 296 1204 c 1,22,-1
 222 1242 l 1,23,24
 298 1356 298 1356 415 1432 c 128,-1,25
 532 1508 532 1508 682 1508 c 0,26,27
 912 1508 912 1508 1008 1393 c 128,-1,28
 1104 1278 1104 1278 1074 1094 c 0,29,30
 1046 920 1046 920 911 795 c 128,-1,31
 776 670 776 670 630 622 c 1,32,-1
 630 620 l 1,33,34
 696 608 696 608 754 576 c 128,-1,35
 812 544 812 544 865 486 c 128,-1,36
 918 428 918 428 939 330 c 128,-1,37
 960 232 960 232 938 108 c 0,38,39
 896 -150 896 -150 691 -314 c 128,-1,40
 486 -478 486 -478 190 -478 c 0,41,42
 60 -478 60 -478 -64 -462 c 1,43,-1
 -48 -374 l 1,0,1
EndSplineSet
EndChar

StartChar: uni021D
Encoding: 541 541 479
Width: 854
GlyphClass: 2
Flags: W
LayerCount: 2
Fore
SplineSet
-52 -394 m 1,0,1
 34 -410 34 -410 116 -410 c 0,2,3
 290 -410 290 -410 411 -305 c 128,-1,4
 532 -200 532 -200 562 -14 c 0,5,6
 588 148 588 148 517 236 c 128,-1,7
 446 324 446 324 330 324 c 0,8,9
 322 324 322 324 212 302 c 1,10,-1
 224 380 l 1,11,-1
 336 406 l 2,12,13
 472 440 472 440 561 533 c 128,-1,14
 650 626 650 626 668 742 c 0,15,16
 686 852 686 852 638 928 c 128,-1,17
 590 1004 590 1004 468 1004 c 0,18,19
 404 1004 404 1004 339 967 c 128,-1,20
 274 930 274 930 224 862 c 1,21,-1
 160 900 l 1,22,23
 216 982 216 982 302 1031 c 128,-1,24
 388 1080 388 1080 484 1080 c 0,25,26
 646 1080 646 1080 711 982 c 128,-1,27
 776 884 776 884 754 750 c 0,28,29
 732 612 732 612 645 517 c 128,-1,30
 558 422 558 422 438 376 c 1,31,32
 540 354 540 354 609 257 c 128,-1,33
 678 160 678 160 648 -12 c 0,34,35
 612 -232 612 -232 467 -360 c 128,-1,36
 322 -488 322 -488 106 -488 c 0,37,38
 38 -488 38 -488 -66 -474 c 1,39,-1
 -52 -394 l 1,0,1
EndSplineSet
EndChar

StartChar: uni0220
Encoding: 544 544 482
Width: 1408
GlyphClass: 2
Flags: W
LayerCount: 2
Fore
SplineSet
122 0 m 1,0,-1
 366 1470 l 1,1,-1
 456 1470 l 1,2,-1
 422 1258 l 1,3,-1
 422 1258 l 1,4,5
 488 1348 488 1348 622 1428 c 128,-1,6
 756 1508 756 1508 918 1508 c 0,7,8
 1354 1508 1354 1508 1270 1010 c 2,9,-1
 1024 -480 l 1,10,-1
 930 -480 l 1,11,-1
 1172 992 l 2,12,13
 1210 1218 1210 1218 1141 1322 c 128,-1,14
 1072 1426 1072 1426 884 1426 c 0,15,16
 728 1426 728 1426 570 1306 c 128,-1,17
 412 1186 412 1186 386 1032 c 2,18,-1
 214 0 l 1,19,-1
 122 0 l 1,0,-1
EndSplineSet
EndChar

StartChar: uni0221
Encoding: 545 545 483
Width: 1456
GlyphClass: 2
Flags: W
LayerCount: 2
Fore
SplineSet
826 -252 m 1,0,1
 836 -316 836 -316 889 -362 c 128,-1,2
 942 -408 942 -408 1016 -408 c 0,3,4
 1094 -408 1094 -408 1147 -370 c 128,-1,5
 1200 -332 1200 -332 1210 -272 c 0,6,7
 1222 -204 1222 -204 1183 -162 c 128,-1,8
 1144 -120 1144 -120 1068 -120 c 0,9,10
 938 -120 938 -120 826 -252 c 1,0,1
90 524 m 0,11,12
 132 782 132 782 271 931 c 128,-1,13
 410 1080 410 1080 594 1080 c 0,14,15
 716 1080 716 1080 790 1000 c 128,-1,16
 864 920 864 920 878 806 c 1,17,-1
 998 1532 l 1,18,-1
 1084 1532 l 1,19,-1
 834 14 l 2,20,21
 812 -114 812 -114 818 -166 c 1,22,23
 864 -114 864 -114 934 -77 c 128,-1,24
 1004 -40 1004 -40 1080 -40 c 0,25,26
 1202 -40 1202 -40 1255 -107 c 128,-1,27
 1308 -174 1308 -174 1292 -268 c 0,28,29
 1276 -364 1276 -364 1197 -426 c 128,-1,30
 1118 -488 1118 -488 1004 -488 c 0,31,32
 832 -488 832 -488 768 -326 c 1,33,34
 742 -360 742 -360 678 -474 c 1,35,-1
 606 -446 l 1,36,37
 674 -322 674 -322 736 -246 c 1,38,39
 718 -178 718 -178 746 0 c 2,40,-1
 784 230 l 1,41,42
 730 118 730 118 629 41 c 128,-1,43
 528 -36 528 -36 404 -36 c 0,44,45
 238 -36 238 -36 141 104 c 128,-1,46
 44 244 44 244 90 524 c 0,11,12
178 524 m 0,47,48
 142 306 142 306 210 173 c 128,-1,49
 278 40 278 40 428 40 c 0,50,51
 564 40 564 40 680 169 c 128,-1,52
 796 298 796 298 834 524 c 0,53,54
 870 746 870 746 795 875 c 128,-1,55
 720 1004 720 1004 586 1004 c 0,56,57
 440 1004 440 1004 327 874 c 128,-1,58
 214 744 214 744 178 524 c 0,47,48
EndSplineSet
EndChar

StartChar: uni0222
Encoding: 546 546 484
Width: 1304
GlyphClass: 2
Flags: W
LayerCount: 2
Fore
SplineSet
84 462 m 0,0,1
 112 636 112 636 236 763 c 128,-1,2
 360 890 360 890 518 940 c 1,3,4
 394 982 394 982 329 1086 c 128,-1,5
 264 1190 264 1190 290 1344 c 0,6,7
 302 1414 302 1414 322 1470 c 1,8,-1
 412 1470 l 1,9,10
 410 1456 410 1456 404 1431 c 128,-1,11
 398 1406 398 1406 393 1386 c 128,-1,12
 388 1366 388 1366 386 1348 c 0,13,14
 360 1192 360 1192 451 1084 c 128,-1,15
 542 976 542 976 720 976 c 0,16,17
 886 976 886 976 1019 1080 c 128,-1,18
 1152 1184 1152 1184 1180 1348 c 0,19,20
 1182 1356 1182 1356 1192 1470 c 1,21,-1
 1284 1470 l 1,22,23
 1288 1422 1288 1422 1276 1344 c 0,24,25
 1250 1182 1250 1182 1143 1080 c 128,-1,26
 1036 978 1036 978 900 940 c 1,27,28
 1048 902 1048 902 1132 769 c 128,-1,29
 1216 636 1216 636 1188 462 c 0,30,31
 1154 258 1154 258 988 111 c 128,-1,32
 822 -36 822 -36 552 -36 c 0,33,34
 290 -36 290 -36 170 110 c 128,-1,35
 50 256 50 256 84 462 c 0,0,1
180 462 m 0,36,37
 150 282 150 282 258 163 c 128,-1,38
 366 44 366 44 566 44 c 0,39,40
 762 44 762 44 912 161 c 128,-1,41
 1062 278 1062 278 1092 462 c 0,42,43
 1122 638 1122 638 1012 765 c 128,-1,44
 902 892 902 892 706 892 c 0,45,46
 518 892 518 892 364 770 c 128,-1,47
 210 648 210 648 180 462 c 0,36,37
EndSplineSet
EndChar

StartChar: uni0223
Encoding: 547 547 485
Width: 1058
GlyphClass: 2
Flags: W
LayerCount: 2
Fore
SplineSet
82 480 m 0,0,1
 114 678 114 678 225 813 c 128,-1,2
 336 948 336 948 466 976 c 1,3,4
 360 1008 360 1008 305 1109 c 128,-1,5
 250 1210 250 1210 276 1374 c 0,6,7
 290 1462 290 1462 310 1508 c 1,8,-1
 392 1508 l 1,9,10
 390 1500 390 1500 379 1449 c 128,-1,11
 368 1398 368 1398 364 1376 c 0,12,13
 338 1218 338 1218 400 1116 c 128,-1,14
 462 1014 462 1014 602 1014 c 0,15,16
 736 1014 736 1014 835 1113 c 128,-1,17
 934 1212 934 1212 960 1376 c 0,18,19
 974 1458 974 1458 976 1508 c 1,20,-1
 1062 1508 l 1,21,22
 1064 1468 1064 1468 1048 1374 c 0,23,24
 1022 1214 1022 1214 934 1109 c 128,-1,25
 846 1004 846 1004 726 976 c 1,26,27
 848 950 848 950 915 815 c 128,-1,28
 982 680 982 680 950 480 c 0,29,30
 914 264 914 264 774 114 c 128,-1,31
 634 -36 634 -36 428 -36 c 0,32,33
 226 -36 226 -36 135 110 c 128,-1,34
 44 256 44 256 82 480 c 0,0,1
170 480 m 0,35,36
 138 290 138 290 213 165 c 128,-1,37
 288 40 288 40 440 40 c 0,38,39
 590 40 590 40 709 160 c 128,-1,40
 828 280 828 280 860 480 c 0,41,42
 892 674 892 674 816 804 c 128,-1,43
 740 934 740 934 588 934 c 0,44,45
 448 934 448 934 326 811 c 128,-1,46
 204 688 204 688 170 480 c 0,35,36
EndSplineSet
EndChar

StartChar: uni0224
Encoding: 548 548 486
Width: 1204
GlyphClass: 2
Flags: W
LayerCount: 2
Fore
SplineSet
12 0 m 1,0,-1
 24 74 l 1,1,-1
 1100 1388 l 1,2,-1
 308 1388 l 1,3,-1
 322 1470 l 1,4,-1
 1228 1470 l 1,5,-1
 1214 1396 l 1,6,-1
 134 82 l 1,7,-1
 804 82 l 2,8,9
 960 82 960 82 1022 5 c 128,-1,10
 1084 -72 1084 -72 1056 -238 c 0,11,12
 1036 -360 1036 -360 968 -480 c 1,13,-1
 882 -480 l 1,14,15
 952 -346 952 -346 968 -244 c 0,16,17
 988 -120 988 -120 946 -60 c 128,-1,18
 904 0 904 0 760 0 c 2,19,-1
 12 0 l 1,0,-1
EndSplineSet
EndChar

StartChar: uni0225
Encoding: 549 549 487
Width: 990
GlyphClass: 2
Flags: W
LayerCount: 2
Fore
SplineSet
-22 0 m 1,0,-1
 -10 66 l 1,1,-1
 762 970 l 1,2,-1
 188 970 l 1,3,-1
 202 1050 l 1,4,-1
 884 1050 l 1,5,-1
 874 986 l 1,6,-1
 102 78 l 1,7,-1
 668 78 l 2,8,9
 800 78 800 78 848 1 c 128,-1,10
 896 -76 896 -76 870 -232 c 0,11,12
 846 -376 846 -376 796 -480 c 1,13,-1
 714 -480 l 1,14,15
 770 -358 770 -358 790 -240 c 0,16,17
 810 -114 810 -114 772 -57 c 128,-1,18
 734 0 734 0 628 0 c 2,19,-1
 -22 0 l 1,0,-1
EndSplineSet
EndChar

StartChar: uni0234
Encoding: 564 564 502
Width: 792
GlyphClass: 2
Flags: W
LayerCount: 2
Fore
SplineSet
172 -252 m 1,0,1
 180 -316 180 -316 234 -362 c 128,-1,2
 288 -408 288 -408 360 -408 c 0,3,4
 438 -408 438 -408 490 -370 c 128,-1,5
 542 -332 542 -332 552 -272 c 0,6,7
 564 -204 564 -204 525 -162 c 128,-1,8
 486 -120 486 -120 410 -120 c 0,9,10
 286 -120 286 -120 172 -252 c 1,0,1
-48 -446 m 1,11,12
 34 -300 34 -300 80 -246 c 1,13,14
 62 -164 62 -164 90 6 c 2,15,-1
 342 1532 l 1,16,-1
 430 1532 l 1,17,-1
 180 16 l 2,18,19
 160 -104 160 -104 166 -166 c 1,20,21
 282 -40 282 -40 424 -40 c 0,22,23
 546 -40 546 -40 601 -108 c 128,-1,24
 656 -176 656 -176 642 -268 c 0,25,26
 626 -364 626 -364 545 -426 c 128,-1,27
 464 -488 464 -488 350 -488 c 0,28,29
 264 -488 264 -488 203 -442 c 128,-1,30
 142 -396 142 -396 116 -328 c 1,31,32
 74 -378 74 -378 24 -474 c 1,33,-1
 -48 -446 l 1,11,12
EndSplineSet
EndChar

StartChar: uni0235
Encoding: 565 565 503
Width: 1442
GlyphClass: 2
Flags: W
LayerCount: 2
Fore
SplineSet
818 -252 m 1,0,1
 826 -316 826 -316 880 -362 c 128,-1,2
 934 -408 934 -408 1010 -408 c 0,3,4
 1088 -408 1088 -408 1137 -370 c 128,-1,5
 1186 -332 1186 -332 1196 -272 c 0,6,7
 1206 -206 1206 -206 1171 -163 c 128,-1,8
 1136 -120 1136 -120 1058 -120 c 0,9,10
 932 -120 932 -120 818 -252 c 1,0,1
76 0 m 1,11,-1
 248 1046 l 1,12,-1
 332 1046 l 1,13,-1
 296 830 l 1,14,-1
 300 830 l 1,15,16
 328 910 328 910 438 995 c 128,-1,17
 548 1080 548 1080 686 1080 c 0,18,19
 734 1080 734 1080 772 1071 c 128,-1,20
 810 1062 810 1062 849 1035 c 128,-1,21
 888 1008 888 1008 911 965 c 128,-1,22
 934 922 934 922 942 848 c 128,-1,23
 950 774 950 774 934 676 c 2,24,-1
 824 16 l 2,25,26
 804 -108 804 -108 812 -166 c 1,27,28
 928 -40 928 -40 1074 -40 c 0,29,30
 1192 -40 1192 -40 1247 -107 c 128,-1,31
 1302 -174 1302 -174 1286 -268 c 0,32,33
 1270 -364 1270 -364 1191 -426 c 128,-1,34
 1112 -488 1112 -488 998 -488 c 0,35,36
 912 -488 912 -488 850 -442 c 128,-1,37
 788 -396 788 -396 760 -328 c 1,38,39
 722 -376 722 -376 670 -474 c 1,40,-1
 600 -446 l 1,41,42
 658 -330 658 -330 728 -246 c 1,43,44
 708 -166 708 -166 738 10 c 2,45,-1
 844 658 l 2,46,47
 902 1004 902 1004 656 1004 c 0,48,49
 528 1004 528 1004 409 893 c 128,-1,50
 290 782 290 782 266 636 c 2,51,-1
 160 0 l 1,52,-1
 76 0 l 1,11,-1
EndSplineSet
EndChar

StartChar: uni0236
Encoding: 566 566 504
Width: 848
GlyphClass: 2
Flags: W
LayerCount: 2
Fore
SplineSet
224 -252 m 1,0,1
 232 -316 232 -316 286 -362 c 128,-1,2
 340 -408 340 -408 416 -408 c 0,3,4
 496 -408 496 -408 545 -370 c 128,-1,5
 594 -332 594 -332 604 -272 c 0,6,7
 614 -208 614 -208 578 -164 c 128,-1,8
 542 -120 542 -120 464 -120 c 0,9,10
 338 -120 338 -120 224 -252 c 1,0,1
116 966 m 1,11,-1
 128 1046 l 1,12,-1
 314 1046 l 1,13,-1
 372 1398 l 1,14,-1
 462 1398 l 1,15,-1
 402 1046 l 1,16,-1
 670 1046 l 1,17,-1
 658 966 l 1,18,-1
 390 966 l 1,19,-1
 232 14 l 2,20,21
 210 -114 210 -114 218 -166 c 1,22,23
 334 -40 334 -40 480 -40 c 0,24,25
 600 -40 600 -40 654 -108 c 128,-1,26
 708 -176 708 -176 694 -268 c 0,27,28
 678 -364 678 -364 598 -426 c 128,-1,29
 518 -488 518 -488 404 -488 c 0,30,31
 318 -488 318 -488 256 -442 c 128,-1,32
 194 -396 194 -396 166 -328 c 1,33,34
 128 -376 128 -376 78 -474 c 1,35,-1
 6 -446 l 1,36,37
 86 -296 86 -296 134 -246 c 1,38,39
 114 -162 114 -162 142 10 c 2,40,-1
 302 966 l 1,41,-1
 116 966 l 1,11,-1
EndSplineSet
EndChar

StartChar: uni0237
Encoding: 567 567 505
Width: 518
GlyphClass: 2
Flags: W
LayerCount: 2
Fore
SplineSet
-172 -400 m 1,0,-1
 -124 -400 l 2,1,2
 64 -400 64 -400 108 -134 c 2,3,-1
 304 1046 l 1,4,-1
 390 1046 l 1,5,-1
 194 -142 l 2,6,7
 166 -306 166 -306 85 -393 c 128,-1,8
 4 -480 4 -480 -120 -480 c 2,9,-1
 -186 -480 l 1,10,-1
 -172 -400 l 1,0,-1
EndSplineSet
EndChar

StartChar: uni0238
Encoding: 568 568 506
Width: 1762
GlyphClass: 2
Flags: W
CounterMasks: 1 0e
LayerCount: 2
Fore
SplineSet
90 524 m 0,0,1
 134 784 134 784 273 932 c 128,-1,2
 412 1080 412 1080 594 1080 c 0,3,4
 716 1080 716 1080 790 1000 c 128,-1,5
 864 920 864 920 878 806 c 1,6,-1
 998 1532 l 1,7,-1
 1084 1532 l 1,8,-1
 964 802 l 1,9,10
 1008 906 1008 906 1110 993 c 128,-1,11
 1212 1080 1212 1080 1342 1080 c 0,12,13
 1524 1080 1524 1080 1613 931 c 128,-1,14
 1702 782 1702 782 1660 524 c 0,15,16
 1614 244 1614 244 1467 104 c 128,-1,17
 1320 -36 1320 -36 1156 -36 c 0,18,19
 1034 -36 1034 -36 960 41 c 128,-1,20
 886 118 886 118 866 228 c 1,21,-1
 830 0 l 1,22,-1
 746 0 l 1,23,-1
 784 230 l 1,24,25
 730 116 730 116 628 40 c 128,-1,26
 526 -36 526 -36 404 -36 c 0,27,28
 240 -36 240 -36 142 103 c 128,-1,29
 44 242 44 242 90 524 c 0,0,1
178 524 m 0,30,31
 142 304 142 304 210 172 c 128,-1,32
 278 40 278 40 428 40 c 0,33,34
 562 40 562 40 674 162 c 128,-1,35
 786 284 786 284 828 490 c 1,36,-1
 838 558 l 1,37,38
 864 760 864 760 789 882 c 128,-1,39
 714 1004 714 1004 586 1004 c 0,40,41
 442 1004 442 1004 328 875 c 128,-1,42
 214 746 214 746 178 524 c 0,30,31
910 486 m 1,43,44
 884 284 884 284 955 162 c 128,-1,45
 1026 40 1026 40 1158 40 c 0,46,47
 1306 40 1306 40 1420 171 c 128,-1,48
 1534 302 1534 302 1572 524 c 0,49,50
 1608 744 1608 744 1537 874 c 128,-1,51
 1466 1004 1466 1004 1320 1004 c 0,52,53
 1188 1004 1188 1004 1075 881 c 128,-1,54
 962 758 962 758 922 556 c 1,55,-1
 910 486 l 1,43,44
EndSplineSet
EndChar

StartChar: uni0239
Encoding: 569 569 507
Width: 1764
GlyphClass: 2
Flags: W
LayerCount: 2
Fore
SplineSet
90 524 m 0,0,1
 132 776 132 776 270 928 c 128,-1,2
 408 1080 408 1080 592 1080 c 0,3,4
 706 1080 706 1080 782 1009 c 128,-1,5
 858 938 858 938 880 810 c 1,6,-1
 920 1046 l 1,7,-1
 1004 1046 l 1,8,-1
 964 808 l 1,9,10
 1026 930 1026 930 1129 1005 c 128,-1,11
 1232 1080 1232 1080 1348 1080 c 0,12,13
 1532 1080 1532 1080 1618 929 c 128,-1,14
 1704 778 1704 778 1662 524 c 0,15,16
 1618 254 1618 254 1475 109 c 128,-1,17
 1332 -36 1332 -36 1158 -36 c 0,18,19
 1036 -36 1036 -36 963 40 c 128,-1,20
 890 116 890 116 870 234 c 1,21,-1
 752 -480 l 1,22,-1
 664 -480 l 1,23,-1
 782 232 l 1,24,25
 722 114 722 114 625 39 c 128,-1,26
 528 -36 528 -36 408 -36 c 0,27,28
 232 -36 232 -36 139 110 c 128,-1,29
 46 256 46 256 90 524 c 0,0,1
178 524 m 0,30,31
 142 304 142 304 212 172 c 128,-1,32
 282 40 282 40 426 40 c 0,33,34
 566 40 566 40 676 166 c 128,-1,35
 786 292 786 292 826 496 c 1,36,-1
 838 560 l 1,37,38
 862 756 862 756 792 880 c 128,-1,39
 722 1004 722 1004 586 1004 c 0,40,41
 430 1004 430 1004 321 869 c 128,-1,42
 212 734 212 734 178 524 c 0,30,31
914 498 m 1,43,44
 888 290 888 290 957 165 c 128,-1,45
 1026 40 1026 40 1166 40 c 0,46,47
 1310 40 1310 40 1423 170 c 128,-1,48
 1536 300 1536 300 1574 524 c 0,49,50
 1608 734 1608 734 1545 869 c 128,-1,51
 1482 1004 1482 1004 1326 1004 c 0,52,53
 1194 1004 1194 1004 1079 881 c 128,-1,54
 964 758 964 758 924 562 c 1,55,-1
 914 498 l 1,43,44
EndSplineSet
EndChar

StartChar: uni023A
Encoding: 570 570 508
Width: 1226
GlyphClass: 2
Flags: W
LayerCount: 2
Fore
SplineSet
300 542 m 1,0,-1
 460 542 l 1,1,-1
 824 1016 l 1,2,-1
 800 1146 l 2,3,4
 794 1180 794 1180 777 1264 c 128,-1,5
 760 1348 760 1348 754 1382 c 1,6,-1
 746 1382 l 1,7,8
 636 1172 636 1172 622 1146 c 2,9,-1
 300 542 l 1,0,-1
542 542 m 1,10,-1
 920 542 l 1,11,-1
 842 932 l 1,12,-1
 542 542 l 1,10,-1
-92 0 m 1,13,-1
 704 1470 l 1,14,-1
 826 1470 l 1,15,-1
 900 1114 l 1,16,-1
 1224 1532 l 1,17,-1
 1306 1532 l 1,18,-1
 918 1030 l 1,19,-1
 1134 0 l 1,20,-1
 1028 0 l 1,21,-1
 936 464 l 1,22,-1
 480 464 l 1,23,-1
 -12 -174 l 1,24,-1
 -94 -174 l 1,25,-1
 398 464 l 1,26,-1
 260 464 l 1,27,-1
 12 0 l 1,28,-1
 -92 0 l 1,13,-1
EndSplineSet
EndChar

StartChar: uni023B
Encoding: 571 571 509
Width: 1228
GlyphClass: 2
Flags: W
LayerCount: 2
Fore
SplineSet
138 736 m 0,0,1
 198 1098 198 1098 395 1303 c 128,-1,2
 592 1508 592 1508 858 1508 c 0,3,4
 972 1508 972 1508 1066 1454 c 1,5,-1
 1144 1594 l 1,6,-1
 1216 1594 l 1,7,-1
 1122 1414 l 1,8,9
 1214 1334 1214 1334 1244 1210 c 1,10,-1
 1158 1176 l 1,11,12
 1130 1270 1130 1270 1074 1328 c 1,13,-1
 422 96 l 1,14,15
 514 44 514 44 616 44 c 0,16,17
 754 44 754 44 866 121 c 128,-1,18
 978 198 978 198 1050 310 c 1,19,-1
 1130 282 l 1,20,21
 926 -36 926 -36 604 -36 c 0,22,23
 476 -36 476 -36 378 14 c 1,24,-1
 284 -154 l 1,25,-1
 210 -154 l 1,26,-1
 318 46 l 1,27,28
 196 136 196 136 147 314 c 128,-1,29
 98 492 98 492 138 736 c 0,0,1
364 132 m 1,30,-1
 1022 1374 l 1,31,32
 952 1426 952 1426 846 1426 c 0,33,34
 620 1426 620 1426 453 1238 c 128,-1,35
 286 1050 286 1050 234 736 c 0,36,37
 200 526 200 526 234 370 c 128,-1,38
 268 214 268 214 364 132 c 1,30,-1
EndSplineSet
EndChar

StartChar: uni023C
Encoding: 572 572 510
Width: 948
GlyphClass: 2
Flags: W
LayerCount: 2
Fore
SplineSet
90 524 m 0,0,1
 130 764 130 764 269 922 c 128,-1,2
 408 1080 408 1080 614 1080 c 0,3,4
 706 1080 706 1080 768 1044 c 1,5,-1
 842 1192 l 1,6,-1
 910 1192 l 1,7,-1
 820 1008 l 1,8,9
 890 946 890 946 912 838 c 1,10,-1
 832 812 l 1,11,12
 818 868 818 868 776 922 c 1,13,-1
 350 56 l 1,14,15
 390 40 390 40 440 40 c 0,16,17
 536 40 536 40 623 102 c 128,-1,18
 710 164 710 164 764 244 c 1,19,-1
 834 216 l 1,20,21
 774 112 774 112 665 38 c 128,-1,22
 556 -36 556 -36 426 -36 c 0,23,24
 364 -36 364 -36 314 -22 c 1,25,-1
 256 -144 l 1,26,-1
 184 -144 l 1,27,-1
 258 2 l 1,28,29
 146 62 146 62 103 200 c 128,-1,30
 60 338 60 338 90 524 c 0,0,1
298 86 m 1,31,-1
 730 966 l 1,32,33
 680 1004 680 1004 600 1004 c 0,34,35
 446 1004 446 1004 329 869 c 128,-1,36
 212 734 212 734 178 524 c 0,37,38
 152 370 152 370 184 253 c 128,-1,39
 216 136 216 136 298 86 c 1,31,-1
EndSplineSet
EndChar

StartChar: uni023D
Encoding: 573 573 511
Width: 1048
GlyphClass: 2
Flags: W
LayerCount: 2
Fore
SplineSet
80 802 m 1,0,-1
 94 878 l 1,1,-1
 282 878 l 1,2,-1
 380 1470 l 1,3,-1
 472 1470 l 1,4,-1
 374 878 l 1,5,-1
 796 878 l 1,6,-1
 784 802 l 1,7,-1
 360 802 l 1,8,-1
 242 82 l 1,9,-1
 952 82 l 1,10,-1
 938 0 l 1,11,-1
 136 0 l 1,12,-1
 268 802 l 1,13,-1
 80 802 l 1,0,-1
EndSplineSet
EndChar

StartChar: uni023E
Encoding: 574 574 512
Width: 1066
GlyphClass: 2
Flags: W
LayerCount: 2
Fore
SplineSet
718 1388 m 1,0,-1
 632 868 l 1,1,-1
 998 1388 l 1,2,-1
 718 1388 l 1,0,-1
168 1388 m 1,3,-1
 182 1470 l 1,4,-1
 1054 1470 l 1,5,-1
 1142 1594 l 1,6,-1
 1218 1594 l 1,7,-1
 1130 1470 l 1,8,-1
 1186 1470 l 1,9,-1
 1172 1388 l 1,10,-1
 1074 1388 l 1,11,-1
 608 726 l 1,12,-1
 488 0 l 1,13,-1
 394 0 l 1,14,-1
 484 550 l 1,15,-1
 52 -66 l 1,16,-1
 -26 -66 l 1,17,-1
 508 692 l 1,18,-1
 624 1388 l 1,19,-1
 168 1388 l 1,3,-1
EndSplineSet
EndChar

StartChar: uni023F
Encoding: 575 575 513
Width: 918
GlyphClass: 2
Flags: W
LayerCount: 2
Fore
SplineSet
18 184 m 1,0,-1
 92 224 l 1,1,2
 174 40 174 40 380 40 c 0,3,4
 510 40 510 40 597 97 c 128,-1,5
 684 154 684 154 698 246 c 0,6,7
 706 298 706 298 688 338 c 128,-1,8
 670 378 670 378 626 404 c 128,-1,9
 582 430 582 430 541 447 c 128,-1,10
 500 464 500 464 436 488 c 0,11,12
 418 494 418 494 410 496 c 0,13,14
 346 518 346 518 302 539 c 128,-1,15
 258 560 258 560 213 595 c 128,-1,16
 168 630 168 630 151 681 c 128,-1,17
 134 732 134 732 146 800 c 0,18,19
 168 932 168 932 280 1006 c 128,-1,20
 392 1080 392 1080 550 1080 c 0,21,22
 666 1080 666 1080 749 1021 c 128,-1,23
 832 962 832 962 864 870 c 1,24,-1
 796 830 l 1,25,26
 766 910 766 910 699 957 c 128,-1,27
 632 1004 632 1004 538 1004 c 0,28,29
 410 1004 410 1004 329 947 c 128,-1,30
 248 890 248 890 234 800 c 0,31,32
 218 700 218 700 284 646 c 128,-1,33
 350 592 350 592 472 554 c 0,34,35
 546 532 546 532 596 511 c 128,-1,36
 646 490 646 490 698 454 c 128,-1,37
 750 418 750 418 772 366 c 128,-1,38
 794 314 794 314 782 246 c 0,39,40
 762 126 762 126 654 45 c 128,-1,41
 546 -36 546 -36 366 -36 c 0,42,43
 236 -36 236 -36 142 24 c 1,44,45
 162 -208 162 -208 188 -282 c 0,46,47
 236 -418 236 -418 368 -418 c 0,48,49
 414 -418 414 -418 446 -412 c 1,50,-1
 436 -482 l 1,51,52
 372 -488 372 -488 356 -488 c 0,53,54
 288 -488 288 -488 238 -459 c 128,-1,55
 188 -430 188 -430 162 -400 c 128,-1,56
 136 -370 136 -370 116 -289 c 128,-1,57
 96 -208 96 -208 91 -169 c 128,-1,58
 86 -130 86 -130 78 -22 c 0,59,60
 76 -4 76 -4 74 6 c 0,61,62
 62 100 62 100 18 184 c 1,0,-1
EndSplineSet
EndChar

StartChar: uni0240
Encoding: 576 576 514
Width: 896
GlyphClass: 2
Flags: W
LayerCount: 2
Fore
SplineSet
-22 0 m 1,0,-1
 -10 66 l 1,1,-1
 762 966 l 1,2,-1
 188 966 l 1,3,-1
 202 1046 l 1,4,-1
 884 1046 l 1,5,-1
 872 982 l 1,6,-1
 92 68 l 1,7,8
 160 64 160 64 216 27 c 128,-1,9
 272 -10 272 -10 304 -62 c 128,-1,10
 336 -114 336 -114 369 -175 c 128,-1,11
 402 -236 402 -236 428 -287 c 128,-1,12
 454 -338 454 -338 496 -373 c 128,-1,13
 538 -408 538 -408 592 -408 c 0,14,15
 648 -408 648 -408 668 -404 c 1,16,-1
 656 -480 l 1,17,18
 624 -488 624 -488 572 -488 c 0,19,20
 498 -488 498 -488 442 -438 c 128,-1,21
 386 -388 386 -388 349 -317 c 128,-1,22
 312 -246 312 -246 275 -175 c 128,-1,23
 238 -104 238 -104 180 -53 c 128,-1,24
 122 -2 122 -2 48 0 c 2,25,-1
 -22 0 l 1,0,-1
EndSplineSet
EndChar

StartChar: uni0241
Encoding: 577 577 515
Width: 1056
GlyphClass: 2
Flags: W
LayerCount: 2
Fore
SplineSet
234 1214 m 1,0,1
 312 1354 312 1354 433 1431 c 128,-1,2
 554 1508 554 1508 684 1508 c 0,3,4
 860 1508 860 1508 946 1402 c 128,-1,5
 1032 1296 1032 1296 1004 1122 c 0,6,7
 988 1030 988 1030 938 956 c 128,-1,8
 888 882 888 882 828 831 c 128,-1,9
 768 780 768 780 707 728 c 128,-1,10
 646 676 646 676 596 603 c 128,-1,11
 546 530 546 530 532 438 c 2,12,-1
 458 0 l 1,13,-1
 366 0 l 1,14,-1
 440 444 l 2,15,16
 456 544 456 544 506 623 c 128,-1,17
 556 702 556 702 616 754 c 128,-1,18
 676 806 676 806 737 856 c 128,-1,19
 798 906 798 906 847 973 c 128,-1,20
 896 1040 896 1040 910 1122 c 0,21,22
 932 1260 932 1260 870 1344 c 128,-1,23
 808 1428 808 1428 674 1428 c 0,24,25
 562 1428 562 1428 469 1359 c 128,-1,26
 376 1290 376 1290 312 1184 c 1,27,-1
 234 1214 l 1,0,1
EndSplineSet
EndChar

StartChar: uni0250
Encoding: 592 592 516
Width: 1048
GlyphClass: 2
Flags: W
LayerCount: 2
Fore
SplineSet
220 450 m 1,0,1
 324 488 324 488 542 520 c 0,2,3
 716 548 716 548 806 617 c 128,-1,4
 896 686 896 686 914 796 c 0,5,6
 928 880 928 880 869 942 c 128,-1,7
 810 1004 810 1004 684 1004 c 0,8,9
 534 1004 534 1004 406 902 c 128,-1,10
 278 800 278 800 250 638 c 2,11,-1
 220 450 l 1,0,1
118 344 m 2,12,-1
 234 1046 l 1,13,-1
 316 1046 l 1,14,-1
 282 838 l 1,15,16
 334 936 334 936 451 1008 c 128,-1,17
 568 1080 568 1080 706 1080 c 0,18,19
 864 1080 864 1080 943 1003 c 128,-1,20
 1022 926 1022 926 1000 800 c 0,21,22
 976 658 976 658 864 570 c 128,-1,23
 752 482 752 482 528 446 c 0,24,25
 296 410 296 410 208 376 c 1,26,-1
 198 316 l 2,27,28
 178 194 178 194 245 116 c 128,-1,29
 312 38 312 38 452 38 c 0,30,31
 646 38 646 38 802 212 c 1,32,-1
 854 166 l 1,33,34
 778 78 778 78 668 21 c 128,-1,35
 558 -36 558 -36 444 -36 c 0,36,37
 252 -36 252 -36 171 67 c 128,-1,38
 90 170 90 170 118 344 c 2,12,-1
EndSplineSet
EndChar

StartChar: uni0251
Encoding: 593 593 517
Width: 1090
GlyphClass: 2
Flags: W
LayerCount: 2
Fore
SplineSet
178 524 m 0,0,1
 142 302 142 302 213 171 c 128,-1,2
 284 40 284 40 428 40 c 0,3,4
 560 40 560 40 679 168 c 128,-1,5
 798 296 798 296 834 520 c 0,6,7
 870 742 870 742 795 873 c 128,-1,8
 720 1004 720 1004 586 1004 c 0,9,10
 440 1004 440 1004 327 874 c 128,-1,11
 214 744 214 744 178 524 c 0,0,1
90 524 m 0,12,13
 132 780 132 780 270 930 c 128,-1,14
 408 1080 408 1080 592 1080 c 0,15,16
 718 1080 718 1080 794 992 c 128,-1,17
 870 904 870 904 876 808 c 1,18,-1
 916 1046 l 1,19,-1
 1000 1046 l 1,20,-1
 828 0 l 1,21,-1
 744 0 l 1,22,-1
 782 224 l 1,23,24
 726 114 726 114 626 39 c 128,-1,25
 526 -36 526 -36 408 -36 c 0,26,27
 242 -36 242 -36 143 105 c 128,-1,28
 44 246 44 246 90 524 c 0,12,13
EndSplineSet
EndChar

StartChar: uni0252
Encoding: 594 594 518
Width: 1092
GlyphClass: 2
Flags: W
LayerCount: 2
Fore
SplineSet
76 0 m 1,0,-1
 248 1046 l 1,1,-1
 334 1046 l 1,2,-1
 294 806 l 1,3,4
 332 902 332 902 438 991 c 128,-1,5
 544 1080 544 1080 670 1080 c 0,6,7
 856 1080 856 1080 943 930 c 128,-1,8
 1030 780 1030 780 988 524 c 0,9,10
 942 244 942 244 797 104 c 128,-1,11
 652 -36 652 -36 486 -36 c 0,12,13
 366 -36 366 -36 291 39 c 128,-1,14
 216 114 216 114 196 224 c 1,15,-1
 160 0 l 1,16,-1
 76 0 l 1,0,-1
242 520 m 0,17,18
 206 302 206 302 280 171 c 128,-1,19
 354 40 354 40 490 40 c 0,20,21
 636 40 636 40 750 171 c 128,-1,22
 864 302 864 302 900 524 c 0,23,24
 936 744 936 744 867 874 c 128,-1,25
 798 1004 798 1004 650 1004 c 0,26,27
 518 1004 518 1004 398 873 c 128,-1,28
 278 742 278 742 242 520 c 0,17,18
EndSplineSet
EndChar

StartChar: uni0253
Encoding: 595 595 519
Width: 1096
GlyphClass: 2
Flags: W
LayerCount: 2
Fore
SplineSet
252 522 m 0,0,1
 216 300 216 300 287 170 c 128,-1,2
 358 40 358 40 494 40 c 0,3,4
 642 40 642 40 758 172 c 128,-1,5
 874 304 874 304 910 524 c 0,6,7
 946 742 946 742 876 873 c 128,-1,8
 806 1004 806 1004 658 1004 c 0,9,10
 524 1004 524 1004 406 873 c 128,-1,11
 288 742 288 742 252 522 c 0,0,1
80 0 m 1,12,-1
 254 1042 l 2,13,14
 294 1278 294 1278 405 1410 c 128,-1,15
 516 1542 516 1542 696 1542 c 0,16,17
 816 1542 816 1542 926 1504 c 1,18,-1
 904 1428 l 1,19,20
 776 1462 776 1462 692 1462 c 0,21,22
 410 1462 410 1462 340 1030 c 2,23,-1
 302 802 l 1,24,25
 348 912 348 912 449 996 c 128,-1,26
 550 1080 550 1080 678 1080 c 0,27,28
 866 1080 866 1080 951 929 c 128,-1,29
 1036 778 1036 778 994 524 c 0,30,31
 948 252 948 252 807 108 c 128,-1,32
 666 -36 666 -36 492 -36 c 0,33,34
 368 -36 368 -36 297 42 c 128,-1,35
 226 120 226 120 206 228 c 1,36,-1
 170 0 l 1,37,-1
 80 0 l 1,12,-1
EndSplineSet
EndChar

StartChar: uni0254
Encoding: 596 596 520
Width: 948
GlyphClass: 2
Flags: W
LayerCount: 2
Fore
SplineSet
-2 216 m 1,0,-1
 76 244 l 1,1,2
 102 162 102 162 169 101 c 128,-1,3
 236 40 236 40 332 40 c 0,4,5
 482 40 482 40 601 173 c 128,-1,6
 720 306 720 306 756 522 c 0,7,8
 790 732 790 732 718 868 c 128,-1,9
 646 1004 646 1004 492 1004 c 0,10,11
 402 1004 402 1004 324 950 c 128,-1,12
 246 896 246 896 200 812 c 1,13,-1
 128 838 l 1,14,15
 180 942 180 942 282 1011 c 128,-1,16
 384 1080 384 1080 506 1080 c 0,17,18
 708 1080 708 1080 796 923 c 128,-1,19
 884 766 884 766 844 522 c 0,20,21
 802 268 802 268 657 116 c 128,-1,22
 512 -36 512 -36 320 -36 c 0,23,24
 194 -36 194 -36 109 37 c 128,-1,25
 24 110 24 110 -2 216 c 1,0,-1
EndSplineSet
EndChar

StartChar: uni0255
Encoding: 597 597 521
Width: 944
GlyphClass: 2
Flags: W
LayerCount: 2
Fore
SplineSet
330 70 m 1,0,1
 394 40 394 40 500 40 c 0,2,3
 590 40 590 40 655 78 c 128,-1,4
 720 116 720 116 728 174 c 0,5,6
 736 220 736 220 708 250 c 128,-1,7
 680 280 680 280 618 280 c 0,8,9
 530 280 530 280 453 215 c 128,-1,10
 376 150 376 150 330 70 c 1,0,1
90 526 m 0,11,12
 130 764 130 764 268 922 c 128,-1,13
 406 1080 406 1080 614 1080 c 0,14,15
 738 1080 738 1080 813 1009 c 128,-1,16
 888 938 888 938 908 838 c 1,17,-1
 828 812 l 1,18,19
 812 888 812 888 752 946 c 128,-1,20
 692 1004 692 1004 600 1004 c 0,21,22
 442 1004 442 1004 327 870 c 128,-1,23
 212 736 212 736 178 524 c 0,24,25
 132 246 132 246 266 114 c 1,26,27
 332 218 332 218 426 287 c 128,-1,28
 520 356 520 356 632 356 c 0,29,30
 732 356 732 356 780 302 c 128,-1,31
 828 248 828 248 816 174 c 0,32,33
 800 82 800 82 707 23 c 128,-1,34
 614 -36 614 -36 480 -36 c 256,35,36
 348 -36 348 -36 286 -6 c 1,37,38
 268 -38 268 -38 230 -130 c 1,39,-1
 154 -110 l 1,40,41
 174 -46 174 -46 218 30 c 1,42,43
 32 176 32 176 90 526 c 0,11,12
EndSplineSet
EndChar

StartChar: uni0256
Encoding: 598 598 522
Width: 1114
GlyphClass: 2
Flags: W
LayerCount: 2
Fore
SplineSet
90 524 m 0,0,1
 134 784 134 784 273 932 c 128,-1,2
 412 1080 412 1080 594 1080 c 0,3,4
 716 1080 716 1080 790 1000 c 128,-1,5
 864 920 864 920 878 806 c 1,6,-1
 998 1532 l 1,7,-1
 1084 1532 l 1,8,-1
 818 -82 l 2,9,10
 788 -258 788 -258 823 -333 c 128,-1,11
 858 -408 858 -408 956 -408 c 0,12,13
 1004 -408 1004 -408 1070 -398 c 1,14,-1
 1058 -478 l 1,15,16
 1000 -488 1000 -488 932 -488 c 0,17,18
 804 -488 804 -488 749 -400 c 128,-1,19
 694 -312 694 -312 732 -88 c 2,20,-1
 784 230 l 1,21,22
 730 116 730 116 628 40 c 128,-1,23
 526 -36 526 -36 404 -36 c 0,24,25
 238 -36 238 -36 141 104 c 128,-1,26
 44 244 44 244 90 524 c 0,0,1
178 524 m 0,27,28
 142 306 142 306 210 173 c 128,-1,29
 278 40 278 40 428 40 c 0,30,31
 564 40 564 40 680 170 c 128,-1,32
 796 300 796 300 834 524 c 0,33,34
 870 746 870 746 795 875 c 128,-1,35
 720 1004 720 1004 586 1004 c 0,36,37
 444 1004 444 1004 329 874 c 128,-1,38
 214 744 214 744 178 524 c 0,27,28
EndSplineSet
EndChar

StartChar: uni0257
Encoding: 599 599 523
Width: 1114
GlyphClass: 2
Flags: W
LayerCount: 2
Fore
SplineSet
90 524 m 0,0,1
 134 784 134 784 273 932 c 128,-1,2
 412 1080 412 1080 594 1080 c 0,3,4
 716 1080 716 1080 791 999 c 128,-1,5
 866 918 866 918 878 804 c 1,6,-1
 954 1266 l 2,7,8
 976 1400 976 1400 1067 1471 c 128,-1,9
 1158 1542 1158 1542 1292 1542 c 0,10,11
 1340 1542 1340 1542 1404 1534 c 1,12,-1
 1390 1454 l 1,13,14
 1310 1460 1310 1460 1294 1460 c 0,15,16
 1074 1460 1074 1460 1036 1244 c 2,17,-1
 830 0 l 1,18,-1
 746 0 l 1,19,-1
 784 232 l 1,20,21
 730 118 730 118 628 41 c 128,-1,22
 526 -36 526 -36 404 -36 c 0,23,24
 238 -36 238 -36 141 104 c 128,-1,25
 44 244 44 244 90 524 c 0,0,1
178 524 m 256,26,27
 142 304 142 304 210 172 c 128,-1,28
 278 40 278 40 428 40 c 0,29,30
 562 40 562 40 679 170 c 128,-1,31
 796 300 796 300 834 524 c 0,32,33
 870 746 870 746 795 875 c 128,-1,34
 720 1004 720 1004 586 1004 c 0,35,36
 442 1004 442 1004 328 874 c 128,-1,37
 214 744 214 744 178 524 c 256,26,27
EndSplineSet
EndChar

StartChar: uni0258
Encoding: 600 600 524
Width: 1048
GlyphClass: 2
Flags: W
LayerCount: 2
Fore
SplineSet
80 496 m 1,0,1
 82 508 82 508 85 526 c 128,-1,2
 88 544 88 544 90 556 c 0,3,4
 126 778 126 778 267 929 c 128,-1,5
 408 1080 408 1080 602 1080 c 0,6,7
 800 1080 800 1080 893 927 c 128,-1,8
 986 774 986 774 946 530 c 0,9,10
 904 278 904 278 757 121 c 128,-1,11
 610 -36 610 -36 410 -36 c 0,12,13
 268 -36 268 -36 180 33 c 128,-1,14
 92 102 92 102 56 210 c 1,15,-1
 136 238 l 1,16,17
 166 152 166 152 240 96 c 128,-1,18
 314 40 314 40 422 40 c 0,19,20
 588 40 588 40 705 173 c 128,-1,21
 822 306 822 306 854 496 c 1,22,-1
 80 496 l 1,0,1
180 566 m 1,23,-1
 864 566 l 1,24,25
 888 742 888 742 820 873 c 128,-1,26
 752 1004 752 1004 590 1004 c 0,27,28
 438 1004 438 1004 324 875 c 128,-1,29
 210 746 210 746 180 566 c 1,23,-1
EndSplineSet
EndChar

StartChar: uni025A
Encoding: 602 602 526
Width: 1180
GlyphClass: 2
Flags: W
LayerCount: 2
Fore
SplineSet
70 444 m 1,0,-1
 850 792 l 1,1,2
 824 882 824 882 756 943 c 128,-1,3
 688 1004 688 1004 576 1004 c 0,4,5
 472 1004 472 1004 379 946 c 128,-1,6
 286 888 286 888 234 806 c 1,7,-1
 162 834 l 1,8,9
 324 1080 324 1080 590 1080 c 256,10,11
 856 1080 856 1080 928 828 c 1,12,-1
 1080 910 l 1,13,14
 1108 782 1108 782 1218 782 c 0,15,16
 1260 782 1260 782 1274 786 c 1,17,-1
 1262 714 l 1,18,19
 1234 708 1234 708 1204 708 c 0,20,21
 1138 708 1138 708 1096 735 c 128,-1,22
 1054 762 1054 762 1040 804 c 1,23,-1
 942 754 l 1,24,25
 960 652 960 652 940 520 c 0,26,27
 900 282 900 282 758 123 c 128,-1,28
 616 -36 616 -36 406 -36 c 0,29,30
 228 -36 228 -36 138 100 c 128,-1,31
 48 236 48 236 70 444 c 1,0,-1
156 404 m 1,32,33
 150 232 150 232 224 136 c 128,-1,34
 298 40 298 40 420 40 c 0,35,36
 590 40 590 40 704 178 c 128,-1,37
 818 316 818 316 850 506 c 0,38,39
 850 510 850 510 852 514 c 0,40,41
 868 614 868 614 860 716 c 1,42,-1
 156 404 l 1,32,33
EndSplineSet
EndChar

StartChar: uni025B
Encoding: 603 603 527
Width: 862
GlyphClass: 2
Flags: W
LayerCount: 2
Fore
SplineSet
48 270 m 0,0,1
 68 386 68 386 148 458 c 128,-1,2
 228 530 228 530 332 554 c 1,3,-1
 332 556 l 1,4,5
 252 582 252 582 205 644 c 128,-1,6
 158 706 158 706 176 804 c 0,7,8
 196 926 196 926 291 1003 c 128,-1,9
 386 1080 386 1080 544 1080 c 0,10,11
 750 1080 750 1080 826 902 c 1,12,-1
 748 864 l 1,13,14
 686 1004 686 1004 534 1004 c 0,15,16
 414 1004 414 1004 345 948 c 128,-1,17
 276 892 276 892 262 802 c 0,18,19
 246 710 246 710 308 649 c 128,-1,20
 370 588 370 588 516 588 c 2,21,-1
 574 588 l 1,22,-1
 562 518 l 1,23,-1
 504 518 l 2,24,25
 336 518 336 518 244 445 c 128,-1,26
 152 372 152 372 136 270 c 0,27,28
 118 166 118 166 184 103 c 128,-1,29
 250 40 250 40 378 40 c 0,30,31
 462 40 462 40 544 85 c 128,-1,32
 626 130 626 130 676 190 c 1,33,-1
 736 148 l 1,34,35
 668 66 668 66 569 15 c 128,-1,36
 470 -36 470 -36 366 -36 c 0,37,38
 200 -36 200 -36 112 45 c 128,-1,39
 24 126 24 126 48 270 c 0,0,1
EndSplineSet
EndChar

StartChar: uni025C
Encoding: 604 604 528
Width: 864
GlyphClass: 2
Flags: W
LayerCount: 2
Fore
SplineSet
-14 148 m 1,0,-1
 60 190 l 1,1,2
 92 130 92 130 160 85 c 128,-1,3
 228 40 228 40 308 40 c 0,4,5
 436 40 436 40 525 103 c 128,-1,6
 614 166 614 166 632 270 c 0,7,8
 648 372 648 372 580 445 c 128,-1,9
 512 518 512 518 344 518 c 2,10,-1
 286 518 l 1,11,-1
 298 588 l 1,12,-1
 356 588 l 2,13,14
 502 588 502 588 583 649 c 128,-1,15
 664 710 664 710 678 802 c 0,16,17
 692 892 692 892 643 948 c 128,-1,18
 594 1004 594 1004 476 1004 c 0,19,20
 322 1004 322 1004 214 864 c 1,21,-1
 148 902 l 1,22,23
 284 1080 284 1080 488 1080 c 0,24,25
 646 1080 646 1080 716 1002 c 128,-1,26
 786 924 786 924 766 804 c 0,27,28
 750 706 750 706 683 645 c 128,-1,29
 616 584 616 584 524 556 c 1,30,-1
 526 554 l 1,31,32
 622 530 622 530 681 458 c 128,-1,33
 740 386 740 386 720 270 c 0,34,35
 696 126 696 126 581 45 c 128,-1,36
 466 -36 466 -36 300 -36 c 0,37,38
 196 -36 196 -36 112 15 c 128,-1,39
 28 66 28 66 -14 148 c 1,0,-1
EndSplineSet
EndChar

StartChar: uni025D
Encoding: 605 605 529
Width: 942
GlyphClass: 2
Flags: W
LayerCount: 2
Fore
SplineSet
-14 148 m 1,0,-1
 60 190 l 1,1,2
 88 136 88 136 157 88 c 128,-1,3
 226 40 226 40 304 40 c 0,4,5
 440 40 440 40 527 104 c 128,-1,6
 614 168 614 168 632 270 c 256,7,8
 648 372 648 372 580 445 c 128,-1,9
 512 518 512 518 342 518 c 2,10,-1
 286 518 l 1,11,-1
 298 588 l 1,12,-1
 354 588 l 2,13,14
 500 588 500 588 582 649 c 128,-1,15
 664 710 664 710 678 802 c 0,16,17
 694 896 694 896 642 950 c 128,-1,18
 590 1004 590 1004 476 1004 c 0,19,20
 324 1004 324 1004 214 864 c 1,21,-1
 148 902 l 1,22,23
 286 1080 286 1080 488 1080 c 0,24,25
 716 1080 716 1080 762 918 c 1,26,-1
 910 988 l 1,27,28
 924 928 924 928 964 888 c 128,-1,29
 1004 848 1004 848 1060 848 c 0,30,31
 1100 848 1100 848 1114 852 c 1,32,-1
 1102 778 l 1,33,34
 1074 772 1074 772 1042 772 c 0,35,36
 974 772 974 772 929 807 c 128,-1,37
 884 842 884 842 868 886 c 1,38,-1
 770 838 l 1,39,40
 770 822 770 822 762 784 c 0,41,42
 744 698 744 698 677 639 c 128,-1,43
 610 580 610 580 526 556 c 1,44,-1
 526 554 l 1,45,46
 620 530 620 530 680 458 c 128,-1,47
 740 386 740 386 720 270 c 0,48,49
 696 124 696 124 582 44 c 128,-1,50
 468 -36 468 -36 294 -36 c 0,51,52
 190 -36 190 -36 106 18 c 128,-1,53
 22 72 22 72 -14 148 c 1,0,-1
EndSplineSet
EndChar

StartChar: uni025E
Encoding: 606 606 530
Width: 1044
GlyphClass: 2
Flags: W
LayerCount: 2
Fore
SplineSet
90 528 m 0,0,1
 132 786 132 786 278 933 c 128,-1,2
 424 1080 424 1080 624 1080 c 0,3,4
 792 1080 792 1080 878 1001 c 128,-1,5
 964 922 964 922 942 790 c 0,6,7
 926 690 926 690 862 625 c 128,-1,8
 798 560 798 560 718 536 c 1,9,-1
 716 534 l 1,10,11
 806 514 806 514 860 443 c 128,-1,12
 914 372 914 372 896 260 c 0,13,14
 872 120 872 120 755 42 c 128,-1,15
 638 -36 638 -36 448 -36 c 0,16,17
 262 -36 262 -36 153 105 c 128,-1,18
 44 246 44 246 90 528 c 0,0,1
178 528 m 0,19,20
 156 396 156 396 176 296 c 128,-1,21
 196 196 196 196 243 143 c 128,-1,22
 290 90 290 90 346 65 c 128,-1,23
 402 40 402 40 462 40 c 0,24,25
 614 40 614 40 704 100 c 128,-1,26
 794 160 794 160 810 256 c 0,27,28
 826 348 826 348 765 421 c 128,-1,29
 704 494 704 494 540 494 c 2,30,-1
 476 494 l 1,31,-1
 488 566 l 1,32,-1
 552 566 l 2,33,34
 700 566 700 566 770 632 c 128,-1,35
 840 698 840 698 854 782 c 0,36,37
 872 886 872 886 809 945 c 128,-1,38
 746 1004 746 1004 614 1004 c 0,39,40
 462 1004 462 1004 339 880 c 128,-1,41
 216 756 216 756 178 528 c 0,19,20
EndSplineSet
EndChar

StartChar: uni025F
Encoding: 607 607 531
Width: 532
GlyphClass: 2
Flags: W
LayerCount: 2
Fore
SplineSet
-6 564 m 1,0,-1
 6 640 l 1,1,-1
 240 640 l 1,2,-1
 308 1046 l 1,3,-1
 394 1046 l 1,4,-1
 326 640 l 1,5,-1
 536 640 l 1,6,-1
 524 564 l 1,7,-1
 314 564 l 1,8,-1
 198 -136 l 2,9,10
 170 -300 170 -300 89 -387 c 128,-1,11
 8 -474 8 -474 -116 -474 c 2,12,-1
 -182 -474 l 1,13,-1
 -168 -394 l 1,14,-1
 -120 -394 l 2,15,16
 70 -394 70 -394 114 -128 c 2,17,-1
 228 564 l 1,18,-1
 -6 564 l 1,0,-1
EndSplineSet
EndChar

StartChar: uni0260
Encoding: 608 608 532
Width: 1094
GlyphClass: 2
Flags: W
LayerCount: 2
Fore
SplineSet
92 542 m 256,0,1
 132 782 132 782 267 931 c 128,-1,2
 402 1080 402 1080 586 1080 c 0,3,4
 714 1080 714 1080 780 1003 c 128,-1,5
 846 926 846 926 866 824 c 1,6,-1
 938 1260 l 2,7,8
 960 1392 960 1392 1056 1467 c 128,-1,9
 1152 1542 1152 1542 1280 1542 c 0,10,11
 1296 1542 1296 1542 1388 1536 c 1,12,-1
 1374 1458 l 1,13,14
 1322 1462 1322 1462 1278 1462 c 0,15,16
 1182 1462 1182 1462 1110 1405 c 128,-1,17
 1038 1348 1038 1348 1020 1238 c 2,18,-1
 832 94 l 2,19,20
 786 -188 786 -188 671 -338 c 128,-1,21
 556 -488 556 -488 334 -488 c 0,22,23
 230 -488 230 -488 146 -442 c 128,-1,24
 62 -396 62 -396 16 -312 c 1,25,-1
 86 -268 l 1,26,27
 184 -410 184 -410 352 -410 c 0,28,29
 662 -410 662 -410 740 70 c 2,30,-1
 770 250 l 1,31,32
 638 0 638 0 408 0 c 0,33,34
 226 0 226 0 139 151 c 128,-1,35
 52 302 52 302 92 542 c 256,0,1
180 542 m 0,36,37
 146 332 146 332 215 205 c 128,-1,38
 284 78 284 78 422 78 c 0,39,40
 572 78 572 78 677 201 c 128,-1,41
 782 324 782 324 820 544 c 0,42,43
 854 750 854 750 787 877 c 128,-1,44
 720 1004 720 1004 580 1004 c 0,45,46
 432 1004 432 1004 323 876 c 128,-1,47
 214 748 214 748 180 542 c 0,36,37
EndSplineSet
EndChar

StartChar: uni0262
Encoding: 610 610 534
Width: 1108
GlyphClass: 2
Flags: W
LayerCount: 2
Fore
SplineSet
88 522 m 0,0,1
 130 772 130 772 284 927 c 128,-1,2
 438 1082 438 1082 660 1082 c 0,3,4
 890 1082 890 1082 982 868 c 1,5,-1
 906 834 l 1,6,7
 818 1004 818 1004 646 1004 c 0,8,9
 468 1004 468 1004 341 872 c 128,-1,10
 214 740 214 740 178 522 c 0,11,12
 142 302 142 302 224 171 c 128,-1,13
 306 40 306 40 482 40 c 0,14,15
 638 40 638 40 742 143 c 128,-1,16
 846 246 846 246 870 386 c 2,17,-1
 884 474 l 1,18,-1
 538 474 l 1,19,-1
 550 550 l 1,20,-1
 978 550 l 1,21,-1
 886 0 l 1,22,-1
 814 0 l 1,23,-1
 842 174 l 1,24,25
 796 88 796 88 697 26 c 128,-1,26
 598 -36 598 -36 466 -36 c 0,27,28
 252 -36 252 -36 149 115 c 128,-1,29
 46 266 46 266 88 522 c 0,0,1
EndSplineSet
EndChar

StartChar: uni0263
Encoding: 611 611 535
Width: 912
GlyphClass: 2
Flags: W
LayerCount: 2
Fore
SplineSet
102 1046 m 1,0,-1
 200 1046 l 1,1,-1
 392 170 l 1,2,-1
 872 1046 l 1,3,-1
 972 1046 l 1,4,-1
 440 98 l 1,5,6
 500 -6 500 -6 526 -83 c 128,-1,7
 552 -160 552 -160 538 -240 c 0,8,9
 520 -348 520 -348 449 -418 c 128,-1,10
 378 -488 378 -488 284 -488 c 0,11,12
 194 -488 194 -488 146 -421 c 128,-1,13
 98 -354 98 -354 116 -240 c 0,14,15
 126 -180 126 -180 160 -118 c 128,-1,16
 194 -56 194 -56 224 -19 c 128,-1,17
 254 18 254 18 322 96 c 1,18,-1
 102 1046 l 1,0,-1
188 -244 m 0,19,20
 176 -316 176 -316 205 -368 c 128,-1,21
 234 -420 234 -420 294 -420 c 0,22,23
 356 -420 356 -420 403 -368 c 128,-1,24
 450 -316 450 -316 462 -244 c 0,25,26
 470 -192 470 -192 457 -135 c 128,-1,27
 444 -78 444 -78 427 -47 c 128,-1,28
 410 -16 410 -16 372 50 c 1,29,30
 208 -118 208 -118 188 -244 c 0,19,20
EndSplineSet
Substitution2: "'sups' Superscript lookup 5 subtable" uni02E0
Substitution2: "'aalt' Access All Alternates lookup 0 subtable" uni02E0
EndChar

StartChar: uni0264
Encoding: 612 612 536
Width: 898
GlyphClass: 2
Flags: W
LayerCount: 2
Fore
SplineSet
478 732 m 1,0,1
 404 656 404 656 361 604 c 128,-1,2
 318 552 318 552 273 465 c 128,-1,3
 228 378 228 378 212 284 c 0,4,5
 194 178 194 178 236 109 c 128,-1,6
 278 40 278 40 368 40 c 0,7,8
 452 40 452 40 514 110 c 128,-1,9
 576 180 576 180 592 284 c 0,10,11
 614 414 614 414 584 515 c 128,-1,12
 554 616 554 616 478 732 c 1,0,1
146 996 m 1,13,-1
 158 1072 l 1,14,15
 202 1080 202 1080 230 1080 c 0,16,17
 320 1080 320 1080 379 1027 c 128,-1,18
 438 974 438 974 500 864 c 1,19,20
 596 972 596 972 674 1026 c 128,-1,21
 752 1080 752 1080 840 1080 c 0,22,23
 886 1080 886 1080 910 1074 c 1,24,-1
 898 994 l 1,25,26
 858 1004 858 1004 832 1004 c 0,27,28
 760 1004 760 1004 692 952 c 128,-1,29
 624 900 624 900 540 800 c 1,30,31
 634 654 634 654 670 541 c 128,-1,32
 706 428 706 428 680 282 c 0,33,34
 656 138 656 138 569 51 c 128,-1,35
 482 -36 482 -36 356 -36 c 0,36,37
 222 -36 222 -36 162 51 c 128,-1,38
 102 138 102 138 126 282 c 0,39,40
 136 348 136 348 163 414 c 128,-1,41
 190 480 190 480 212 521 c 128,-1,42
 234 562 234 562 286 626 c 128,-1,43
 338 690 338 690 357 711 c 128,-1,44
 376 732 376 732 438 800 c 1,45,46
 386 902 386 902 337 953 c 128,-1,47
 288 1004 288 1004 216 1004 c 0,48,49
 210 1004 210 1004 146 996 c 1,13,-1
EndSplineSet
EndChar

StartChar: uni0265
Encoding: 613 613 537
Width: 1082
GlyphClass: 2
Flags: W
LayerCount: 2
Fore
SplineSet
126 366 m 2,0,-1
 240 1046 l 1,1,-1
 326 1046 l 1,2,-1
 216 388 l 2,3,4
 158 40 158 40 408 40 c 0,5,6
 534 40 534 40 653 150 c 128,-1,7
 772 260 772 260 796 412 c 2,8,-1
 902 1046 l 1,9,-1
 986 1046 l 1,10,-1
 734 -480 l 1,11,-1
 648 -480 l 1,12,-1
 762 200 l 1,13,-1
 760 200 l 1,14,15
 712 110 712 110 607 37 c 128,-1,16
 502 -36 502 -36 378 -36 c 0,17,18
 320 -36 320 -36 272 -20 c 128,-1,19
 224 -4 224 -4 180 37 c 128,-1,20
 136 78 136 78 121 162 c 128,-1,21
 106 246 106 246 126 366 c 2,0,-1
EndSplineSet
EndChar

StartChar: uni0266
Encoding: 614 614 538
Width: 1082
GlyphClass: 2
Flags: W
LayerCount: 2
Fore
SplineSet
82 0 m 1,0,-1
 284 1216 l 2,1,2
 310 1370 310 1370 412 1456 c 128,-1,3
 514 1542 514 1542 648 1542 c 0,4,5
 732 1542 732 1542 838 1526 c 1,6,-1
 824 1448 l 1,7,8
 724 1462 724 1462 642 1462 c 0,9,10
 524 1462 524 1462 455 1380 c 128,-1,11
 386 1298 386 1298 370 1200 c 2,12,-1
 310 844 l 1,13,-1
 312 844 l 1,14,15
 364 938 364 938 467 1009 c 128,-1,16
 570 1080 570 1080 694 1080 c 0,17,18
 752 1080 752 1080 799 1065 c 128,-1,19
 846 1050 846 1050 889 1009 c 128,-1,20
 932 968 932 968 948 884 c 128,-1,21
 964 800 964 800 944 676 c 2,22,-1
 832 0 l 1,23,-1
 748 0 l 1,24,-1
 858 658 l 2,25,26
 916 1004 916 1004 666 1004 c 0,27,28
 540 1004 540 1004 421 895 c 128,-1,29
 302 786 302 786 276 632 c 2,30,-1
 170 0 l 1,31,-1
 82 0 l 1,0,-1
EndSplineSet
Substitution2: "'sups' Superscript lookup 5 subtable" uni02B1
Substitution2: "'aalt' Access All Alternates lookup 0 subtable" uni02B1
EndChar

StartChar: uni0267
Encoding: 615 615 539
Width: 1092
GlyphClass: 2
Flags: W
LayerCount: 2
Fore
SplineSet
82 0 m 1,0,-1
 284 1214 l 2,1,2
 310 1370 310 1370 412 1456 c 128,-1,3
 514 1542 514 1542 648 1542 c 0,4,5
 732 1542 732 1542 838 1526 c 1,6,-1
 824 1448 l 1,7,8
 724 1462 724 1462 642 1462 c 0,9,10
 524 1462 524 1462 455 1379 c 128,-1,11
 386 1296 386 1296 368 1196 c 2,12,-1
 310 844 l 1,13,-1
 312 844 l 1,14,15
 364 938 364 938 467 1009 c 128,-1,16
 570 1080 570 1080 694 1080 c 0,17,18
 752 1080 752 1080 799 1064 c 128,-1,19
 846 1048 846 1048 889 1008 c 128,-1,20
 932 968 932 968 948 884 c 128,-1,21
 964 800 964 800 944 676 c 2,22,-1
 808 -138 l 2,23,24
 780 -310 780 -310 702 -399 c 128,-1,25
 624 -488 624 -488 468 -488 c 0,26,27
 414 -488 414 -488 360 -482 c 1,28,-1
 374 -404 l 1,29,30
 420 -410 420 -410 470 -410 c 0,31,32
 574 -410 574 -410 638 -348 c 128,-1,33
 702 -286 702 -286 726 -134 c 2,34,-1
 858 658 l 2,35,36
 916 1004 916 1004 666 1004 c 0,37,38
 540 1004 540 1004 420 894 c 128,-1,39
 300 784 300 784 276 632 c 2,40,-1
 170 0 l 1,41,-1
 82 0 l 1,0,-1
EndSplineSet
EndChar

StartChar: uni0268
Encoding: 616 616 540
Width: 520
GlyphClass: 2
Flags: W
LayerCount: 2
Fore
SplineSet
312 1322 m 1,0,-1
 340 1492 l 1,1,-1
 488 1492 l 1,2,-1
 460 1322 l 1,3,-1
 312 1322 l 1,0,-1
44 540 m 1,4,-1
 58 618 l 1,5,-1
 228 618 l 1,6,-1
 298 1046 l 1,7,-1
 386 1046 l 1,8,-1
 314 618 l 1,9,-1
 484 618 l 1,10,-1
 470 540 l 1,11,-1
 302 540 l 1,12,-1
 212 0 l 1,13,-1
 126 0 l 1,14,-1
 216 540 l 1,15,-1
 44 540 l 1,4,-1
EndSplineSet
EndChar

StartChar: uni0269
Encoding: 617 617 541
Width: 614
GlyphClass: 2
Flags: W
LayerCount: 2
Fore
SplineSet
118 270 m 2,0,-1
 246 1046 l 1,1,-1
 334 1046 l 1,2,-1
 208 274 l 2,3,4
 170 42 170 42 336 42 c 0,5,6
 380 42 380 42 470 54 c 1,7,-1
 456 -26 l 1,8,9
 354 -36 354 -36 310 -36 c 0,10,11
 68 -36 68 -36 118 270 c 2,0,-1
EndSplineSet
EndChar

StartChar: uni026B
Encoding: 619 619 543
Width: 468
GlyphClass: 2
Flags: W
LayerCount: 2
Fore
SplineSet
12 756 m 1,0,-1
 26 834 l 1,1,2
 106 864 106 864 168 864 c 0,3,4
 192 864 192 864 238 852 c 1,5,-1
 350 1532 l 1,6,-1
 438 1532 l 1,7,-1
 324 834 l 1,8,9
 374 820 374 820 414 820 c 0,10,11
 478 820 478 820 534 850 c 1,12,-1
 522 772 l 1,13,14
 458 740 458 740 400 740 c 0,15,16
 368 740 368 740 310 756 c 1,17,-1
 186 0 l 1,18,-1
 96 0 l 1,19,-1
 224 774 l 1,20,21
 178 786 178 786 154 786 c 0,22,23
 104 786 104 786 12 756 c 1,0,-1
EndSplineSet
EndChar

StartChar: uni026C
Encoding: 620 620 544
Width: 824
GlyphClass: 2
Flags: W
LayerCount: 2
Fore
SplineSet
140 832 m 0,0,1
 154 916 154 916 219 976 c 128,-1,2
 284 1036 284 1036 380 1036 c 0,3,4
 456 1036 456 1036 513 991 c 128,-1,5
 570 946 570 946 586 896 c 1,6,-1
 692 1532 l 1,7,-1
 778 1532 l 1,8,-1
 636 666 l 1,9,-1
 844 666 l 1,10,-1
 832 594 l 1,11,-1
 624 594 l 1,12,-1
 526 0 l 1,13,-1
 438 0 l 1,14,-1
 536 594 l 1,15,-1
 394 594 l 2,16,17
 264 594 264 594 193 657 c 128,-1,18
 122 720 122 720 140 832 c 0,0,1
226 832 m 0,19,20
 214 754 214 754 265 710 c 128,-1,21
 316 666 316 666 410 666 c 2,22,-1
 548 666 l 1,23,-1
 556 726 l 2,24,25
 570 826 570 826 511 892 c 128,-1,26
 452 958 452 958 374 958 c 0,27,28
 318 958 318 958 276 921 c 128,-1,29
 234 884 234 884 226 832 c 0,19,20
EndSplineSet
EndChar

